<ttFont>
    <TTGlyph name=".notdef" xMin="68" yMin="0" xMax="612" yMax="1365">
      <contour>
        <pt x="136" y="68" on="1"/>
        <pt x="544" y="68" on="1"/>
        <pt x="544" y="1297" on="1"/>
        <pt x="136" y="1297" on="1"/>
      </contour>
      <contour>
        <pt x="68" y="0" on="1"/>
        <pt x="68" y="1365" on="1"/>
        <pt x="612" y="1365" on="1"/>
        <pt x="612" y="0" on="1"/>
      </contour>
    </TTGlyph>
    <TTGlyph name="A" xMin="-3" yMin="0" xMax="1362" yMax="1466">
      <contour>
        <pt x="-3" y="0" on="1"/>
        <pt x="536" y="1466" on="1"/>
        <pt x="831" y="1466" on="1"/>
        <pt x="1362" y="0" on="1"/>
        <pt x="1084" y="0" on="1"/>
        <pt x="939" y="414" on="1"/>
        <pt x="426" y="414" on="1"/>
        <pt x="280" y="0" on="1"/>
      </contour>
      <contour>
        <pt x="494" y="616" on="1"/>
        <pt x="870" y="616" on="1"/>
        <pt x="690" y="1193" on="0"/>
        <pt x="685" y="1212" on="1"/>
      </contour>
    </TTGlyph>
    <TTGlyph name="AE" xMin="38" yMin="0" xMax="1926" yMax="1481">
      <contour>
        <pt x="38" y="0" on="1"/>
        <pt x="882" y="1481" on="1"/>
        <pt x="1891" y="1481" on="1"/>
        <pt x="1876" y="1285" on="1"/>
        <pt x="1269" y="1285" on="1"/>
        <pt x="1302" y="851" on="1"/>
        <pt x="1851" y="851" on="1"/>
        <pt x="1851" y="655" on="1"/>
        <pt x="1322" y="655" on="1"/>
        <pt x="1361" y="196" on="1"/>
        <pt x="1926" y="196" on="1"/>
        <pt x="1912" y="0" on="1"/>
        <pt x="1099" y="0" on="1"/>
        <pt x="1069" y="375" on="1"/>
        <pt x="545" y="375" on="1"/>
        <pt x="340" y="0" on="1"/>
      </contour>
      <contour>
        <pt x="638" y="572" on="1"/>
        <pt x="1053" y="572" on="1"/>
        <pt x="1003" y="1235" on="1"/>
      </contour>
    </TTGlyph>
    <TTGlyph name="Aacute" xMin="-3" yMin="0" xMax="1362" yMax="1991">
      <component glyphName="acute" x="411" y="413" flags="0x1004"/>
      <component glyphName="A" x="0" y="0" flags="0x1204"/>
    </TTGlyph>
    <TTGlyph name="Abreve" xMin="-3" yMin="0" xMax="1362" yMax="1860">
      <component glyphName="breve" x="328" y="379" flags="0x1004"/>
      <component glyphName="A" x="0" y="0" flags="0x1204"/>
    </TTGlyph>
    <TTGlyph name="Acircumflex" xMin="-3" yMin="0" xMax="1362" yMax="1991">
      <component glyphName="circumflex" x="278" y="445" flags="0x1004"/>
      <component glyphName="A" x="0" y="0" flags="0x1204"/>
    </TTGlyph>
    <TTGlyph name="Adieresis" xMin="-3" yMin="0" xMax="1362" yMax="1862">
      <component glyphName="dieresis" x="293" y="372" flags="0x1004"/>
      <component glyphName="A" x="0" y="0" flags="0x1204"/>
    </TTGlyph>
    <TTGlyph name="Agrave" xMin="-3" yMin="0" xMax="1362" yMax="1991">
      <component glyphName="grave" x="275" y="413" flags="0x1004"/>
      <component glyphName="A" x="0" y="0" flags="0x1204"/>
    </TTGlyph>
    <TTGlyph name="Amacron" xMin="-3" yMin="0" xMax="1362" yMax="1761">
      <component glyphName="macron" x="218" y="231" flags="0x1004"/>
      <component glyphName="A" x="0" y="0" flags="0x1204"/>
    </TTGlyph>
    <TTGlyph name="Aogonek" xMin="-3" yMin="-412" xMax="1364" yMax="1466">
      <component glyphName="ogonek" x="851" y="-20" flags="0x1004"/>
      <component glyphName="A" x="0" y="0" flags="0x1004"/>
    </TTGlyph>
    <TTGlyph name="Aring" xMin="-3" yMin="0" xMax="1362" yMax="1877">
      <component glyphName="ring" x="350" y="315" flags="0x1004"/>
      <component glyphName="A" x="0" y="0" flags="0x1204"/>
    </TTGlyph>
    <TTGlyph name="Atilde" xMin="-3" yMin="0" xMax="1362" yMax="1847">
      <component glyphName="tilde" x="290" y="378" flags="0x1004"/>
      <component glyphName="A" x="0" y="0" flags="0x1204"/>
    </TTGlyph>
    <TTGlyph name="B" xMin="158" yMin="0" xMax="1253" yMax="1465">
      <contour>
        <pt x="158" y="0" on="1"/>
        <pt x="158" y="1465" on="1"/>
        <pt x="615" y="1465" on="1"/>
        <pt x="906" y="1465" on="0"/>
        <pt x="1192" y="1295" on="0"/>
        <pt x="1192" y="1097" on="1"/>
        <pt x="1192" y="1065" on="0"/>
        <pt x="1184" y="1003" on="0"/>
        <pt x="1156" y="924" on="0"/>
        <pt x="1110" y="860" on="0"/>
        <pt x="1028" y="799" on="0"/>
        <pt x="973" y="782" on="1"/>
        <pt x="1109" y="749" on="0"/>
        <pt x="1253" y="562" on="0"/>
        <pt x="1253" y="425" on="1"/>
        <pt x="1253" y="218" on="0"/>
        <pt x="960" y="0" on="0"/>
        <pt x="701" y="0" on="1"/>
      </contour>
      <contour>
        <pt x="429" y="196" on="1"/>
        <pt x="664" y="196" on="1"/>
        <pt x="976" y="196" on="0"/>
        <pt x="976" y="440" on="1"/>
        <pt x="976" y="563" on="0"/>
        <pt x="820" y="671" on="0"/>
        <pt x="657" y="671" on="1"/>
        <pt x="429" y="671" on="1"/>
      </contour>
      <contour>
        <pt x="429" y="860" on="1"/>
        <pt x="661" y="860" on="1"/>
        <pt x="930" y="860" on="0"/>
        <pt x="930" y="1065" on="1"/>
        <pt x="930" y="1180" on="0"/>
        <pt x="775" y="1266" on="0"/>
        <pt x="606" y="1266" on="1"/>
        <pt x="429" y="1266" on="1"/>
      </contour>
    </TTGlyph>
    <TTGlyph name="C" xMin="100" yMin="-21" xMax="1246" yMax="1486">
      <contour>
        <pt x="797" y="-21" on="1"/>
        <pt x="476" y="-21" on="0"/>
        <pt x="100" y="383" on="0"/>
        <pt x="100" y="739" on="1"/>
        <pt x="100" y="1077" on="0"/>
        <pt x="493" y="1486" on="0"/>
        <pt x="811" y="1486" on="1"/>
        <pt x="1068" y="1486" on="0"/>
        <pt x="1246" y="1367" on="1"/>
        <pt x="1161" y="1162" on="1"/>
        <pt x="990" y="1267" on="0"/>
        <pt x="817" y="1267" on="1"/>
        <pt x="615" y="1267" on="0"/>
        <pt x="380" y="976" on="0"/>
        <pt x="380" y="731" on="1"/>
        <pt x="380" y="477" on="0"/>
        <pt x="607" y="199" on="0"/>
        <pt x="817" y="199" on="1"/>
        <pt x="1001" y="199" on="0"/>
        <pt x="1182" y="291" on="1"/>
        <pt x="1218" y="79" on="1"/>
        <pt x="1050" y="-21" on="0"/>
      </contour>
    </TTGlyph>
    <TTGlyph name="Cacute" xMin="100" yMin="-21" xMax="1246" yMax="1991">
      <component glyphName="acute" x="404" y="413" flags="0x1004"/>
      <component glyphName="C" x="0" y="0" flags="0x1204"/>
    </TTGlyph>
    <TTGlyph name="Ccaron" xMin="100" yMin="-21" xMax="1246" yMax="1961">
      <component glyphName="caron" x="270" y="415" flags="0x1004"/>
      <component glyphName="C" x="0" y="0" flags="0x1204"/>
    </TTGlyph>
    <TTGlyph name="Ccedilla" xMin="100" yMin="-389" xMax="1246" yMax="1486">
      <component glyphName="cedilla" x="533" y="-32" flags="0x1004"/>
      <component glyphName="C" x="0" y="0" flags="0x1204"/>
    </TTGlyph>
    <TTGlyph name="Ccircumflex" xMin="100" yMin="-21" xMax="1246" yMax="1991">
      <component glyphName="circumflex" x="272" y="445" flags="0x1004"/>
      <component glyphName="C" x="0" y="0" flags="0x1204"/>
    </TTGlyph>
    <TTGlyph name="Cdotaccent" xMin="100" yMin="-21" xMax="1246" yMax="1824">
      <component glyphName="uni0307" x="416" y="386" flags="0x1004"/>
      <component glyphName="C" x="0" y="0" flags="0x1204"/>
    </TTGlyph>
    <TTGlyph name="D" xMin="159" yMin="0" xMax="1415" yMax="1465">
      <contour>
        <pt x="430" y="217" on="1"/>
        <pt x="624" y="217" on="1"/>
        <pt x="875" y="217" on="0"/>
        <pt x="1137" y="480" on="0"/>
        <pt x="1137" y="732" on="1"/>
        <pt x="1137" y="1002" on="0"/>
        <pt x="867" y="1247" on="0"/>
        <pt x="595" y="1247" on="1"/>
        <pt x="430" y="1247" on="1"/>
      </contour>
      <contour>
        <pt x="159" y="0" on="1"/>
        <pt x="159" y="1465" on="1"/>
        <pt x="583" y="1465" on="1"/>
        <pt x="775" y="1465" on="0"/>
        <pt x="1079" y="1377" on="0"/>
        <pt x="1298" y="1200" on="0"/>
        <pt x="1415" y="921" on="0"/>
        <pt x="1415" y="738" on="1"/>
        <pt x="1415" y="383" on="0"/>
        <pt x="987" y="0" on="0"/>
        <pt x="608" y="0" on="1"/>
      </contour>
    </TTGlyph>
    <TTGlyph name="Dcaron" xMin="159" yMin="0" xMax="1415" yMax="1961">
      <component glyphName="caron" x="384" y="415" flags="0x1004"/>
      <component glyphName="D" x="0" y="0" flags="0x1204"/>
    </TTGlyph>
    <TTGlyph name="E" xMin="158" yMin="0" xMax="1057" yMax="1465">
      <contour>
        <pt x="158" y="0" on="1"/>
        <pt x="158" y="1465" on="1"/>
        <pt x="1046" y="1465" on="1"/>
        <pt x="1035" y="1250" on="1"/>
        <pt x="429" y="1250" on="1"/>
        <pt x="429" y="872" on="1"/>
        <pt x="1005" y="872" on="1"/>
        <pt x="1005" y="657" on="1"/>
        <pt x="429" y="657" on="1"/>
        <pt x="429" y="216" on="1"/>
        <pt x="1057" y="216" on="1"/>
        <pt x="1048" y="0" on="1"/>
      </contour>
    </TTGlyph>
    <TTGlyph name="Eacute" xMin="158" yMin="0" xMax="1057" yMax="1991">
      <component glyphName="acute" x="339" y="413" flags="0x1004"/>
      <component glyphName="E" x="0" y="0" flags="0x1204"/>
    </TTGlyph>
    <TTGlyph name="Ecaron" xMin="158" yMin="0" xMax="1057" yMax="1961">
      <component glyphName="caron" x="204" y="415" flags="0x1004"/>
      <component glyphName="E" x="0" y="0" flags="0x1204"/>
    </TTGlyph>
    <TTGlyph name="Ecircumflex" xMin="158" yMin="0" xMax="1057" yMax="1991">
      <component glyphName="circumflex" x="206" y="445" flags="0x1004"/>
      <component glyphName="E" x="0" y="0" flags="0x1204"/>
    </TTGlyph>
    <TTGlyph name="Edieresis" xMin="158" yMin="0" xMax="1057" yMax="1862">
      <component glyphName="dieresis" x="221" y="372" flags="0x1004"/>
      <component glyphName="E" x="0" y="0" flags="0x1204"/>
    </TTGlyph>
    <TTGlyph name="Edotaccent" xMin="158" yMin="0" xMax="1057" yMax="1824">
      <component glyphName="uni0307" x="350" y="386" flags="0x1004"/>
      <component glyphName="E" x="0" y="0" flags="0x1204"/>
    </TTGlyph>
    <TTGlyph name="Egrave" xMin="158" yMin="0" xMax="1057" yMax="1991">
      <component glyphName="grave" x="203" y="413" flags="0x1004"/>
      <component glyphName="E" x="0" y="0" flags="0x1204"/>
    </TTGlyph>
    <TTGlyph name="Emacron" xMin="158" yMin="0" xMax="1057" yMax="1761">
      <component glyphName="macron" x="146" y="231" flags="0x1004"/>
      <component glyphName="E" x="0" y="0" flags="0x1204"/>
    </TTGlyph>
    <TTGlyph name="Eogonek" xMin="158" yMin="-412" xMax="1057" yMax="1465">
      <component glyphName="ogonek" x="302" y="-20" flags="0x1004"/>
      <component glyphName="E" x="0" y="0" flags="0x1004"/>
    </TTGlyph>
    <TTGlyph name="Eth" xMin="6" yMin="1" xMax="1441" yMax="1463">
      <contour>
        <pt x="398" y="206" on="1"/>
        <pt x="633" y="206" on="1"/>
        <pt x="892" y="206" on="0"/>
        <pt x="1171" y="474" on="0"/>
        <pt x="1171" y="725" on="1"/>
        <pt x="1171" y="874" on="0"/>
        <pt x="1091" y="1081" on="0"/>
        <pt x="927" y="1203" on="0"/>
        <pt x="701" y="1256" on="0"/>
        <pt x="542" y="1256" on="1"/>
        <pt x="398" y="1256" on="1"/>
        <pt x="398" y="829" on="1"/>
        <pt x="597" y="829" on="1"/>
        <pt x="597" y="650" on="1"/>
        <pt x="398" y="650" on="1"/>
      </contour>
      <contour>
        <pt x="131" y="1" on="1"/>
        <pt x="131" y="650" on="1"/>
        <pt x="6" y="650" on="1"/>
        <pt x="6" y="829" on="1"/>
        <pt x="131" y="829" on="1"/>
        <pt x="131" y="1463" on="1"/>
        <pt x="522" y="1463" on="1"/>
        <pt x="1441" y="1463" on="0"/>
        <pt x="1441" y="729" on="1"/>
        <pt x="1441" y="553" on="0"/>
        <pt x="1321" y="275" on="0"/>
        <pt x="1103" y="95" on="0"/>
        <pt x="801" y="1" on="0"/>
        <pt x="617" y="1" on="1"/>
      </contour>
    </TTGlyph>
    <TTGlyph name="Euro" xMin="78" yMin="-20" xMax="1131" yMax="1475">
      <contour>
        <pt x="773" y="-20" on="1"/>
        <pt x="646" y="-20" on="0"/>
        <pt x="445" y="66" on="0"/>
        <pt x="315" y="219" on="0"/>
        <pt x="235" y="404" on="0"/>
        <pt x="217" y="515" on="1"/>
        <pt x="81" y="515" on="1"/>
        <pt x="104" y="667" on="1"/>
        <pt x="197" y="667" on="1"/>
        <pt x="197" y="669" on="0"/>
        <pt x="198" y="728" on="0"/>
        <pt x="198" y="730" on="1"/>
        <pt x="198" y="735" on="0"/>
        <pt x="200" y="806" on="0"/>
        <pt x="200" y="811" on="1"/>
        <pt x="78" y="811" on="1"/>
        <pt x="105" y="957" on="1"/>
        <pt x="223" y="957" on="1"/>
        <pt x="245" y="1067" on="0"/>
        <pt x="336" y="1250" on="0"/>
        <pt x="475" y="1394" on="0"/>
        <pt x="677" y="1475" on="0"/>
        <pt x="800" y="1475" on="1"/>
        <pt x="1003" y="1475" on="0"/>
        <pt x="1131" y="1347" on="1"/>
        <pt x="1084" y="1152" on="1"/>
        <pt x="1032" y="1225" on="0"/>
        <pt x="887" y="1301" on="0"/>
        <pt x="808" y="1301" on="1"/>
        <pt x="671" y="1301" on="0"/>
        <pt x="470" y="1112" on="0"/>
        <pt x="451" y="958" on="1"/>
        <pt x="1019" y="958" on="1"/>
        <pt x="993" y="811" on="1"/>
        <pt x="426" y="811" on="1"/>
        <pt x="426" y="806" on="0"/>
        <pt x="424" y="733" on="0"/>
        <pt x="424" y="700" on="1"/>
        <pt x="423" y="667" on="1"/>
        <pt x="984" y="667" on="1"/>
        <pt x="963" y="515" on="1"/>
        <pt x="446" y="515" on="1"/>
        <pt x="475" y="354" on="0"/>
        <pt x="665" y="172" on="0"/>
        <pt x="802" y="172" on="1"/>
        <pt x="963" y="172" on="0"/>
        <pt x="1114" y="294" on="1"/>
        <pt x="1113" y="86" on="1"/>
        <pt x="962" y="-20" on="0"/>
      </contour>
    </TTGlyph>
    <TTGlyph name="F" xMin="158" yMin="0" xMax="1025" yMax="1465">
      <contour>
        <pt x="158" y="0" on="1"/>
        <pt x="158" y="1465" on="1"/>
        <pt x="1025" y="1465" on="1"/>
        <pt x="1015" y="1250" on="1"/>
        <pt x="427" y="1250" on="1"/>
        <pt x="427" y="834" on="1"/>
        <pt x="986" y="834" on="1"/>
        <pt x="986" y="621" on="1"/>
        <pt x="427" y="621" on="1"/>
        <pt x="427" y="0" on="1"/>
      </contour>
    </TTGlyph>
    <TTGlyph name="G" xMin="100" yMin="-21" xMax="1333" yMax="1486">
      <contour>
        <pt x="812" y="-21" on="1"/>
        <pt x="477" y="-21" on="0"/>
        <pt x="100" y="383" on="0"/>
        <pt x="100" y="734" on="1"/>
        <pt x="100" y="957" on="0"/>
        <pt x="276" y="1296" on="0"/>
        <pt x="618" y="1486" on="0"/>
        <pt x="851" y="1486" on="1"/>
        <pt x="1118" y="1486" on="0"/>
        <pt x="1309" y="1371" on="1"/>
        <pt x="1221" y="1169" on="1"/>
        <pt x="1039" y="1267" on="0"/>
        <pt x="856" y="1267" on="1"/>
        <pt x="634" y="1267" on="0"/>
        <pt x="380" y="979" on="0"/>
        <pt x="380" y="731" on="1"/>
        <pt x="380" y="485" on="0"/>
        <pt x="606" y="199" on="0"/>
        <pt x="824" y="199" on="1"/>
        <pt x="964" y="199" on="0"/>
        <pt x="1078" y="243" on="1"/>
        <pt x="1078" y="583" on="1"/>
        <pt x="771" y="583" on="1"/>
        <pt x="773" y="796" on="1"/>
        <pt x="1333" y="796" on="1"/>
        <pt x="1333" y="89" on="1"/>
        <pt x="1197" y="33" on="0"/>
        <pt x="954" y="-21" on="0"/>
      </contour>
    </TTGlyph>
    <TTGlyph name="Gbreve" xMin="100" yMin="-21" xMax="1333" yMax="1860">
      <component glyphName="breve" x="364" y="379" flags="0x1004"/>
      <component glyphName="G" x="0" y="0" flags="0x1204"/>
    </TTGlyph>
    <TTGlyph name="Gcircumflex" xMin="100" yMin="-21" xMax="1333" yMax="1991">
      <component glyphName="circumflex" x="315" y="445" flags="0x1004"/>
      <component glyphName="G" x="0" y="0" flags="0x1204"/>
    </TTGlyph>
    <TTGlyph name="Gcommaaccent" xMin="100" yMin="-641" xMax="1333" yMax="1486">
      <contour>
        <pt x="576" y="-641" on="1"/>
        <pt x="671" y="-143" on="1"/>
        <pt x="856" y="-143" on="1"/>
        <pt x="712" y="-641" on="1"/>
      </contour>
      <contour>
        <pt x="812" y="-21" on="1"/>
        <pt x="477" y="-21" on="0"/>
        <pt x="100" y="383" on="0"/>
        <pt x="100" y="734" on="1"/>
        <pt x="100" y="957" on="0"/>
        <pt x="276" y="1296" on="0"/>
        <pt x="618" y="1486" on="0"/>
        <pt x="851" y="1486" on="1"/>
        <pt x="1118" y="1486" on="0"/>
        <pt x="1309" y="1371" on="1"/>
        <pt x="1221" y="1169" on="1"/>
        <pt x="1039" y="1267" on="0"/>
        <pt x="856" y="1267" on="1"/>
        <pt x="634" y="1267" on="0"/>
        <pt x="380" y="979" on="0"/>
        <pt x="380" y="731" on="1"/>
        <pt x="380" y="485" on="0"/>
        <pt x="606" y="199" on="0"/>
        <pt x="824" y="199" on="1"/>
        <pt x="964" y="199" on="0"/>
        <pt x="1078" y="243" on="1"/>
        <pt x="1078" y="583" on="1"/>
        <pt x="771" y="583" on="1"/>
        <pt x="773" y="796" on="1"/>
        <pt x="1333" y="796" on="1"/>
        <pt x="1333" y="89" on="1"/>
        <pt x="1197" y="33" on="0"/>
        <pt x="954" y="-21" on="0"/>
      </contour>
    </TTGlyph>
    <TTGlyph name="Gdotaccent" xMin="100" yMin="-21" xMax="1333" yMax="1824">
      <component glyphName="uni0307" x="459" y="386" flags="0x1004"/>
      <component glyphName="G" x="0" y="0" flags="0x1204"/>
    </TTGlyph>
    <TTGlyph name="H" xMin="158" yMin="0" xMax="1362" yMax="1465">
      <contour>
        <pt x="158" y="0" on="1"/>
        <pt x="158" y="1465" on="1"/>
        <pt x="429" y="1465" on="1"/>
        <pt x="429" y="866" on="1"/>
        <pt x="1091" y="866" on="1"/>
        <pt x="1091" y="1465" on="1"/>
        <pt x="1362" y="1465" on="1"/>
        <pt x="1362" y="0" on="1"/>
        <pt x="1091" y="0" on="1"/>
        <pt x="1091" y="652" on="1"/>
        <pt x="429" y="652" on="1"/>
        <pt x="429" y="0" on="1"/>
      </contour>
    </TTGlyph>
    <TTGlyph name="Hbar" xMin="45" yMin="0" xMax="1449" yMax="1458">
      <contour>
        <pt x="131" y="0" on="1"/>
        <pt x="131" y="1178" on="1"/>
        <pt x="45" y="1178" on="1"/>
        <pt x="45" y="1310" on="1"/>
        <pt x="131" y="1310" on="1"/>
        <pt x="131" y="1458" on="1"/>
        <pt x="398" y="1458" on="1"/>
        <pt x="398" y="1310" on="1"/>
        <pt x="1095" y="1310" on="1"/>
        <pt x="1095" y="1458" on="1"/>
        <pt x="1363" y="1458" on="1"/>
        <pt x="1363" y="1310" on="1"/>
        <pt x="1449" y="1310" on="1"/>
        <pt x="1449" y="1178" on="1"/>
        <pt x="1363" y="1178" on="1"/>
        <pt x="1363" y="0" on="1"/>
        <pt x="1095" y="0" on="1"/>
        <pt x="1095" y="658" on="1"/>
        <pt x="398" y="658" on="1"/>
        <pt x="398" y="0" on="1"/>
      </contour>
      <contour>
        <pt x="398" y="853" on="1"/>
        <pt x="1095" y="853" on="1"/>
        <pt x="1095" y="1178" on="1"/>
        <pt x="398" y="1178" on="1"/>
      </contour>
    </TTGlyph>
    <TTGlyph name="Hcircumflex" xMin="158" yMin="0" xMax="1362" yMax="1991">
      <component glyphName="circumflex" x="358" y="445" flags="0x1004"/>
      <component glyphName="H" x="0" y="0" flags="0x1204"/>
    </TTGlyph>
    <TTGlyph name="I" xMin="165" yMin="0" xMax="436" yMax="1465">
      <contour>
        <pt x="165" y="0" on="1"/>
        <pt x="165" y="1465" on="1"/>
        <pt x="436" y="1465" on="1"/>
        <pt x="436" y="0" on="1"/>
      </contour>
    </TTGlyph>
    <TTGlyph name="IJ" xMin="165" yMin="-329" xMax="1084" yMax="1469">
      <component glyphName="J" x="602" y="0" flags="0x1004"/>
      <component glyphName="I" x="0" y="0" flags="0x1004"/>
    </TTGlyph>
    <TTGlyph name="Iacute" xMin="165" yMin="0" xMax="693" yMax="1991">
      <component glyphName="acute" x="32" y="413" flags="0x1004"/>
      <component glyphName="I" x="0" y="0" flags="0x1204"/>
    </TTGlyph>
    <TTGlyph name="Ibreve" xMin="9" yMin="0" xMax="591" yMax="1860">
      <component glyphName="breve" x="-52" y="379" flags="0x1004"/>
      <component glyphName="I" x="0" y="0" flags="0x1204"/>
    </TTGlyph>
    <TTGlyph name="Icircumflex" xMin="-54" yMin="0" xMax="655" yMax="1991">
      <component glyphName="circumflex" x="-101" y="445" flags="0x1004"/>
      <component glyphName="I" x="0" y="0" flags="0x1204"/>
    </TTGlyph>
    <TTGlyph name="Idieresis" xMin="-8" yMin="0" xMax="609" yMax="1862">
      <component glyphName="dieresis" x="-86" y="372" flags="0x1004"/>
      <component glyphName="I" x="0" y="0" flags="0x1204"/>
    </TTGlyph>
    <TTGlyph name="Idotaccent" xMin="165" yMin="0" xMax="436" yMax="1804">
      <component glyphName="dotaccent" x="43" y="339" flags="0x1004"/>
      <component glyphName="I" x="0" y="0" flags="0x1204"/>
    </TTGlyph>
    <TTGlyph name="Igrave" xMin="-112" yMin="0" xMax="436" yMax="1991">
      <component glyphName="grave" x="-104" y="413" flags="0x1004"/>
      <component glyphName="I" x="0" y="0" flags="0x1204"/>
    </TTGlyph>
    <TTGlyph name="Imacron" xMin="-42" yMin="0" xMax="644" yMax="1761">
      <component glyphName="macron" x="-160" y="231" flags="0x1004"/>
      <component glyphName="I" x="0" y="0" flags="0x1204"/>
    </TTGlyph>
    <TTGlyph name="Iogonek" xMin="56" yMin="-412" xMax="455" yMax="1465">
      <component glyphName="ogonek" x="-58" y="-20" flags="0x1004"/>
      <component glyphName="I" x="0" y="0" flags="0x1204"/>
    </TTGlyph>
    <TTGlyph name="Itilde" xMin="-43" yMin="0" xMax="644" yMax="1847">
      <component glyphName="tilde" x="-89" y="378" flags="0x1004"/>
      <component glyphName="I" x="0" y="0" flags="0x1204"/>
    </TTGlyph>
    <TTGlyph name="J" xMin="-84" yMin="-329" xMax="482" yMax="1469">
      <contour>
        <pt x="-73" y="-321" on="1"/>
        <pt x="-84" y="-108" on="1"/>
        <pt x="-36" y="-116" on="0"/>
        <pt x="21" y="-116" on="1"/>
        <pt x="132" y="-116" on="0"/>
        <pt x="210" y="-2" on="0"/>
        <pt x="210" y="129" on="1"/>
        <pt x="210" y="1469" on="1"/>
        <pt x="482" y="1469" on="1"/>
        <pt x="482" y="147" on="1"/>
        <pt x="482" y="21" on="0"/>
        <pt x="437" y="-152" on="0"/>
        <pt x="330" y="-273" on="0"/>
        <pt x="153" y="-329" on="0"/>
        <pt x="22" y="-329" on="1"/>
        <pt x="-33" y="-329" on="0"/>
      </contour>
    </TTGlyph>
    <TTGlyph name="Jcircumflex" xMin="-84" yMin="-329" xMax="700" yMax="1991">
      <component glyphName="circumflex" x="-56" y="445" flags="0x1004"/>
      <component glyphName="J" x="0" y="0" flags="0x1204"/>
    </TTGlyph>
    <TTGlyph name="K" xMin="157" yMin="0" xMax="1337" yMax="1465">
      <contour>
        <pt x="157" y="0" on="1"/>
        <pt x="157" y="1465" on="1"/>
        <pt x="429" y="1465" on="1"/>
        <pt x="429" y="805" on="1"/>
        <pt x="500" y="899" on="0"/>
        <pt x="939" y="1413" on="0"/>
        <pt x="981" y="1465" on="1"/>
        <pt x="1302" y="1465" on="1"/>
        <pt x="748" y="806" on="1"/>
        <pt x="1337" y="0" on="1"/>
        <pt x="1019" y="0" on="1"/>
        <pt x="541" y="657" on="1"/>
        <pt x="429" y="563" on="1"/>
        <pt x="429" y="0" on="1"/>
      </contour>
    </TTGlyph>
    <TTGlyph name="Kcommaaccent" xMin="157" yMin="-620" xMax="1337" yMax="1465">
      <contour>
        <pt x="617" y="-620" on="1"/>
        <pt x="712" y="-122" on="1"/>
        <pt x="897" y="-122" on="1"/>
        <pt x="753" y="-620" on="1"/>
      </contour>
      <contour>
        <pt x="157" y="0" on="1"/>
        <pt x="157" y="1465" on="1"/>
        <pt x="429" y="1465" on="1"/>
        <pt x="429" y="805" on="1"/>
        <pt x="500" y="899" on="0"/>
        <pt x="939" y="1413" on="0"/>
        <pt x="981" y="1465" on="1"/>
        <pt x="1302" y="1465" on="1"/>
        <pt x="748" y="806" on="1"/>
        <pt x="1337" y="0" on="1"/>
        <pt x="1019" y="0" on="1"/>
        <pt x="541" y="657" on="1"/>
        <pt x="429" y="563" on="1"/>
        <pt x="429" y="0" on="1"/>
      </contour>
    </TTGlyph>
    <TTGlyph name="L" xMin="158" yMin="0" xMax="1042" yMax="1465">
      <contour>
        <pt x="158" y="0" on="1"/>
        <pt x="158" y="1465" on="1"/>
        <pt x="429" y="1465" on="1"/>
        <pt x="429" y="216" on="1"/>
        <pt x="1042" y="216" on="1"/>
        <pt x="1034" y="0" on="1"/>
      </contour>
    </TTGlyph>
    <TTGlyph name="Lacute" xMin="158" yMin="0" xMax="1042" yMax="1991">
      <component glyphName="acute" x="332" y="413" flags="0x1004"/>
      <component glyphName="L" x="0" y="0" flags="0x1204"/>
    </TTGlyph>
    <TTGlyph name="Lcommaaccent" xMin="158" yMin="-620" xMax="1042" yMax="1465">
      <contour>
        <pt x="470" y="-620" on="1"/>
        <pt x="565" y="-122" on="1"/>
        <pt x="750" y="-122" on="1"/>
        <pt x="606" y="-620" on="1"/>
      </contour>
      <contour>
        <pt x="158" y="0" on="1"/>
        <pt x="158" y="1465" on="1"/>
        <pt x="429" y="1465" on="1"/>
        <pt x="429" y="216" on="1"/>
        <pt x="1042" y="216" on="1"/>
        <pt x="1034" y="0" on="1"/>
      </contour>
    </TTGlyph>
    <TTGlyph name="Ldot" xMin="158" yMin="0" xMax="1042" yMax="1465">
      <contour>
        <pt x="768" y="719" on="1"/>
        <pt x="768" y="917" on="1"/>
        <pt x="936" y="917" on="1"/>
        <pt x="936" y="719" on="1"/>
      </contour>
      <contour>
        <pt x="158" y="0" on="1"/>
        <pt x="158" y="1465" on="1"/>
        <pt x="429" y="1465" on="1"/>
        <pt x="429" y="216" on="1"/>
        <pt x="1042" y="216" on="1"/>
        <pt x="1034" y="0" on="1"/>
      </contour>
    </TTGlyph>
    <TTGlyph name="Lslash" xMin="-20" yMin="0" xMax="1018" yMax="1463">
      <contour>
        <pt x="131" y="0" on="1"/>
        <pt x="131" y="589" on="1"/>
        <pt x="-20" y="500" on="1"/>
        <pt x="-20" y="685" on="1"/>
        <pt x="131" y="774" on="1"/>
        <pt x="131" y="1463" on="1"/>
        <pt x="399" y="1463" on="1"/>
        <pt x="399" y="932" on="1"/>
        <pt x="722" y="1116" on="1"/>
        <pt x="722" y="930" on="1"/>
        <pt x="399" y="746" on="1"/>
        <pt x="399" y="202" on="1"/>
        <pt x="1018" y="202" on="1"/>
        <pt x="1003" y="0" on="1"/>
      </contour>
    </TTGlyph>
    <TTGlyph name="M" xMin="158" yMin="0" xMax="1683" yMax="1465">
      <contour>
        <pt x="158" y="0" on="1"/>
        <pt x="158" y="1465" on="1"/>
        <pt x="478" y="1465" on="1"/>
        <pt x="921" y="407" on="1"/>
        <pt x="1367" y="1465" on="1"/>
        <pt x="1683" y="1465" on="1"/>
        <pt x="1683" y="0" on="1"/>
        <pt x="1433" y="0" on="1"/>
        <pt x="1433" y="724" on="1"/>
        <pt x="1441" y="1139" on="1"/>
        <pt x="1404" y="1029" on="1"/>
        <pt x="1029" y="100" on="1"/>
        <pt x="797" y="100" on="1"/>
        <pt x="430" y="1034" on="1"/>
        <pt x="393" y="1144" on="1"/>
        <pt x="402" y="720" on="1"/>
        <pt x="402" y="0" on="1"/>
      </contour>
    </TTGlyph>
    <TTGlyph name="N" xMin="158" yMin="0" xMax="1397" yMax="1465">
      <contour>
        <pt x="158" y="0" on="1"/>
        <pt x="158" y="1465" on="1"/>
        <pt x="446" y="1465" on="1"/>
        <pt x="524" y="1343" on="0"/>
        <pt x="1002" y="603" on="0"/>
        <pt x="1054" y="523" on="1"/>
        <pt x="1069" y="500" on="0"/>
        <pt x="1142" y="391" on="0"/>
        <pt x="1157" y="368" on="1"/>
        <pt x="1150" y="711" on="0"/>
        <pt x="1150" y="724" on="1"/>
        <pt x="1150" y="1465" on="1"/>
        <pt x="1397" y="1465" on="1"/>
        <pt x="1397" y="0" on="1"/>
        <pt x="1105" y="0" on="1"/>
        <pt x="444" y="1030" on="1"/>
        <pt x="396" y="1109" on="1"/>
        <pt x="404" y="845" on="0"/>
        <pt x="404" y="738" on="1"/>
        <pt x="404" y="0" on="1"/>
      </contour>
    </TTGlyph>
    <TTGlyph name="Nacute" xMin="158" yMin="0" xMax="1397" yMax="1991">
      <component glyphName="acute" x="509" y="413" flags="0x1004"/>
      <component glyphName="N" x="0" y="0" flags="0x1204"/>
    </TTGlyph>
    <TTGlyph name="Ncaron" xMin="158" yMin="0" xMax="1397" yMax="1961">
      <component glyphName="caron" x="374" y="415" flags="0x1004"/>
      <component glyphName="N" x="0" y="0" flags="0x1204"/>
    </TTGlyph>
    <TTGlyph name="Ncommaaccent" xMin="158" yMin="-620" xMax="1397" yMax="1465">
      <contour>
        <pt x="648" y="-620" on="1"/>
        <pt x="743" y="-122" on="1"/>
        <pt x="928" y="-122" on="1"/>
        <pt x="784" y="-620" on="1"/>
      </contour>
      <contour>
        <pt x="158" y="0" on="1"/>
        <pt x="158" y="1465" on="1"/>
        <pt x="446" y="1465" on="1"/>
        <pt x="524" y="1343" on="0"/>
        <pt x="1002" y="603" on="0"/>
        <pt x="1054" y="523" on="1"/>
        <pt x="1069" y="500" on="0"/>
        <pt x="1142" y="391" on="0"/>
        <pt x="1157" y="368" on="1"/>
        <pt x="1150" y="711" on="0"/>
        <pt x="1150" y="724" on="1"/>
        <pt x="1150" y="1465" on="1"/>
        <pt x="1397" y="1465" on="1"/>
        <pt x="1397" y="0" on="1"/>
        <pt x="1105" y="0" on="1"/>
        <pt x="444" y="1030" on="1"/>
        <pt x="396" y="1109" on="1"/>
        <pt x="404" y="845" on="0"/>
        <pt x="404" y="738" on="1"/>
        <pt x="404" y="0" on="1"/>
      </contour>
    </TTGlyph>
    <TTGlyph name="Ntilde" xMin="158" yMin="0" xMax="1397" yMax="1847">
      <component glyphName="tilde" x="388" y="378" flags="0x1004"/>
      <component glyphName="N" x="0" y="0" flags="0x1204"/>
    </TTGlyph>
    <TTGlyph name="O" xMin="99" yMin="-21" xMax="1527" yMax="1486">
      <contour>
        <pt x="601" y="200" on="0"/>
        <pt x="1027" y="200" on="0"/>
        <pt x="1244" y="477" on="0"/>
        <pt x="1244" y="730" on="1"/>
        <pt x="1244" y="986" on="0"/>
        <pt x="1027" y="1268" on="0"/>
        <pt x="815" y="1268" on="1"/>
        <pt x="602" y="1268" on="0"/>
        <pt x="383" y="985" on="0"/>
        <pt x="383" y="730" on="1"/>
        <pt x="383" y="478" on="0"/>
      </contour>
      <contour>
        <pt x="813" y="-21" on="1"/>
        <pt x="482" y="-21" on="0"/>
        <pt x="99" y="380" on="0"/>
        <pt x="99" y="733" on="1"/>
        <pt x="99" y="1088" on="0"/>
        <pt x="483" y="1486" on="0"/>
        <pt x="1145" y="1486" on="0"/>
        <pt x="1527" y="1087" on="0"/>
        <pt x="1527" y="732" on="1"/>
        <pt x="1527" y="381" on="0"/>
        <pt x="1143" y="-21" on="0"/>
      </contour>
    </TTGlyph>
    <TTGlyph name="OE" xMin="81" yMin="-19" xMax="2130" yMax="1490">
      <contour>
        <pt x="815" y="-19" on="1"/>
        <pt x="602" y="-19" on="0"/>
        <pt x="266" y="175" on="0"/>
        <pt x="81" y="520" on="0"/>
        <pt x="81" y="738" on="1"/>
        <pt x="82" y="952" on="0"/>
        <pt x="272" y="1297" on="0"/>
        <pt x="604" y="1490" on="0"/>
        <pt x="809" y="1490" on="1"/>
        <pt x="1012" y="1490" on="0"/>
        <pt x="1168" y="1384" on="1"/>
        <pt x="1168" y="1461" on="1"/>
        <pt x="2101" y="1461" on="1"/>
        <pt x="2083" y="1256" on="1"/>
        <pt x="1425" y="1256" on="1"/>
        <pt x="1425" y="863" on="1"/>
        <pt x="2052" y="863" on="1"/>
        <pt x="2052" y="661" on="1"/>
        <pt x="1425" y="661" on="1"/>
        <pt x="1425" y="209" on="1"/>
        <pt x="2130" y="209" on="1"/>
        <pt x="2113" y="4" on="1"/>
        <pt x="1168" y="4" on="1"/>
        <pt x="1168" y="85" on="1"/>
        <pt x="1101" y="38" on="0"/>
        <pt x="914" y="-19" on="0"/>
      </contour>
      <contour>
        <pt x="813" y="188" on="1"/>
        <pt x="926" y="188" on="0"/>
        <pt x="1113" y="255" on="0"/>
        <pt x="1168" y="305" on="1"/>
        <pt x="1168" y="1153" on="1"/>
        <pt x="1038" y="1283" on="0"/>
        <pt x="811" y="1283" on="1"/>
        <pt x="722" y="1283" on="0"/>
        <pt x="570" y="1224" on="0"/>
        <pt x="460" y="1121" on="0"/>
        <pt x="382" y="982" on="0"/>
        <pt x="344" y="821" on="0"/>
        <pt x="343" y="735" on="1"/>
        <pt x="343" y="625" on="0"/>
        <pt x="401" y="431" on="0"/>
        <pt x="514" y="278" on="0"/>
        <pt x="697" y="188" on="0"/>
      </contour>
    </TTGlyph>
    <TTGlyph name="Oacute" xMin="99" yMin="-21" xMax="1527" yMax="1991">
      <component glyphName="acute" x="544" y="413" flags="0x1004"/>
      <component glyphName="O" x="0" y="0" flags="0x1204"/>
    </TTGlyph>
    <TTGlyph name="Obreve" xMin="99" yMin="-21" xMax="1527" yMax="1860">
      <component glyphName="breve" x="461" y="379" flags="0x1004"/>
      <component glyphName="O" x="0" y="0" flags="0x1204"/>
    </TTGlyph>
    <TTGlyph name="Ocircumflex" xMin="99" yMin="-21" xMax="1527" yMax="1991">
      <component glyphName="circumflex" x="412" y="445" flags="0x1004"/>
      <component glyphName="O" x="0" y="0" flags="0x1204"/>
    </TTGlyph>
    <TTGlyph name="Odieresis" xMin="99" yMin="-21" xMax="1527" yMax="1862">
      <component glyphName="dieresis" x="426" y="372" flags="0x1004"/>
      <component glyphName="O" x="0" y="0" flags="0x1204"/>
    </TTGlyph>
    <TTGlyph name="Ograve" xMin="99" yMin="-21" xMax="1527" yMax="1991">
      <component glyphName="grave" x="408" y="413" flags="0x1004"/>
      <component glyphName="O" x="0" y="0" flags="0x1204"/>
    </TTGlyph>
    <TTGlyph name="Ohungarumlaut" xMin="99" yMin="-21" xMax="1527" yMax="1969">
      <component glyphName="hungarumlaut" x="440" y="453" flags="0x1004"/>
      <component glyphName="O" x="0" y="0" flags="0x1204"/>
    </TTGlyph>
    <TTGlyph name="Omacron" xMin="99" yMin="-21" xMax="1527" yMax="1761">
      <component glyphName="macron" x="352" y="231" flags="0x1004"/>
      <component glyphName="O" x="0" y="0" flags="0x1204"/>
    </TTGlyph>
    <TTGlyph name="Oslash" xMin="84" yMin="-211" xMax="1543" yMax="1660">
      <contour>
        <pt x="470" y="-211" on="1"/>
        <pt x="370" y="-169" on="1"/>
        <pt x="466" y="52" on="1"/>
        <pt x="286" y="138" on="0"/>
        <pt x="84" y="487" on="0"/>
        <pt x="84" y="730" on="1"/>
        <pt x="84" y="905" on="0"/>
        <pt x="192" y="1190" on="0"/>
        <pt x="386" y="1381" on="0"/>
        <pt x="656" y="1485" on="0"/>
        <pt x="816" y="1485" on="1"/>
        <pt x="953" y="1485" on="0"/>
        <pt x="1073" y="1447" on="1"/>
        <pt x="1166" y="1660" on="1"/>
        <pt x="1272" y="1619" on="1"/>
        <pt x="1179" y="1404" on="1"/>
        <pt x="1351" y="1315" on="0"/>
        <pt x="1543" y="969" on="0"/>
        <pt x="1543" y="730" on="1"/>
        <pt x="1543" y="558" on="0"/>
        <pt x="1435" y="275" on="0"/>
        <pt x="1243" y="84" on="0"/>
        <pt x="972" y="-21" on="0"/>
        <pt x="812" y="-21" on="1"/>
        <pt x="684" y="-21" on="0"/>
        <pt x="568" y="13" on="1"/>
      </contour>
      <contour>
        <pt x="557" y="260" on="1"/>
        <pt x="984" y="1244" on="1"/>
        <pt x="905" y="1271" on="0"/>
        <pt x="815" y="1271" on="1"/>
        <pt x="591" y="1271" on="0"/>
        <pt x="356" y="977" on="0"/>
        <pt x="356" y="726" on="1"/>
        <pt x="356" y="565" on="0"/>
        <pt x="458" y="325" on="0"/>
      </contour>
      <contour>
        <pt x="815" y="191" on="1"/>
        <pt x="1040" y="191" on="0"/>
        <pt x="1274" y="478" on="0"/>
        <pt x="1274" y="726" on="1"/>
        <pt x="1274" y="885" on="0"/>
        <pt x="1178" y="1125" on="0"/>
        <pt x="1085" y="1192" on="1"/>
        <pt x="657" y="213" on="1"/>
        <pt x="726" y="191" on="0"/>
      </contour>
    </TTGlyph>
    <TTGlyph name="Otilde" xMin="99" yMin="-21" xMax="1527" yMax="1847">
      <component glyphName="tilde" x="424" y="378" flags="0x1004"/>
      <component glyphName="O" x="0" y="0" flags="0x1204"/>
    </TTGlyph>
    <TTGlyph name="P" xMin="151" yMin="0" xMax="1201" yMax="1469">
      <contour>
        <pt x="151" y="0" on="1"/>
        <pt x="151" y="1469" on="1"/>
        <pt x="639" y="1469" on="1"/>
        <pt x="812" y="1469" on="0"/>
        <pt x="1058" y="1380" on="0"/>
        <pt x="1201" y="1180" on="0"/>
        <pt x="1201" y="1029" on="1"/>
        <pt x="1201" y="924" on="0"/>
        <pt x="1147" y="761" on="0"/>
        <pt x="1023" y="628" on="0"/>
        <pt x="798" y="556" on="0"/>
        <pt x="639" y="556" on="1"/>
        <pt x="503" y="556" on="0"/>
        <pt x="418" y="564" on="1"/>
        <pt x="418" y="0" on="1"/>
      </contour>
      <contour>
        <pt x="610" y="752" on="1"/>
        <pt x="693" y="752" on="0"/>
        <pt x="816" y="784" on="0"/>
        <pt x="885" y="834" on="0"/>
        <pt x="926" y="908" on="0"/>
        <pt x="939" y="977" on="0"/>
        <pt x="939" y="1020" on="1"/>
        <pt x="939" y="1141" on="0"/>
        <pt x="783" y="1267" on="0"/>
        <pt x="641" y="1267" on="1"/>
        <pt x="418" y="1267" on="1"/>
        <pt x="418" y="754" on="1"/>
        <pt x="430" y="752" on="0"/>
      </contour>
    </TTGlyph>
    <TTGlyph name="Q" xMin="99" yMin="-478" xMax="1527" yMax="1486">
      <contour>
        <pt x="1252" y="-478" on="1"/>
        <pt x="1169" y="-418" on="0"/>
        <pt x="960" y="-142" on="0"/>
        <pt x="894" y="-17" on="1"/>
        <pt x="842" y="-21" on="0"/>
        <pt x="813" y="-21" on="1"/>
        <pt x="482" y="-21" on="0"/>
        <pt x="99" y="380" on="0"/>
        <pt x="99" y="733" on="1"/>
        <pt x="99" y="1088" on="0"/>
        <pt x="483" y="1486" on="0"/>
        <pt x="1145" y="1486" on="0"/>
        <pt x="1527" y="1087" on="0"/>
        <pt x="1527" y="732" on="1"/>
        <pt x="1527" y="480" on="0"/>
        <pt x="1325" y="125" on="0"/>
        <pt x="1140" y="43" on="1"/>
        <pt x="1293" y="-205" on="0"/>
        <pt x="1426" y="-327" on="1"/>
      </contour>
      <contour>
        <pt x="601" y="200" on="0"/>
        <pt x="1027" y="200" on="0"/>
        <pt x="1244" y="477" on="0"/>
        <pt x="1244" y="730" on="1"/>
        <pt x="1244" y="986" on="0"/>
        <pt x="1027" y="1268" on="0"/>
        <pt x="815" y="1268" on="1"/>
        <pt x="602" y="1268" on="0"/>
        <pt x="383" y="985" on="0"/>
        <pt x="383" y="730" on="1"/>
        <pt x="383" y="478" on="0"/>
      </contour>
    </TTGlyph>
    <TTGlyph name="R" xMin="151" yMin="0" xMax="1346" yMax="1469">
      <contour>
        <pt x="151" y="0" on="1"/>
        <pt x="151" y="1469" on="1"/>
        <pt x="694" y="1469" on="1"/>
        <pt x="805" y="1469" on="0"/>
        <pt x="968" y="1449" on="0"/>
        <pt x="1115" y="1396" on="0"/>
        <pt x="1206" y="1306" on="0"/>
        <pt x="1259" y="1161" on="0"/>
        <pt x="1259" y="1062" on="1"/>
        <pt x="1259" y="770" on="0"/>
        <pt x="994" y="678" on="1"/>
        <pt x="1048" y="617" on="0"/>
        <pt x="1128" y="452" on="1"/>
        <pt x="1346" y="0" on="1"/>
        <pt x="1050" y="0" on="1"/>
        <pt x="879" y="383" on="1"/>
        <pt x="782" y="589" on="0"/>
        <pt x="759" y="627" on="1"/>
        <pt x="742" y="628" on="0"/>
        <pt x="646" y="628" on="1"/>
        <pt x="419" y="630" on="1"/>
        <pt x="419" y="0" on="1"/>
      </contour>
      <contour>
        <pt x="718" y="824" on="1"/>
        <pt x="874" y="824" on="0"/>
        <pt x="1010" y="935" on="0"/>
        <pt x="1010" y="1058" on="1"/>
        <pt x="1010" y="1166" on="0"/>
        <pt x="872" y="1268" on="0"/>
        <pt x="730" y="1268" on="1"/>
        <pt x="419" y="1268" on="1"/>
        <pt x="419" y="825" on="1"/>
        <pt x="434" y="825" on="0"/>
        <pt x="702" y="824" on="0"/>
      </contour>
    </TTGlyph>
    <TTGlyph name="Racute" xMin="151" yMin="0" xMax="1346" yMax="1991">
      <component glyphName="acute" x="480" y="413" flags="0x1004"/>
      <component glyphName="R" x="0" y="0" flags="0x1204"/>
    </TTGlyph>
    <TTGlyph name="Rcaron" xMin="151" yMin="0" xMax="1346" yMax="1961">
      <component glyphName="caron" x="346" y="415" flags="0x1004"/>
      <component glyphName="R" x="0" y="0" flags="0x1204"/>
    </TTGlyph>
    <TTGlyph name="Rcommaaccent" xMin="151" yMin="-620" xMax="1346" yMax="1469">
      <contour>
        <pt x="618" y="-620" on="1"/>
        <pt x="713" y="-122" on="1"/>
        <pt x="898" y="-122" on="1"/>
        <pt x="754" y="-620" on="1"/>
      </contour>
      <contour>
        <pt x="151" y="0" on="1"/>
        <pt x="151" y="1469" on="1"/>
        <pt x="694" y="1469" on="1"/>
        <pt x="805" y="1469" on="0"/>
        <pt x="968" y="1449" on="0"/>
        <pt x="1115" y="1396" on="0"/>
        <pt x="1206" y="1306" on="0"/>
        <pt x="1259" y="1161" on="0"/>
        <pt x="1259" y="1062" on="1"/>
        <pt x="1259" y="770" on="0"/>
        <pt x="994" y="678" on="1"/>
        <pt x="1048" y="617" on="0"/>
        <pt x="1128" y="452" on="1"/>
        <pt x="1346" y="0" on="1"/>
        <pt x="1050" y="0" on="1"/>
        <pt x="879" y="383" on="1"/>
        <pt x="782" y="589" on="0"/>
        <pt x="759" y="627" on="1"/>
        <pt x="742" y="628" on="0"/>
        <pt x="646" y="628" on="1"/>
        <pt x="419" y="630" on="1"/>
        <pt x="419" y="0" on="1"/>
      </contour>
      <contour>
        <pt x="718" y="824" on="1"/>
        <pt x="874" y="824" on="0"/>
        <pt x="1010" y="935" on="0"/>
        <pt x="1010" y="1058" on="1"/>
        <pt x="1010" y="1166" on="0"/>
        <pt x="872" y="1268" on="0"/>
        <pt x="730" y="1268" on="1"/>
        <pt x="419" y="1268" on="1"/>
        <pt x="419" y="825" on="1"/>
        <pt x="434" y="825" on="0"/>
        <pt x="702" y="824" on="0"/>
      </contour>
    </TTGlyph>
    <TTGlyph name="S" xMin="94" yMin="-20" xMax="1116" yMax="1491">
      <contour>
        <pt x="569" y="-20" on="1"/>
        <pt x="304" y="-20" on="0"/>
        <pt x="94" y="102" on="1"/>
        <pt x="160" y="317" on="1"/>
        <pt x="254" y="265" on="0"/>
        <pt x="475" y="201" on="0"/>
        <pt x="580" y="201" on="1"/>
        <pt x="709" y="201" on="0"/>
        <pt x="841" y="312" on="0"/>
        <pt x="841" y="416" on="1"/>
        <pt x="841" y="554" on="0"/>
        <pt x="657" y="607" on="1"/>
        <pt x="644" y="611" on="0"/>
        <pt x="524" y="646" on="0"/>
        <pt x="419" y="679" on="0"/>
        <pt x="396" y="688" on="1"/>
        <pt x="101" y="792" on="0"/>
        <pt x="101" y="1076" on="1"/>
        <pt x="101" y="1275" on="0"/>
        <pt x="384" y="1491" on="0"/>
        <pt x="618" y="1491" on="1"/>
        <pt x="883" y="1491" on="0"/>
        <pt x="1075" y="1382" on="1"/>
        <pt x="993" y="1184" on="1"/>
        <pt x="797" y="1272" on="0"/>
        <pt x="629" y="1272" on="1"/>
        <pt x="508" y="1272" on="0"/>
        <pt x="385" y="1187" on="0"/>
        <pt x="381" y="1088" on="1"/>
        <pt x="381" y="966" on="0"/>
        <pt x="502" y="929" on="1"/>
        <pt x="526" y="920" on="0"/>
        <pt x="714" y="860" on="0"/>
        <pt x="742" y="851" on="1"/>
        <pt x="943" y="785" on="0"/>
        <pt x="1116" y="589" on="0"/>
        <pt x="1116" y="414" on="1"/>
        <pt x="1116" y="205" on="0"/>
        <pt x="820" y="-20" on="0"/>
      </contour>
    </TTGlyph>
    <TTGlyph name="Sacute" xMin="94" yMin="-20" xMax="1116" yMax="1996">
      <component glyphName="acute" x="336" y="418" flags="0x1004"/>
      <component glyphName="S" x="0" y="0" flags="0x1204"/>
    </TTGlyph>
    <TTGlyph name="Scaron" xMin="94" yMin="-20" xMax="1116" yMax="1966">
      <component glyphName="caron" x="202" y="420" flags="0x1004"/>
      <component glyphName="S" x="0" y="0" flags="0x1204"/>
    </TTGlyph>
    <TTGlyph name="Scedilla" xMin="94" yMin="-388" xMax="1116" yMax="1491">
      <component glyphName="cedilla" x="348" y="-31" flags="0x1004"/>
      <component glyphName="S" x="0" y="0" flags="0x1204"/>
    </TTGlyph>
    <TTGlyph name="Scommaaccent" xMin="94" yMin="-640" xMax="1116" yMax="1491">
      <contour>
        <pt x="465" y="-640" on="1"/>
        <pt x="560" y="-142" on="1"/>
        <pt x="745" y="-142" on="1"/>
        <pt x="601" y="-640" on="1"/>
      </contour>
      <contour>
        <pt x="569" y="-20" on="1"/>
        <pt x="304" y="-20" on="0"/>
        <pt x="94" y="102" on="1"/>
        <pt x="160" y="317" on="1"/>
        <pt x="254" y="265" on="0"/>
        <pt x="475" y="201" on="0"/>
        <pt x="580" y="201" on="1"/>
        <pt x="709" y="201" on="0"/>
        <pt x="841" y="312" on="0"/>
        <pt x="841" y="416" on="1"/>
        <pt x="841" y="554" on="0"/>
        <pt x="657" y="607" on="1"/>
        <pt x="644" y="611" on="0"/>
        <pt x="524" y="646" on="0"/>
        <pt x="419" y="679" on="0"/>
        <pt x="396" y="688" on="1"/>
        <pt x="101" y="792" on="0"/>
        <pt x="101" y="1076" on="1"/>
        <pt x="101" y="1275" on="0"/>
        <pt x="384" y="1491" on="0"/>
        <pt x="618" y="1491" on="1"/>
        <pt x="883" y="1491" on="0"/>
        <pt x="1075" y="1382" on="1"/>
        <pt x="993" y="1184" on="1"/>
        <pt x="797" y="1272" on="0"/>
        <pt x="629" y="1272" on="1"/>
        <pt x="508" y="1272" on="0"/>
        <pt x="385" y="1187" on="0"/>
        <pt x="381" y="1088" on="1"/>
        <pt x="381" y="966" on="0"/>
        <pt x="502" y="929" on="1"/>
        <pt x="526" y="920" on="0"/>
        <pt x="714" y="860" on="0"/>
        <pt x="742" y="851" on="1"/>
        <pt x="943" y="785" on="0"/>
        <pt x="1116" y="589" on="0"/>
        <pt x="1116" y="414" on="1"/>
        <pt x="1116" y="205" on="0"/>
        <pt x="820" y="-20" on="0"/>
      </contour>
    </TTGlyph>
    <TTGlyph name="T" xMin="14" yMin="0" xMax="1138" yMax="1465">
      <contour>
        <pt x="441" y="0" on="1"/>
        <pt x="441" y="1248" on="1"/>
        <pt x="14" y="1248" on="1"/>
        <pt x="14" y="1465" on="1"/>
        <pt x="1138" y="1465" on="1"/>
        <pt x="1138" y="1248" on="1"/>
        <pt x="713" y="1248" on="1"/>
        <pt x="713" y="0" on="1"/>
      </contour>
    </TTGlyph>
    <TTGlyph name="Tcaron" xMin="14" yMin="0" xMax="1138" yMax="1961">
      <component glyphName="caron" x="173" y="415" flags="0x1004"/>
      <component glyphName="T" x="0" y="0" flags="0x1204"/>
    </TTGlyph>
    <TTGlyph name="Thorn" xMin="178" yMin="11" xMax="1274" yMax="1454">
      <contour>
        <pt x="178" y="11" on="1"/>
        <pt x="178" y="1454" on="1"/>
        <pt x="400" y="1454" on="1"/>
        <pt x="400" y="1229" on="1"/>
        <pt x="687" y="1229" on="1"/>
        <pt x="817" y="1229" on="0"/>
        <pt x="1025" y="1180" on="0"/>
        <pt x="1186" y="1077" on="0"/>
        <pt x="1274" y="903" on="0"/>
        <pt x="1274" y="785" on="1"/>
        <pt x="1274" y="573" on="0"/>
        <pt x="969" y="337" on="0"/>
        <pt x="724" y="337" on="1"/>
        <pt x="400" y="339" on="1"/>
        <pt x="400" y="11" on="1"/>
      </contour>
      <contour>
        <pt x="401" y="534" on="1"/>
        <pt x="737" y="534" on="1"/>
        <pt x="886" y="534" on="0"/>
        <pt x="1050" y="670" on="0"/>
        <pt x="1050" y="793" on="1"/>
        <pt x="1050" y="928" on="0"/>
        <pt x="880" y="1052" on="0"/>
        <pt x="710" y="1052" on="1"/>
        <pt x="400" y="1052" on="1"/>
      </contour>
    </TTGlyph>
    <TTGlyph name="U" xMin="144" yMin="-21" xMax="1323" yMax="1465">
      <contour>
        <pt x="730" y="-21" on="1"/>
        <pt x="442" y="-21" on="0"/>
        <pt x="144" y="266" on="0"/>
        <pt x="144" y="527" on="1"/>
        <pt x="144" y="1465" on="1"/>
        <pt x="416" y="1465" on="1"/>
        <pt x="416" y="550" on="1"/>
        <pt x="416" y="367" on="0"/>
        <pt x="565" y="199" on="0"/>
        <pt x="735" y="199" on="1"/>
        <pt x="902" y="199" on="0"/>
        <pt x="1052" y="368" on="0"/>
        <pt x="1052" y="551" on="1"/>
        <pt x="1052" y="1465" on="1"/>
        <pt x="1323" y="1465" on="1"/>
        <pt x="1323" y="525" on="1"/>
        <pt x="1323" y="266" on="0"/>
        <pt x="1019" y="-21" on="0"/>
      </contour>
    </TTGlyph>
    <TTGlyph name="Uacute" xMin="144" yMin="-21" xMax="1323" yMax="1991">
      <component glyphName="acute" x="465" y="413" flags="0x1004"/>
      <component glyphName="U" x="0" y="0" flags="0x1204"/>
    </TTGlyph>
    <TTGlyph name="Ubreve" xMin="144" yMin="-21" xMax="1323" yMax="1860">
      <component glyphName="breve" x="382" y="379" flags="0x1004"/>
      <component glyphName="U" x="0" y="0" flags="0x1204"/>
    </TTGlyph>
    <TTGlyph name="Ucircumflex" xMin="144" yMin="-21" xMax="1323" yMax="1991">
      <component glyphName="circumflex" x="332" y="445" flags="0x1004"/>
      <component glyphName="U" x="0" y="0" flags="0x1204"/>
    </TTGlyph>
    <TTGlyph name="Udieresis" xMin="144" yMin="-21" xMax="1323" yMax="1862">
      <component glyphName="dieresis" x="347" y="372" flags="0x1004"/>
      <component glyphName="U" x="0" y="0" flags="0x1204"/>
    </TTGlyph>
    <TTGlyph name="Ugrave" xMin="144" yMin="-21" xMax="1323" yMax="1991">
      <component glyphName="grave" x="329" y="413" flags="0x1004"/>
      <component glyphName="U" x="0" y="0" flags="0x1204"/>
    </TTGlyph>
    <TTGlyph name="Uhungarumlaut" xMin="144" yMin="-21" xMax="1323" yMax="1969">
      <component glyphName="hungarumlaut" x="361" y="453" flags="0x1004"/>
      <component glyphName="U" x="0" y="0" flags="0x1204"/>
    </TTGlyph>
    <TTGlyph name="Umacron" xMin="144" yMin="-21" xMax="1323" yMax="1761">
      <component glyphName="macron" x="272" y="231" flags="0x1004"/>
      <component glyphName="U" x="0" y="0" flags="0x1204"/>
    </TTGlyph>
    <TTGlyph name="Uogonek" xMin="144" yMin="-433" xMax="1323" yMax="1465">
      <component glyphName="ogonek" x="374" y="-41" flags="0x1004"/>
      <component glyphName="U" x="0" y="0" flags="0x1204"/>
    </TTGlyph>
    <TTGlyph name="Uring" xMin="144" yMin="-21" xMax="1323" yMax="2012">
      <component glyphName="ring" x="404" y="450" flags="0x1004"/>
      <component glyphName="U" x="0" y="0" flags="0x1204"/>
    </TTGlyph>
    <TTGlyph name="Utilde" xMin="144" yMin="-21" xMax="1323" yMax="1847">
      <component glyphName="tilde" x="344" y="378" flags="0x1004"/>
      <component glyphName="U" x="0" y="0" flags="0x1204"/>
    </TTGlyph>
    <TTGlyph name="V" xMin="-6" yMin="0" xMax="1327" yMax="1465">
      <contour>
        <pt x="527" y="0" on="1"/>
        <pt x="-6" y="1465" on="1"/>
        <pt x="273" y="1465" on="1"/>
        <pt x="583" y="560" on="1"/>
        <pt x="601" y="513" on="0"/>
        <pt x="666" y="285" on="1"/>
        <pt x="670" y="301" on="0"/>
        <pt x="736" y="532" on="0"/>
        <pt x="746" y="558" on="1"/>
        <pt x="758" y="592" on="0"/>
        <pt x="1038" y="1427" on="0"/>
        <pt x="1051" y="1465" on="1"/>
        <pt x="1327" y="1465" on="1"/>
        <pt x="801" y="0" on="1"/>
      </contour>
    </TTGlyph>
    <TTGlyph name="W" xMin="10" yMin="0" xMax="2034" yMax="1465">
      <contour>
        <pt x="408" y="0" on="1"/>
        <pt x="10" y="1465" on="1"/>
        <pt x="280" y="1465" on="1"/>
        <pt x="564" y="325" on="1"/>
        <pt x="898" y="1458" on="1"/>
        <pt x="1157" y="1458" on="1"/>
        <pt x="1474" y="321" on="1"/>
        <pt x="1764" y="1465" on="1"/>
        <pt x="2034" y="1465" on="1"/>
        <pt x="1624" y="0" on="1"/>
        <pt x="1343" y="0" on="1"/>
        <pt x="1030" y="1073" on="1"/>
        <pt x="687" y="0" on="1"/>
      </contour>
    </TTGlyph>
    <TTGlyph name="Wacute" xMin="10" yMin="0" xMax="2034" yMax="1991">
      <component glyphName="acute" x="754" y="413" flags="0x1004"/>
      <component glyphName="W" x="0" y="0" flags="0x1204"/>
    </TTGlyph>
    <TTGlyph name="Wcircumflex" xMin="10" yMin="0" xMax="2034" yMax="1991">
      <component glyphName="circumflex" x="620" y="445" flags="0x1004"/>
      <component glyphName="W" x="0" y="0" flags="0x1204"/>
    </TTGlyph>
    <TTGlyph name="Wdieresis" xMin="10" yMin="0" xMax="2034" yMax="1862">
      <component glyphName="dieresis" x="636" y="372" flags="0x1004"/>
      <component glyphName="W" x="0" y="0" flags="0x1204"/>
    </TTGlyph>
    <TTGlyph name="Wgrave" xMin="10" yMin="0" xMax="2034" yMax="1991">
      <component glyphName="grave" x="618" y="413" flags="0x1004"/>
      <component glyphName="W" x="0" y="0" flags="0x1204"/>
    </TTGlyph>
    <TTGlyph name="X" xMin="-11" yMin="0" xMax="1347" yMax="1465">
      <contour>
        <pt x="-11" y="0" on="1"/>
        <pt x="502" y="750" on="1"/>
        <pt x="27" y="1465" on="1"/>
        <pt x="332" y="1465" on="1"/>
        <pt x="677" y="919" on="1"/>
        <pt x="1032" y="1465" on="1"/>
        <pt x="1321" y="1465" on="1"/>
        <pt x="836" y="746" on="1"/>
        <pt x="1347" y="0" on="1"/>
        <pt x="1034" y="0" on="1"/>
        <pt x="664" y="570" on="1"/>
        <pt x="286" y="0" on="1"/>
      </contour>
    </TTGlyph>
    <TTGlyph name="Y" xMin="-15" yMin="0" xMax="1269" yMax="1465">
      <contour>
        <pt x="492" y="0" on="1"/>
        <pt x="492" y="581" on="1"/>
        <pt x="-15" y="1465" on="1"/>
        <pt x="279" y="1465" on="1"/>
        <pt x="628" y="831" on="1"/>
        <pt x="979" y="1465" on="1"/>
        <pt x="1269" y="1465" on="1"/>
        <pt x="764" y="586" on="1"/>
        <pt x="764" y="0" on="1"/>
      </contour>
    </TTGlyph>
    <TTGlyph name="Yacute" xMin="-15" yMin="0" xMax="1269" yMax="1991">
      <component glyphName="acute" x="358" y="413" flags="0x1004"/>
      <component glyphName="Y" x="0" y="0" flags="0x1204"/>
    </TTGlyph>
    <TTGlyph name="Ycircumflex" xMin="-15" yMin="0" xMax="1269" yMax="1991">
      <component glyphName="circumflex" x="226" y="445" flags="0x1004"/>
      <component glyphName="Y" x="0" y="0" flags="0x1204"/>
    </TTGlyph>
    <TTGlyph name="Ydieresis" xMin="-15" yMin="0" xMax="1269" yMax="1862">
      <component glyphName="dieresis" x="240" y="372" flags="0x1004"/>
      <component glyphName="Y" x="0" y="0" flags="0x1204"/>
    </TTGlyph>
    <TTGlyph name="Ygrave" xMin="-15" yMin="0" xMax="1269" yMax="1991">
      <component glyphName="grave" x="222" y="413" flags="0x1004"/>
      <component glyphName="Y" x="0" y="0" flags="0x1204"/>
    </TTGlyph>
    <TTGlyph name="Z" xMin="62" yMin="0" xMax="1160" yMax="1465">
      <contour>
        <pt x="62" y="0" on="1"/>
        <pt x="62" y="174" on="1"/>
        <pt x="835" y="1249" on="1"/>
        <pt x="89" y="1249" on="1"/>
        <pt x="89" y="1465" on="1"/>
        <pt x="1155" y="1465" on="1"/>
        <pt x="1155" y="1268" on="1"/>
        <pt x="396" y="216" on="1"/>
        <pt x="1160" y="216" on="1"/>
        <pt x="1159" y="0" on="1"/>
      </contour>
    </TTGlyph>
    <TTGlyph name="Zacute" xMin="62" yMin="0" xMax="1160" yMax="1991">
      <component glyphName="acute" x="342" y="413" flags="0x1004"/>
      <component glyphName="Z" x="0" y="0" flags="0x1204"/>
    </TTGlyph>
    <TTGlyph name="Zcaron" xMin="62" yMin="0" xMax="1160" yMax="1961">
      <component glyphName="caron" x="208" y="415" flags="0x1004"/>
      <component glyphName="Z" x="0" y="0" flags="0x1204"/>
    </TTGlyph>
    <TTGlyph name="Zdotaccent" xMin="62" yMin="0" xMax="1160" yMax="1824">
      <component glyphName="uni0307" x="354" y="386" flags="0x1004"/>
      <component glyphName="Z" x="0" y="0" flags="0x1204"/>
    </TTGlyph>
    <TTGlyph name="a" xMin="81" yMin="-21" xMax="1011" yMax="1126">
      <contour>
        <pt x="423" y="-21" on="1"/>
        <pt x="270" y="-21" on="0"/>
        <pt x="81" y="148" on="0"/>
        <pt x="81" y="307" on="1"/>
        <pt x="81" y="478" on="0"/>
        <pt x="305" y="643" on="0"/>
        <pt x="531" y="665" on="1"/>
        <pt x="562" y="669" on="0"/>
        <pt x="634" y="677" on="0"/>
        <pt x="724" y="685" on="0"/>
        <pt x="750" y="688" on="1"/>
        <pt x="750" y="746" on="1"/>
        <pt x="750" y="846" on="0"/>
        <pt x="658" y="937" on="0"/>
        <pt x="564" y="937" on="1"/>
        <pt x="430" y="937" on="0"/>
        <pt x="233" y="862" on="1"/>
        <pt x="232" y="865" on="0"/>
        <pt x="168" y="1041" on="0"/>
        <pt x="167" y="1043" on="1"/>
        <pt x="361" y="1126" on="0"/>
        <pt x="587" y="1126" on="1"/>
        <pt x="809" y="1126" on="0"/>
        <pt x="1011" y="933" on="0"/>
        <pt x="1011" y="717" on="1"/>
        <pt x="1011" y="0" on="1"/>
        <pt x="817" y="0" on="1"/>
        <pt x="816" y="4" on="0"/>
        <pt x="774" y="130" on="0"/>
        <pt x="774" y="134" on="1"/>
        <pt x="692" y="54" on="0"/>
        <pt x="535" y="-21" on="0"/>
      </contour>
      <contour>
        <pt x="494" y="165" on="1"/>
        <pt x="585" y="165" on="0"/>
        <pt x="720" y="252" on="0"/>
        <pt x="749" y="314" on="1"/>
        <pt x="749" y="526" on="1"/>
        <pt x="746" y="526" on="0"/>
        <pt x="647" y="518" on="0"/>
        <pt x="643" y="518" on="1"/>
        <pt x="484" y="504" on="0"/>
        <pt x="336" y="412" on="0"/>
        <pt x="336" y="310" on="1"/>
        <pt x="336" y="240" on="0"/>
        <pt x="418" y="165" on="0"/>
      </contour>
    </TTGlyph>
    <TTGlyph name="aacute" xMin="81" yMin="-21" xMax="1011" yMax="1631">
      <component glyphName="acute" x="278" y="53" flags="0x1004"/>
      <component glyphName="a" x="0" y="0" flags="0x1204"/>
    </TTGlyph>
    <TTGlyph name="abreve" xMin="81" yMin="-21" xMax="1011" yMax="1500">
      <component glyphName="breve" x="194" y="19" flags="0x1004"/>
      <component glyphName="a" x="0" y="0" flags="0x1204"/>
    </TTGlyph>
    <TTGlyph name="acircumflex" xMin="81" yMin="-21" xMax="1011" yMax="1631">
      <component glyphName="circumflex" x="144" y="85" flags="0x1004"/>
      <component glyphName="a" x="0" y="0" flags="0x1204"/>
    </TTGlyph>
    <TTGlyph name="acute" xMin="191" yMin="1195" xMax="661" yMax="1578">
      <contour>
        <pt x="191" y="1195" on="1"/>
        <pt x="362" y="1578" on="1"/>
        <pt x="661" y="1578" on="1"/>
        <pt x="346" y="1195" on="1"/>
      </contour>
    </TTGlyph>
    <TTGlyph name="adieresis" xMin="81" yMin="-21" xMax="1011" yMax="1502">
      <component glyphName="dieresis" x="160" y="12" flags="0x1004"/>
      <component glyphName="a" x="0" y="0" flags="0x1204"/>
    </TTGlyph>
    <TTGlyph name="ae" xMin="72" yMin="-22" xMax="1613" yMax="1135">
      <contour>
        <pt x="411" y="-22" on="1"/>
        <pt x="258" y="-22" on="0"/>
        <pt x="72" y="170" on="0"/>
        <pt x="72" y="317" on="1"/>
        <pt x="72" y="362" on="0"/>
        <pt x="89" y="434" on="0"/>
        <pt x="132" y="490" on="0"/>
        <pt x="176" y="531" on="0"/>
        <pt x="259" y="564" on="0"/>
        <pt x="326" y="585" on="0"/>
        <pt x="446" y="604" on="0"/>
        <pt x="533" y="615" on="0"/>
        <pt x="608" y="623" on="1"/>
        <pt x="693" y="630" on="1"/>
        <pt x="693" y="747" on="1"/>
        <pt x="693" y="850" on="0"/>
        <pt x="614" y="945" on="0"/>
        <pt x="507" y="949" on="1"/>
        <pt x="366" y="949" on="0"/>
        <pt x="183" y="872" on="1"/>
        <pt x="134" y="1052" on="1"/>
        <pt x="309" y="1135" on="0"/>
        <pt x="523" y="1135" on="1"/>
        <pt x="649" y="1135" on="0"/>
        <pt x="819" y="1044" on="0"/>
        <pt x="848" y="959" on="1"/>
        <pt x="905" y="1038" on="0"/>
        <pt x="1094" y="1135" on="0"/>
        <pt x="1209" y="1135" on="1"/>
        <pt x="1314" y="1135" on="0"/>
        <pt x="1474" y="1053" on="0"/>
        <pt x="1567" y="908" on="0"/>
        <pt x="1613" y="730" on="0"/>
        <pt x="1613" y="625" on="1"/>
        <pt x="1613" y="581" on="0"/>
        <pt x="1535" y="540" on="0"/>
        <pt x="1456" y="537" on="1"/>
        <pt x="1263" y="526" on="0"/>
        <pt x="941" y="500" on="1"/>
        <pt x="948" y="339" on="0"/>
        <pt x="1095" y="169" on="0"/>
        <pt x="1232" y="168" on="1"/>
        <pt x="1322" y="168" on="0"/>
        <pt x="1476" y="216" on="0"/>
        <pt x="1519" y="249" on="1"/>
        <pt x="1591" y="87" on="1"/>
        <pt x="1442" y="-21" on="0"/>
        <pt x="1216" y="-21" on="1"/>
        <pt x="966" y="-21" on="0"/>
        <pt x="837" y="138" on="1"/>
        <pt x="662" y="-22" on="0"/>
      </contour>
      <contour>
        <pt x="449" y="150" on="1"/>
        <pt x="584" y="150" on="0"/>
        <pt x="744" y="273" on="1"/>
        <pt x="732" y="297" on="0"/>
        <pt x="699" y="424" on="0"/>
        <pt x="698" y="475" on="1"/>
        <pt x="695" y="475" on="0"/>
        <pt x="609" y="464" on="0"/>
        <pt x="607" y="464" on="1"/>
        <pt x="541" y="456" on="0"/>
        <pt x="456" y="441" on="0"/>
        <pt x="376" y="417" on="0"/>
        <pt x="332" y="385" on="0"/>
        <pt x="306" y="337" on="0"/>
        <pt x="306" y="305" on="1"/>
        <pt x="306" y="230" on="0"/>
        <pt x="379" y="150" on="0"/>
      </contour>
      <contour>
        <pt x="944" y="644" on="1"/>
        <pt x="1380" y="683" on="1"/>
        <pt x="1382" y="697" on="0"/>
        <pt x="1382" y="714" on="1"/>
        <pt x="1380" y="944" on="0"/>
        <pt x="1207" y="944" on="1"/>
        <pt x="1160" y="944" on="0"/>
        <pt x="1076" y="914" on="0"/>
        <pt x="1000" y="848" on="0"/>
        <pt x="950" y="727" on="0"/>
      </contour>
    </TTGlyph>
    <TTGlyph name="agrave" xMin="81" yMin="-21" xMax="1011" yMax="1631">
      <component glyphName="grave" x="142" y="53" flags="0x1004"/>
      <component glyphName="a" x="0" y="0" flags="0x1204"/>
    </TTGlyph>
    <TTGlyph name="amacron" xMin="81" yMin="-21" xMax="1011" yMax="1401">
      <component glyphName="macron" x="85" y="-129" flags="0x1004"/>
      <component glyphName="a" x="0" y="0" flags="0x1204"/>
    </TTGlyph>
    <TTGlyph name="ampersand" xMin="58" yMin="-23" xMax="1388" yMax="1485">
      <contour>
        <pt x="580" y="-23" on="1"/>
        <pt x="474" y="-23" on="0"/>
        <pt x="291" y="27" on="0"/>
        <pt x="143" y="126" on="0"/>
        <pt x="58" y="294" on="0"/>
        <pt x="58" y="404" on="1"/>
        <pt x="58" y="468" on="0"/>
        <pt x="96" y="580" on="0"/>
        <pt x="155" y="663" on="0"/>
        <pt x="248" y="743" on="0"/>
        <pt x="336" y="799" on="0"/>
        <pt x="395" y="831" on="1"/>
        <pt x="354" y="877" on="0"/>
        <pt x="310" y="932" on="0"/>
        <pt x="255" y="1018" on="0"/>
        <pt x="230" y="1103" on="0"/>
        <pt x="230" y="1150" on="1"/>
        <pt x="230" y="1260" on="0"/>
        <pt x="338" y="1415" on="0"/>
        <pt x="507" y="1485" on="0"/>
        <pt x="612" y="1485" on="1"/>
        <pt x="686" y="1485" on="0"/>
        <pt x="823" y="1448" on="0"/>
        <pt x="939" y="1374" on="0"/>
        <pt x="1009" y="1249" on="0"/>
        <pt x="1009" y="1168" on="1"/>
        <pt x="1009" y="1100" on="0"/>
        <pt x="955" y="981" on="0"/>
        <pt x="856" y="887" on="0"/>
        <pt x="753" y="819" on="0"/>
        <pt x="687" y="786" on="1"/>
        <pt x="1037" y="404" on="1"/>
        <pt x="1118" y="492" on="0"/>
        <pt x="1191" y="634" on="1"/>
        <pt x="1361" y="521" on="1"/>
        <pt x="1283" y="370" on="0"/>
        <pt x="1181" y="256" on="1"/>
        <pt x="1388" y="37" on="1"/>
        <pt x="1381" y="35" on="0"/>
        <pt x="1184" y="-14" on="0"/>
        <pt x="1178" y="-16" on="1"/>
        <pt x="1036" y="133" on="1"/>
        <pt x="831" y="-23" on="0"/>
      </contour>
      <contour>
        <pt x="587" y="168" on="1"/>
        <pt x="673" y="168" on="0"/>
        <pt x="837" y="225" on="0"/>
        <pt x="899" y="276" on="1"/>
        <pt x="880" y="296" on="0"/>
        <pt x="526" y="681" on="0"/>
        <pt x="508" y="701" on="1"/>
        <pt x="466" y="677" on="0"/>
        <pt x="413" y="644" on="0"/>
        <pt x="349" y="591" on="0"/>
        <pt x="314" y="540" on="0"/>
        <pt x="289" y="468" on="0"/>
        <pt x="289" y="426" on="1"/>
        <pt x="289" y="299" on="0"/>
        <pt x="455" y="168" on="0"/>
      </contour>
      <contour>
        <pt x="571" y="924" on="1"/>
        <pt x="618" y="949" on="0"/>
        <pt x="679" y="989" on="0"/>
        <pt x="747" y="1049" on="0"/>
        <pt x="781" y="1123" on="0"/>
        <pt x="781" y="1166" on="1"/>
        <pt x="781" y="1239" on="0"/>
        <pt x="691" y="1315" on="0"/>
        <pt x="619" y="1315" on="1"/>
        <pt x="542" y="1315" on="0"/>
        <pt x="451" y="1237" on="0"/>
        <pt x="451" y="1160" on="1"/>
        <pt x="451" y="1048" on="0"/>
      </contour>
    </TTGlyph>
    <TTGlyph name="aogonek" xMin="81" yMin="-423" xMax="1054" yMax="1126">
      <component glyphName="ogonek" x="541" y="-31" flags="0x1004"/>
      <component glyphName="a" x="0" y="0" flags="0x1004"/>
    </TTGlyph>
    <TTGlyph name="approxequal" xMin="134" yMin="102" xMax="1215" yMax="860">
      <contour>
        <pt x="223" y="102" on="1"/>
        <pt x="134" y="229" on="1"/>
        <pt x="221" y="443" on="0"/>
        <pt x="426" y="443" on="1"/>
        <pt x="536" y="443" on="0"/>
        <pt x="693" y="372" on="1"/>
        <pt x="835" y="305" on="0"/>
        <pt x="906" y="305" on="1"/>
        <pt x="967" y="305" on="0"/>
        <pt x="1071" y="371" on="0"/>
        <pt x="1133" y="447" on="1"/>
        <pt x="1215" y="328" on="1"/>
        <pt x="1176" y="240" on="0"/>
        <pt x="999" y="114" on="0"/>
        <pt x="890" y="114" on="1"/>
        <pt x="822" y="114" on="0"/>
        <pt x="702" y="153" on="0"/>
        <pt x="614" y="197" on="1"/>
        <pt x="555" y="227" on="0"/>
        <pt x="469" y="255" on="0"/>
        <pt x="418" y="255" on="1"/>
        <pt x="294" y="255" on="0"/>
      </contour>
      <contour>
        <pt x="223" y="516" on="1"/>
        <pt x="134" y="642" on="1"/>
        <pt x="219" y="856" on="0"/>
        <pt x="426" y="856" on="1"/>
        <pt x="539" y="856" on="0"/>
        <pt x="694" y="784" on="1"/>
        <pt x="827" y="719" on="0"/>
        <pt x="906" y="719" on="1"/>
        <pt x="967" y="719" on="0"/>
        <pt x="1071" y="784" on="0"/>
        <pt x="1133" y="860" on="1"/>
        <pt x="1214" y="742" on="1"/>
        <pt x="1176" y="654" on="0"/>
        <pt x="998" y="528" on="0"/>
        <pt x="889" y="528" on="1"/>
        <pt x="821" y="528" on="0"/>
        <pt x="701" y="567" on="0"/>
        <pt x="613" y="611" on="1"/>
        <pt x="556" y="640" on="0"/>
        <pt x="468" y="669" on="0"/>
        <pt x="417" y="669" on="1"/>
        <pt x="293" y="669" on="0"/>
      </contour>
    </TTGlyph>
    <TTGlyph name="aring" xMin="81" yMin="-21" xMax="1011" yMax="1652">
      <component glyphName="ring" x="216" y="90" flags="0x1004"/>
      <component glyphName="a" x="0" y="0" flags="0x1204"/>
    </TTGlyph>
    <TTGlyph name="asciicircum" xMin="36" yMin="549" xMax="1120" yMax="1471">
      <contour>
        <pt x="36" y="549" on="1"/>
        <pt x="498" y="1471" on="1"/>
        <pt x="627" y="1471" on="1"/>
        <pt x="1120" y="549" on="1"/>
        <pt x="911" y="549" on="1"/>
        <pt x="564" y="1217" on="1"/>
        <pt x="245" y="549" on="1"/>
      </contour>
    </TTGlyph>
    <TTGlyph name="asciitilde" xMin="130" yMin="471" xMax="1205" yMax="817">
      <contour>
        <pt x="207" y="471" on="1"/>
        <pt x="130" y="616" on="1"/>
        <pt x="226" y="811" on="0"/>
        <pt x="417" y="811" on="1"/>
        <pt x="526" y="811" on="0"/>
        <pt x="681" y="745" on="1"/>
        <pt x="827" y="681" on="0"/>
        <pt x="900" y="681" on="1"/>
        <pt x="960" y="681" on="0"/>
        <pt x="1070" y="746" on="0"/>
        <pt x="1134" y="817" on="1"/>
        <pt x="1205" y="682" on="1"/>
        <pt x="1162" y="602" on="0"/>
        <pt x="985" y="486" on="0"/>
        <pt x="883" y="486" on="1"/>
        <pt x="818" y="486" on="0"/>
        <pt x="704" y="521" on="0"/>
        <pt x="618" y="560" on="1"/>
        <pt x="551" y="591" on="0"/>
        <pt x="460" y="620" on="0"/>
        <pt x="408" y="620" on="1"/>
        <pt x="286" y="620" on="0"/>
      </contour>
    </TTGlyph>
    <TTGlyph name="asterisk" xMin="71" yMin="562" xMax="1032" yMax="1504">
      <contour>
        <pt x="375" y="562" on="1"/>
        <pt x="171" y="676" on="1"/>
        <pt x="413" y="982" on="1"/>
        <pt x="71" y="1059" on="1"/>
        <pt x="135" y="1266" on="1"/>
        <pt x="472" y="1133" on="1"/>
        <pt x="437" y="1504" on="1"/>
        <pt x="665" y="1504" on="1"/>
        <pt x="630" y="1133" on="1"/>
        <pt x="971" y="1262" on="1"/>
        <pt x="1032" y="1054" on="1"/>
        <pt x="688" y="982" on="1"/>
        <pt x="693" y="975" on="0"/>
        <pt x="922" y="691" on="0"/>
        <pt x="933" y="676" on="1"/>
        <pt x="927" y="672" on="0"/>
        <pt x="738" y="566" on="0"/>
        <pt x="731" y="562" on="1"/>
        <pt x="549" y="885" on="1"/>
      </contour>
    </TTGlyph>
    <TTGlyph name="at" xMin="68" yMin="-205" xMax="1633" yMax="1400">
      <contour>
        <pt x="891" y="-205" on="1"/>
        <pt x="650" y="-205" on="0"/>
        <pt x="277" y="-11" on="0"/>
        <pt x="68" y="352" on="0"/>
        <pt x="68" y="590" on="1"/>
        <pt x="68" y="761" on="0"/>
        <pt x="193" y="1062" on="0"/>
        <pt x="411" y="1277" on="0"/>
        <pt x="718" y="1400" on="0"/>
        <pt x="893" y="1400" on="1"/>
        <pt x="1101" y="1400" on="0"/>
        <pt x="1438" y="1226" on="0"/>
        <pt x="1633" y="906" on="0"/>
        <pt x="1633" y="702" on="1"/>
        <pt x="1633" y="585" on="0"/>
        <pt x="1559" y="379" on="0"/>
        <pt x="1437" y="238" on="0"/>
        <pt x="1277" y="156" on="0"/>
        <pt x="1193" y="156" on="1"/>
        <pt x="1110" y="156" on="0"/>
        <pt x="1010" y="262" on="0"/>
        <pt x="1008" y="375" on="1"/>
        <pt x="970" y="285" on="0"/>
        <pt x="831" y="171" on="0"/>
        <pt x="749" y="171" on="1"/>
        <pt x="611" y="171" on="0"/>
        <pt x="455" y="347" on="0"/>
        <pt x="455" y="492" on="1"/>
        <pt x="455" y="635" on="0"/>
        <pt x="573" y="882" on="0"/>
        <pt x="791" y="1032" on="0"/>
        <pt x="926" y="1032" on="1"/>
        <pt x="1064" y="1032" on="0"/>
        <pt x="1242" y="968" on="1"/>
        <pt x="1229" y="900" on="0"/>
        <pt x="1170" y="623" on="0"/>
        <pt x="1137" y="439" on="0"/>
        <pt x="1137" y="337" on="0"/>
        <pt x="1174" y="299" on="0"/>
        <pt x="1215" y="299" on="1"/>
        <pt x="1284" y="299" on="0"/>
        <pt x="1407" y="421" on="0"/>
        <pt x="1477" y="608" on="0"/>
        <pt x="1477" y="705" on="1"/>
        <pt x="1477" y="869" on="0"/>
        <pt x="1326" y="1121" on="0"/>
        <pt x="1060" y="1255" on="0"/>
        <pt x="892" y="1255" on="1"/>
        <pt x="757" y="1255" on="0"/>
        <pt x="530" y="1165" on="0"/>
        <pt x="382" y="1023" on="0"/>
        <pt x="278" y="841" on="0"/>
        <pt x="232" y="662" on="0"/>
        <pt x="232" y="578" on="1"/>
        <pt x="232" y="426" on="0"/>
        <pt x="336" y="180" on="0"/>
        <pt x="517" y="22" on="0"/>
        <pt x="754" y="-62" on="0"/>
        <pt x="889" y="-62" on="1"/>
        <pt x="1182" y="-62" on="0"/>
        <pt x="1391" y="92" on="1"/>
        <pt x="1446" y="-16" on="1"/>
        <pt x="1215" y="-205" on="0"/>
      </contour>
      <contour>
        <pt x="752" y="312" on="1"/>
        <pt x="944" y="312" on="0"/>
        <pt x="1029" y="748" on="1"/>
        <pt x="1041" y="812" on="0"/>
        <pt x="1054" y="899" on="1"/>
        <pt x="999" y="910" on="0"/>
        <pt x="941" y="910" on="1"/>
        <pt x="857" y="910" on="0"/>
        <pt x="712" y="788" on="0"/>
        <pt x="632" y="602" on="0"/>
        <pt x="632" y="506" on="1"/>
        <pt x="632" y="422" on="0"/>
        <pt x="691" y="312" on="0"/>
      </contour>
    </TTGlyph>
    <TTGlyph name="atilde" xMin="81" yMin="-21" xMax="1011" yMax="1487">
      <component glyphName="tilde" x="156" y="18" flags="0x1004"/>
      <component glyphName="a" x="0" y="0" flags="0x1204"/>
    </TTGlyph>
    <TTGlyph name="b" xMin="133" yMin="-21" xMax="1177" yMax="1521">
      <contour>
        <pt x="722" y="-21" on="1"/>
        <pt x="610" y="-21" on="0"/>
        <pt x="427" y="78" on="0"/>
        <pt x="386" y="141" on="1"/>
        <pt x="360" y="1" on="1"/>
        <pt x="133" y="1" on="1"/>
        <pt x="133" y="1504" on="1"/>
        <pt x="395" y="1521" on="1"/>
        <pt x="395" y="1181" on="1"/>
        <pt x="395" y="1082" on="0"/>
        <pt x="389" y="956" on="1"/>
        <pt x="519" y="1126" on="0"/>
        <pt x="728" y="1126" on="1"/>
        <pt x="938" y="1126" on="0"/>
        <pt x="1177" y="814" on="0"/>
        <pt x="1177" y="562" on="1"/>
        <pt x="1177" y="300" on="0"/>
        <pt x="930" y="-21" on="0"/>
      </contour>
      <contour>
        <pt x="659" y="178" on="1"/>
        <pt x="776" y="178" on="0"/>
        <pt x="916" y="376" on="0"/>
        <pt x="916" y="558" on="1"/>
        <pt x="916" y="741" on="0"/>
        <pt x="779" y="929" on="0"/>
        <pt x="662" y="929" on="1"/>
        <pt x="396" y="929" on="0"/>
        <pt x="393" y="570" on="1"/>
        <pt x="393" y="368" on="0"/>
        <pt x="527" y="178" on="0"/>
      </contour>
    </TTGlyph>
    <TTGlyph name="backslash" xMin="30" yMin="-60" xMax="878" yMax="1462">
      <contour>
        <pt x="649" y="-60" on="1"/>
        <pt x="30" y="1462" on="1"/>
        <pt x="261" y="1462" on="1"/>
        <pt x="878" y="-60" on="1"/>
      </contour>
    </TTGlyph>
    <TTGlyph name="bar" xMin="278" yMin="-380" xMax="481" yMax="1538">
      <contour>
        <pt x="278" y="-380" on="1"/>
        <pt x="278" y="1538" on="1"/>
        <pt x="481" y="1538" on="1"/>
        <pt x="481" y="-380" on="1"/>
      </contour>
    </TTGlyph>
    <TTGlyph name="braceleft" xMin="52" yMin="-287" xMax="703" yMax="1511">
      <contour>
        <pt x="703" y="-287" on="1"/>
        <pt x="477" y="-287" on="0"/>
        <pt x="277" y="-158" on="0"/>
        <pt x="277" y="13" on="1"/>
        <pt x="277" y="290" on="1"/>
        <pt x="277" y="410" on="0"/>
        <pt x="183" y="505" on="0"/>
        <pt x="52" y="505" on="1"/>
        <pt x="52" y="719" on="1"/>
        <pt x="145" y="720" on="0"/>
        <pt x="241" y="761" on="0"/>
        <pt x="277" y="848" on="0"/>
        <pt x="277" y="930" on="1"/>
        <pt x="277" y="1221" on="1"/>
        <pt x="277" y="1306" on="0"/>
        <pt x="329" y="1419" on="0"/>
        <pt x="441" y="1484" on="0"/>
        <pt x="593" y="1511" on="0"/>
        <pt x="703" y="1511" on="1"/>
        <pt x="703" y="1311" on="1"/>
        <pt x="596" y="1310" on="0"/>
        <pt x="529" y="1238" on="0"/>
        <pt x="529" y="1137" on="1"/>
        <pt x="529" y="868" on="1"/>
        <pt x="528" y="767" on="0"/>
        <pt x="430" y="652" on="0"/>
        <pt x="317" y="610" on="1"/>
        <pt x="529" y="566" on="0"/>
        <pt x="529" y="360" on="1"/>
        <pt x="529" y="88" on="1"/>
        <pt x="529" y="-13" on="0"/>
        <pt x="596" y="-85" on="0"/>
        <pt x="703" y="-86" on="1"/>
      </contour>
    </TTGlyph>
    <TTGlyph name="braceright" xMin="85" yMin="-287" xMax="737" yMax="1511">
      <contour>
        <pt x="85" y="-287" on="1"/>
        <pt x="85" y="-86" on="1"/>
        <pt x="192" y="-85" on="0"/>
        <pt x="259" y="-14" on="0"/>
        <pt x="259" y="88" on="1"/>
        <pt x="259" y="360" on="1"/>
        <pt x="259" y="464" on="0"/>
        <pt x="362" y="579" on="0"/>
        <pt x="471" y="611" on="1"/>
        <pt x="362" y="645" on="0"/>
        <pt x="260" y="766" on="0"/>
        <pt x="259" y="868" on="1"/>
        <pt x="259" y="1137" on="1"/>
        <pt x="259" y="1238" on="0"/>
        <pt x="192" y="1310" on="0"/>
        <pt x="85" y="1311" on="1"/>
        <pt x="85" y="1511" on="1"/>
        <pt x="198" y="1511" on="0"/>
        <pt x="349" y="1485" on="0"/>
        <pt x="460" y="1418" on="0"/>
        <pt x="511" y="1301" on="0"/>
        <pt x="511" y="1212" on="1"/>
        <pt x="511" y="929" on="1"/>
        <pt x="511" y="809" on="0"/>
        <pt x="602" y="720" on="0"/>
        <pt x="737" y="719" on="1"/>
        <pt x="737" y="505" on="1"/>
        <pt x="605" y="505" on="0"/>
        <pt x="511" y="412" on="0"/>
        <pt x="511" y="290" on="1"/>
        <pt x="511" y="4" on="1"/>
        <pt x="511" y="-162" on="0"/>
        <pt x="311" y="-287" on="0"/>
      </contour>
    </TTGlyph>
    <TTGlyph name="bracketleft" xMin="135" yMin="-266" xMax="599" yMax="1507">
      <contour>
        <pt x="135" y="-266" on="1"/>
        <pt x="135" y="1507" on="1"/>
        <pt x="599" y="1507" on="1"/>
        <pt x="599" y="1327" on="1"/>
        <pt x="387" y="1327" on="1"/>
        <pt x="387" y="-85" on="1"/>
        <pt x="599" y="-85" on="1"/>
        <pt x="599" y="-266" on="1"/>
      </contour>
    </TTGlyph>
    <TTGlyph name="bracketright" xMin="52" yMin="-266" xMax="516" yMax="1507">
      <contour>
        <pt x="52" y="-266" on="1"/>
        <pt x="52" y="-85" on="1"/>
        <pt x="263" y="-85" on="1"/>
        <pt x="263" y="1327" on="1"/>
        <pt x="52" y="1327" on="1"/>
        <pt x="52" y="1507" on="1"/>
        <pt x="516" y="1507" on="1"/>
        <pt x="516" y="-266" on="1"/>
      </contour>
    </TTGlyph>
    <TTGlyph name="breve" xMin="61" yMin="1229" xMax="643" yMax="1481">
      <contour>
        <pt x="484" y="1229" on="0"/>
        <pt x="220" y="1229" on="0"/>
        <pt x="61" y="1357" on="0"/>
        <pt x="61" y="1481" on="1"/>
        <pt x="228" y="1481" on="1"/>
        <pt x="228" y="1430" on="0"/>
        <pt x="287" y="1385" on="0"/>
        <pt x="417" y="1385" on="0"/>
        <pt x="476" y="1430" on="0"/>
        <pt x="476" y="1481" on="1"/>
        <pt x="643" y="1481" on="1"/>
        <pt x="643" y="1357" on="0"/>
      </contour>
    </TTGlyph>
    <TTGlyph name="brokenbar" xMin="306" yMin="-379" xMax="509" yMax="1538">
      <contour>
        <pt x="306" y="-379" on="1"/>
        <pt x="306" y="340" on="1"/>
        <pt x="509" y="340" on="1"/>
        <pt x="509" y="-379" on="1"/>
      </contour>
      <contour>
        <pt x="306" y="820" on="1"/>
        <pt x="306" y="1538" on="1"/>
        <pt x="509" y="1538" on="1"/>
        <pt x="509" y="820" on="1"/>
      </contour>
    </TTGlyph>
    <TTGlyph name="bullet" xMin="143" yMin="355" xMax="856" yMax="1037">
      <contour>
        <pt x="651" y="355" on="0"/>
        <pt x="343" y="355" on="0"/>
        <pt x="143" y="547" on="0"/>
        <pt x="143" y="692" on="1"/>
        <pt x="143" y="838" on="0"/>
        <pt x="350" y="1037" on="0"/>
        <pt x="503" y="1037" on="1"/>
        <pt x="655" y="1037" on="0"/>
        <pt x="856" y="844" on="0"/>
        <pt x="856" y="699" on="1"/>
        <pt x="856" y="552" on="0"/>
      </contour>
    </TTGlyph>
    <TTGlyph name="c" xMin="81" yMin="-21" xMax="943" yMax="1126">
      <contour>
        <pt x="614" y="-21" on="1"/>
        <pt x="362" y="-21" on="0"/>
        <pt x="81" y="279" on="0"/>
        <pt x="81" y="558" on="1"/>
        <pt x="81" y="828" on="0"/>
        <pt x="376" y="1126" on="0"/>
        <pt x="617" y="1126" on="1"/>
        <pt x="810" y="1126" on="0"/>
        <pt x="943" y="1043" on="1"/>
        <pt x="881" y="856" on="1"/>
        <pt x="745" y="927" on="0"/>
        <pt x="628" y="927" on="1"/>
        <pt x="495" y="927" on="0"/>
        <pt x="342" y="737" on="0"/>
        <pt x="342" y="555" on="1"/>
        <pt x="342" y="371" on="0"/>
        <pt x="493" y="179" on="0"/>
        <pt x="631" y="179" on="1"/>
        <pt x="775" y="179" on="0"/>
        <pt x="908" y="264" on="1"/>
        <pt x="933" y="65" on="1"/>
        <pt x="864" y="19" on="0"/>
        <pt x="716" y="-21" on="0"/>
      </contour>
    </TTGlyph>
    <TTGlyph name="cacute" xMin="81" yMin="-21" xMax="943" yMax="1631">
      <component glyphName="acute" x="244" y="53" flags="0x1004"/>
      <component glyphName="c" x="0" y="0" flags="0x1204"/>
    </TTGlyph>
    <TTGlyph name="caron" xMin="40" yMin="1193" xMax="766" yMax="1546">
      <contour>
        <pt x="302" y="1193" on="1"/>
        <pt x="40" y="1546" on="1"/>
        <pt x="238" y="1546" on="1"/>
        <pt x="399" y="1350" on="1"/>
        <pt x="563" y="1546" on="1"/>
        <pt x="766" y="1546" on="1"/>
        <pt x="504" y="1193" on="1"/>
      </contour>
    </TTGlyph>
    <TTGlyph name="ccaron" xMin="81" yMin="-21" xMax="943" yMax="1601">
      <component glyphName="caron" x="109" y="55" flags="0x1004"/>
      <component glyphName="c" x="0" y="0" flags="0x1204"/>
    </TTGlyph>
    <TTGlyph name="ccedilla" xMin="81" yMin="-389" xMax="943" yMax="1126">
      <component glyphName="cedilla" x="375" y="-32" flags="0x1004"/>
      <component glyphName="c" x="0" y="0" flags="0x1204"/>
    </TTGlyph>
    <TTGlyph name="ccircumflex" xMin="81" yMin="-21" xMax="943" yMax="1631">
      <component glyphName="circumflex" x="110" y="85" flags="0x1004"/>
      <component glyphName="c" x="0" y="0" flags="0x1204"/>
    </TTGlyph>
    <TTGlyph name="cdotaccent" xMin="81" yMin="-21" xMax="943" yMax="1464">
      <component glyphName="uni0307" x="254" y="26" flags="0x1004"/>
      <component glyphName="c" x="0" y="0" flags="0x1204"/>
    </TTGlyph>
    <TTGlyph name="cedilla" xMin="62" yMin="-357" xMax="329" yMax="24">
      <contour>
        <pt x="62" y="-357" on="1"/>
        <pt x="185" y="24" on="1"/>
        <pt x="329" y="24" on="1"/>
        <pt x="271" y="-357" on="1"/>
      </contour>
    </TTGlyph>
    <TTGlyph name="cent" xMin="82" yMin="-202" xMax="944" yMax="1402">
      <contour>
        <pt x="573" y="-202" on="1"/>
        <pt x="573" y="54" on="1"/>
        <pt x="349" y="71" on="0"/>
        <pt x="82" y="376" on="0"/>
        <pt x="82" y="636" on="1"/>
        <pt x="82" y="761" on="0"/>
        <pt x="160" y="966" on="0"/>
        <pt x="295" y="1100" on="0"/>
        <pt x="471" y="1178" on="0"/>
        <pt x="573" y="1184" on="1"/>
        <pt x="573" y="1402" on="1"/>
        <pt x="674" y="1402" on="1"/>
        <pt x="674" y="1181" on="1"/>
        <pt x="832" y="1168" on="0"/>
        <pt x="934" y="1090" on="1"/>
        <pt x="889" y="916" on="1"/>
        <pt x="851" y="942" on="0"/>
        <pt x="732" y="986" on="0"/>
        <pt x="674" y="992" on="1"/>
        <pt x="674" y="242" on="1"/>
        <pt x="790" y="251" on="0"/>
        <pt x="892" y="323" on="1"/>
        <pt x="944" y="148" on="1"/>
        <pt x="825" y="64" on="0"/>
        <pt x="674" y="54" on="1"/>
        <pt x="674" y="-202" on="1"/>
      </contour>
      <contour>
        <pt x="573" y="247" on="1"/>
        <pt x="573" y="989" on="1"/>
        <pt x="462" y="969" on="0"/>
        <pt x="329" y="787" on="0"/>
        <pt x="329" y="628" on="1"/>
        <pt x="329" y="462" on="0"/>
        <pt x="458" y="269" on="0"/>
      </contour>
    </TTGlyph>
    <TTGlyph name="circumflex" xMin="47" yMin="1163" xMax="756" yMax="1546">
      <contour>
        <pt x="47" y="1163" on="1"/>
        <pt x="297" y="1546" on="1"/>
        <pt x="505" y="1546" on="1"/>
        <pt x="756" y="1163" on="1"/>
        <pt x="572" y="1163" on="1"/>
        <pt x="398" y="1381" on="1"/>
        <pt x="226" y="1163" on="1"/>
      </contour>
    </TTGlyph>
    <TTGlyph name="colon" xMin="100" yMin="-6" xMax="365" yMax="1106">
      <contour>
        <pt x="100" y="-6" on="1"/>
        <pt x="100" y="259" on="1"/>
        <pt x="365" y="259" on="1"/>
        <pt x="365" y="-6" on="1"/>
      </contour>
      <contour>
        <pt x="100" y="841" on="1"/>
        <pt x="100" y="1106" on="1"/>
        <pt x="365" y="1106" on="1"/>
        <pt x="365" y="841" on="1"/>
      </contour>
    </TTGlyph>
    <TTGlyph name="comma" xMin="64" yMin="-283" xMax="402" yMax="232">
      <contour>
        <pt x="64" y="-283" on="1"/>
        <pt x="121" y="-6" on="0"/>
        <pt x="158" y="232" on="1"/>
        <pt x="402" y="232" on="1"/>
        <pt x="399" y="183" on="1"/>
        <pt x="334" y="-43" on="0"/>
        <pt x="241" y="-283" on="1"/>
      </contour>
    </TTGlyph>
    <TTGlyph name="copyright" xMin="89" yMin="-22" xMax="1649" yMax="1505">
      <contour>
        <pt x="854" y="254" on="1"/>
        <pt x="654" y="254" on="0"/>
        <pt x="392" y="531" on="0"/>
        <pt x="392" y="743" on="1"/>
        <pt x="392" y="880" on="0"/>
        <pt x="507" y="1106" on="0"/>
        <pt x="719" y="1238" on="0"/>
        <pt x="853" y="1238" on="1"/>
        <pt x="1038" y="1238" on="0"/>
        <pt x="1160" y="1156" on="1"/>
        <pt x="1111" y="1052" on="1"/>
        <pt x="998" y="1118" on="0"/>
        <pt x="864" y="1118" on="1"/>
        <pt x="715" y="1118" on="0"/>
        <pt x="537" y="911" on="0"/>
        <pt x="537" y="743" on="1"/>
        <pt x="537" y="576" on="0"/>
        <pt x="717" y="374" on="0"/>
        <pt x="869" y="374" on="1"/>
        <pt x="1002" y="374" on="0"/>
        <pt x="1117" y="440" on="1"/>
        <pt x="1161" y="336" on="1"/>
        <pt x="1037" y="254" on="0"/>
      </contour>
      <contour>
        <pt x="867" y="78" on="1"/>
        <pt x="1056" y="78" on="0"/>
        <pt x="1363" y="256" on="0"/>
        <pt x="1533" y="559" on="0"/>
        <pt x="1533" y="741" on="1"/>
        <pt x="1533" y="922" on="0"/>
        <pt x="1363" y="1225" on="0"/>
        <pt x="1055" y="1404" on="0"/>
        <pt x="866" y="1404" on="1"/>
        <pt x="679" y="1404" on="0"/>
        <pt x="374" y="1225" on="0"/>
        <pt x="205" y="923" on="0"/>
        <pt x="205" y="742" on="1"/>
        <pt x="205" y="560" on="0"/>
        <pt x="374" y="257" on="0"/>
        <pt x="679" y="78" on="0"/>
      </contour>
      <contour>
        <pt x="867" y="-22" on="1"/>
        <pt x="711" y="-22" on="0"/>
        <pt x="426" y="92" on="0"/>
        <pt x="214" y="290" on="0"/>
        <pt x="89" y="577" on="0"/>
        <pt x="89" y="905" on="0"/>
        <pt x="214" y="1192" on="0"/>
        <pt x="425" y="1391" on="0"/>
        <pt x="710" y="1505" on="0"/>
        <pt x="866" y="1505" on="1"/>
        <pt x="1023" y="1505" on="0"/>
        <pt x="1310" y="1391" on="0"/>
        <pt x="1523" y="1192" on="0"/>
        <pt x="1649" y="905" on="0"/>
        <pt x="1649" y="577" on="0"/>
        <pt x="1523" y="290" on="0"/>
        <pt x="1311" y="92" on="0"/>
        <pt x="1024" y="-22" on="0"/>
      </contour>
    </TTGlyph>
    <TTGlyph name="currency" xMin="51" yMin="229" xMax="1111" yMax="1236">
      <contour>
        <pt x="1020" y="229" on="1"/>
        <pt x="834" y="402" on="1"/>
        <pt x="721" y="317" on="0"/>
        <pt x="581" y="317" on="1"/>
        <pt x="434" y="317" on="0"/>
        <pt x="327" y="401" on="1"/>
        <pt x="146" y="230" on="1"/>
        <pt x="52" y="322" on="1"/>
        <pt x="237" y="495" on="1"/>
        <pt x="161" y="602" on="0"/>
        <pt x="161" y="732" on="1"/>
        <pt x="161" y="860" on="0"/>
        <pt x="237" y="969" on="1"/>
        <pt x="51" y="1144" on="1"/>
        <pt x="146" y="1236" on="1"/>
        <pt x="329" y="1063" on="1"/>
        <pt x="440" y="1149" on="0"/>
        <pt x="722" y="1149" on="0"/>
        <pt x="834" y="1061" on="1"/>
        <pt x="1020" y="1236" on="1"/>
        <pt x="1111" y="1142" on="1"/>
        <pt x="927" y="969" on="1"/>
        <pt x="1002" y="861" on="0"/>
        <pt x="1002" y="732" on="1"/>
        <pt x="1002" y="601" on="0"/>
        <pt x="928" y="495" on="1"/>
        <pt x="1109" y="323" on="1"/>
      </contour>
      <contour>
        <pt x="581" y="455" on="1"/>
        <pt x="699" y="455" on="0"/>
        <pt x="864" y="617" on="0"/>
        <pt x="864" y="847" on="0"/>
        <pt x="698" y="1010" on="0"/>
        <pt x="581" y="1010" on="1"/>
        <pt x="465" y="1010" on="0"/>
        <pt x="299" y="846" on="0"/>
        <pt x="299" y="732" on="1"/>
        <pt x="299" y="617" on="0"/>
        <pt x="464" y="455" on="0"/>
      </contour>
    </TTGlyph>
    <TTGlyph name="d" xMin="81" yMin="-21" xMax="1124" yMax="1521">
      <contour>
        <pt x="542" y="-21" on="1"/>
        <pt x="327" y="-21" on="0"/>
        <pt x="81" y="295" on="0"/>
        <pt x="81" y="559" on="1"/>
        <pt x="81" y="815" on="0"/>
        <pt x="326" y="1126" on="0"/>
        <pt x="541" y="1126" on="1"/>
        <pt x="775" y="1126" on="0"/>
        <pt x="872" y="960" on="1"/>
        <pt x="862" y="1058" on="0"/>
        <pt x="862" y="1149" on="1"/>
        <pt x="862" y="1504" on="1"/>
        <pt x="1124" y="1521" on="1"/>
        <pt x="1124" y="0" on="1"/>
        <pt x="897" y="0" on="1"/>
        <pt x="868" y="150" on="1"/>
        <pt x="851" y="123" on="0"/>
        <pt x="822" y="84" on="0"/>
        <pt x="766" y="33" on="0"/>
        <pt x="701" y="2" on="0"/>
        <pt x="602" y="-21" on="0"/>
      </contour>
      <contour>
        <pt x="604" y="178" on="1"/>
        <pt x="868" y="178" on="0"/>
        <pt x="872" y="537" on="1"/>
        <pt x="872" y="740" on="0"/>
        <pt x="736" y="926" on="0"/>
        <pt x="601" y="926" on="1"/>
        <pt x="483" y="926" on="0"/>
        <pt x="342" y="737" on="0"/>
        <pt x="342" y="553" on="1"/>
        <pt x="342" y="370" on="0"/>
        <pt x="483" y="178" on="0"/>
      </contour>
    </TTGlyph>
    <TTGlyph name="dagger" xMin="67" yMin="115" xMax="916" yMax="1486">
      <contour>
        <pt x="384" y="115" on="1"/>
        <pt x="384" y="970" on="1"/>
        <pt x="67" y="970" on="1"/>
        <pt x="67" y="1139" on="1"/>
        <pt x="384" y="1139" on="1"/>
        <pt x="384" y="1486" on="1"/>
        <pt x="582" y="1486" on="1"/>
        <pt x="582" y="1139" on="1"/>
        <pt x="916" y="1139" on="1"/>
        <pt x="916" y="970" on="1"/>
        <pt x="572" y="970" on="1"/>
        <pt x="572" y="115" on="1"/>
      </contour>
    </TTGlyph>
    <TTGlyph name="daggerdbl" xMin="126" yMin="-27" xMax="879" yMax="1477">
      <contour>
        <pt x="403" y="-27" on="1"/>
        <pt x="403" y="367" on="1"/>
        <pt x="126" y="367" on="1"/>
        <pt x="126" y="529" on="1"/>
        <pt x="403" y="529" on="1"/>
        <pt x="402" y="960" on="1"/>
        <pt x="129" y="960" on="1"/>
        <pt x="129" y="1123" on="1"/>
        <pt x="402" y="1123" on="1"/>
        <pt x="402" y="1477" on="1"/>
        <pt x="602" y="1477" on="1"/>
        <pt x="602" y="1123" on="1"/>
        <pt x="879" y="1123" on="1"/>
        <pt x="879" y="960" on="1"/>
        <pt x="602" y="960" on="1"/>
        <pt x="603" y="529" on="1"/>
        <pt x="875" y="529" on="1"/>
        <pt x="875" y="367" on="1"/>
        <pt x="603" y="367" on="1"/>
        <pt x="603" y="-27" on="1"/>
      </contour>
    </TTGlyph>
    <TTGlyph name="dcroat" xMin="66" yMin="-21" xMax="1235" yMax="1515">
      <contour>
        <pt x="554" y="-21" on="1"/>
        <pt x="404" y="-19" on="0"/>
        <pt x="180" y="136" on="0"/>
        <pt x="66" y="397" on="0"/>
        <pt x="66" y="564" on="1"/>
        <pt x="66" y="680" on="0"/>
        <pt x="132" y="886" on="0"/>
        <pt x="252" y="1043" on="0"/>
        <pt x="438" y="1135" on="0"/>
        <pt x="550" y="1135" on="1"/>
        <pt x="673" y="1135" on="0"/>
        <pt x="837" y="1039" on="0"/>
        <pt x="874" y="967" on="1"/>
        <pt x="874" y="1209" on="1"/>
        <pt x="589" y="1209" on="1"/>
        <pt x="589" y="1351" on="1"/>
        <pt x="874" y="1351" on="1"/>
        <pt x="874" y="1497" on="1"/>
        <pt x="1129" y="1515" on="1"/>
        <pt x="1129" y="1351" on="1"/>
        <pt x="1235" y="1351" on="1"/>
        <pt x="1235" y="1209" on="1"/>
        <pt x="1129" y="1209" on="1"/>
        <pt x="1129" y="0" on="1"/>
        <pt x="884" y="0" on="1"/>
        <pt x="874" y="155" on="1"/>
        <pt x="829" y="75" on="0"/>
        <pt x="667" y="-21" on="0"/>
      </contour>
      <contour>
        <pt x="596" y="173" on="1"/>
        <pt x="724" y="173" on="0"/>
        <pt x="878" y="358" on="0"/>
        <pt x="878" y="554" on="1"/>
        <pt x="878" y="748" on="0"/>
        <pt x="722" y="941" on="0"/>
        <pt x="596" y="941" on="1"/>
        <pt x="473" y="941" on="0"/>
        <pt x="313" y="749" on="0"/>
        <pt x="313" y="555" on="1"/>
        <pt x="313" y="365" on="0"/>
        <pt x="472" y="173" on="0"/>
      </contour>
    </TTGlyph>
    <TTGlyph name="degree" xMin="111" yMin="870" xMax="742" yMax="1455">
      <contour>
        <pt x="428" y="999" on="1"/>
        <pt x="494" y="999" on="0"/>
        <pt x="591" y="1090" on="0"/>
        <pt x="591" y="1165" on="1"/>
        <pt x="591" y="1238" on="0"/>
        <pt x="494" y="1326" on="0"/>
        <pt x="428" y="1326" on="1"/>
        <pt x="361" y="1326" on="0"/>
        <pt x="263" y="1238" on="0"/>
        <pt x="263" y="1165" on="1"/>
        <pt x="263" y="1090" on="0"/>
        <pt x="361" y="999" on="0"/>
      </contour>
      <contour>
        <pt x="427" y="870" on="1"/>
        <pt x="282" y="870" on="0"/>
        <pt x="111" y="1046" on="0"/>
        <pt x="111" y="1167" on="1"/>
        <pt x="111" y="1287" on="0"/>
        <pt x="282" y="1455" on="0"/>
        <pt x="427" y="1455" on="1"/>
        <pt x="570" y="1455" on="0"/>
        <pt x="742" y="1287" on="0"/>
        <pt x="742" y="1047" on="0"/>
        <pt x="571" y="870" on="0"/>
      </contour>
    </TTGlyph>
    <TTGlyph name="dieresis" xMin="78" yMin="1236" xMax="695" yMax="1490">
      <contour>
        <pt x="78" y="1236" on="1"/>
        <pt x="78" y="1490" on="1"/>
        <pt x="273" y="1490" on="1"/>
        <pt x="273" y="1236" on="1"/>
      </contour>
      <contour>
        <pt x="499" y="1236" on="1"/>
        <pt x="499" y="1490" on="1"/>
        <pt x="695" y="1490" on="1"/>
        <pt x="695" y="1236" on="1"/>
      </contour>
    </TTGlyph>
    <TTGlyph name="divide" xMin="178" yMin="21" xMax="1274" yMax="1134">
      <contour>
        <pt x="590" y="21" on="1"/>
        <pt x="590" y="281" on="1"/>
        <pt x="865" y="281" on="1"/>
        <pt x="865" y="21" on="1"/>
      </contour>
      <contour>
        <pt x="178" y="489" on="1"/>
        <pt x="178" y="676" on="1"/>
        <pt x="1274" y="676" on="1"/>
        <pt x="1274" y="489" on="1"/>
      </contour>
      <contour>
        <pt x="590" y="875" on="1"/>
        <pt x="590" y="1134" on="1"/>
        <pt x="874" y="1134" on="1"/>
        <pt x="874" y="875" on="1"/>
      </contour>
    </TTGlyph>
    <TTGlyph name="dollar" xMin="94" yMin="-212" xMax="1116" yMax="1643">
      <contour>
        <pt x="558" y="-212" on="1"/>
        <pt x="556" y="-20" on="1"/>
        <pt x="301" y="-17" on="0"/>
        <pt x="94" y="102" on="1"/>
        <pt x="160" y="317" on="1"/>
        <pt x="358" y="208" on="0"/>
        <pt x="558" y="202" on="1"/>
        <pt x="558" y="636" on="1"/>
        <pt x="438" y="671" on="0"/>
        <pt x="396" y="688" on="1"/>
        <pt x="101" y="792" on="0"/>
        <pt x="101" y="1076" on="1"/>
        <pt x="101" y="1261" on="0"/>
        <pt x="349" y="1475" on="0"/>
        <pt x="558" y="1489" on="1"/>
        <pt x="558" y="1643" on="1"/>
        <pt x="656" y="1643" on="1"/>
        <pt x="656" y="1491" on="1"/>
        <pt x="896" y="1484" on="0"/>
        <pt x="1075" y="1382" on="1"/>
        <pt x="993" y="1184" on="1"/>
        <pt x="813" y="1265" on="0"/>
        <pt x="656" y="1271" on="1"/>
        <pt x="656" y="878" on="1"/>
        <pt x="664" y="875" on="0"/>
        <pt x="696" y="865" on="0"/>
        <pt x="735" y="853" on="0"/>
        <pt x="742" y="851" on="1"/>
        <pt x="943" y="785" on="0"/>
        <pt x="1116" y="589" on="0"/>
        <pt x="1116" y="414" on="1"/>
        <pt x="1116" y="225" on="0"/>
        <pt x="870" y="3" on="0"/>
        <pt x="656" y="-16" on="1"/>
        <pt x="656" y="-212" on="1"/>
      </contour>
      <contour>
        <pt x="558" y="911" on="1"/>
        <pt x="558" y="1267" on="1"/>
        <pt x="473" y="1256" on="0"/>
        <pt x="385" y="1170" on="0"/>
        <pt x="381" y="1088" on="1"/>
        <pt x="381" y="966" on="0"/>
        <pt x="502" y="929" on="1"/>
        <pt x="516" y="924" on="0"/>
      </contour>
      <contour>
        <pt x="656" y="208" on="1"/>
        <pt x="841" y="238" on="0"/>
        <pt x="841" y="416" on="1"/>
        <pt x="841" y="544" on="0"/>
        <pt x="686" y="596" on="1"/>
        <pt x="683" y="598" on="0"/>
        <pt x="658" y="605" on="0"/>
        <pt x="656" y="606" on="1"/>
      </contour>
    </TTGlyph>
    <TTGlyph name="dotaccent" xMin="157" yMin="1249" xMax="358" yMax="1465">
      <contour>
        <pt x="157" y="1249" on="1"/>
        <pt x="157" y="1465" on="1"/>
        <pt x="358" y="1465" on="1"/>
        <pt x="358" y="1249" on="1"/>
      </contour>
    </TTGlyph>
    <TTGlyph name="dotlessi" xMin="129" yMin="0" xMax="384" yMax="1098">
      <contour>
        <pt x="129" y="0" on="1"/>
        <pt x="129" y="1098" on="1"/>
        <pt x="384" y="1098" on="1"/>
        <pt x="384" y="0" on="1"/>
      </contour>
    </TTGlyph>
    <TTGlyph name="e" xMin="81" yMin="-21" xMax="1077" yMax="1126">
      <contour>
        <pt x="641" y="-21" on="1"/>
        <pt x="376" y="-21" on="0"/>
        <pt x="81" y="284" on="0"/>
        <pt x="81" y="553" on="1"/>
        <pt x="81" y="815" on="0"/>
        <pt x="359" y="1125" on="0"/>
        <pt x="599" y="1126" on="1"/>
        <pt x="826" y="1126" on="0"/>
        <pt x="1077" y="842" on="0"/>
        <pt x="1077" y="607" on="1"/>
        <pt x="1077" y="590" on="0"/>
        <pt x="1076" y="514" on="0"/>
        <pt x="1076" y="496" on="1"/>
        <pt x="345" y="496" on="1"/>
        <pt x="349" y="342" on="0"/>
        <pt x="510" y="173" on="0"/>
        <pt x="651" y="173" on="1"/>
        <pt x="831" y="173" on="0"/>
        <pt x="997" y="267" on="1"/>
        <pt x="1034" y="81" on="1"/>
        <pt x="869" y="-21" on="0"/>
      </contour>
      <contour>
        <pt x="350" y="661" on="1"/>
        <pt x="830" y="661" on="1"/>
        <pt x="830" y="795" on="0"/>
        <pt x="708" y="939" on="0"/>
        <pt x="600" y="939" on="1"/>
        <pt x="499" y="939" on="0"/>
        <pt x="360" y="799" on="0"/>
      </contour>
    </TTGlyph>
    <TTGlyph name="eacute" xMin="81" yMin="-21" xMax="1077" yMax="1631">
      <component glyphName="acute" x="310" y="53" flags="0x1004"/>
      <component glyphName="e" x="0" y="0" flags="0x1204"/>
    </TTGlyph>
    <TTGlyph name="ecaron" xMin="81" yMin="-21" xMax="1077" yMax="1601">
      <component glyphName="caron" x="176" y="55" flags="0x1004"/>
      <component glyphName="e" x="0" y="0" flags="0x1204"/>
    </TTGlyph>
    <TTGlyph name="ecircumflex" xMin="81" yMin="-21" xMax="1077" yMax="1631">
      <component glyphName="circumflex" x="178" y="85" flags="0x1004"/>
      <component glyphName="e" x="0" y="0" flags="0x1204"/>
    </TTGlyph>
    <TTGlyph name="edieresis" xMin="81" yMin="-21" xMax="1077" yMax="1502">
      <component glyphName="dieresis" x="192" y="12" flags="0x1004"/>
      <component glyphName="e" x="0" y="0" flags="0x1204"/>
    </TTGlyph>
    <TTGlyph name="edotaccent" xMin="81" yMin="-21" xMax="1077" yMax="1464">
      <component glyphName="uni0307" x="322" y="26" flags="0x1004"/>
      <component glyphName="e" x="0" y="0" flags="0x1204"/>
    </TTGlyph>
    <TTGlyph name="egrave" xMin="81" yMin="-21" xMax="1077" yMax="1631">
      <component glyphName="grave" x="174" y="53" flags="0x1004"/>
      <component glyphName="e" x="0" y="0" flags="0x1204"/>
    </TTGlyph>
    <TTGlyph name="eight" xMin="64" yMin="-21" xMax="1090" yMax="1490">
      <contour>
        <pt x="578" y="-21" on="1"/>
        <pt x="435" y="-21" on="0"/>
        <pt x="206" y="70" on="0"/>
        <pt x="64" y="259" on="0"/>
        <pt x="64" y="389" on="1"/>
        <pt x="64" y="652" on="0"/>
        <pt x="323" y="767" on="1"/>
        <pt x="92" y="877" on="0"/>
        <pt x="92" y="1111" on="1"/>
        <pt x="92" y="1203" on="0"/>
        <pt x="168" y="1349" on="0"/>
        <pt x="301" y="1442" on="0"/>
        <pt x="476" y="1490" on="0"/>
        <pt x="578" y="1490" on="1"/>
        <pt x="790" y="1490" on="0"/>
        <pt x="1063" y="1292" on="0"/>
        <pt x="1063" y="1111" on="1"/>
        <pt x="1063" y="880" on="0"/>
        <pt x="849" y="767" on="1"/>
        <pt x="1090" y="650" on="0"/>
        <pt x="1090" y="388" on="1"/>
        <pt x="1090" y="258" on="0"/>
        <pt x="949" y="69" on="0"/>
        <pt x="720" y="-21" on="0"/>
      </contour>
      <contour>
        <pt x="452" y="161" on="0"/>
        <pt x="704" y="161" on="0"/>
        <pt x="846" y="283" on="0"/>
        <pt x="846" y="394" on="1"/>
        <pt x="846" y="504" on="0"/>
        <pt x="698" y="648" on="0"/>
        <pt x="578" y="679" on="1"/>
        <pt x="455" y="648" on="0"/>
        <pt x="308" y="504" on="0"/>
        <pt x="308" y="393" on="1"/>
        <pt x="308" y="283" on="0"/>
      </contour>
      <contour>
        <pt x="578" y="835" on="1"/>
        <pt x="701" y="863" on="0"/>
        <pt x="833" y="1002" on="0"/>
        <pt x="833" y="1110" on="1"/>
        <pt x="833" y="1200" on="0"/>
        <pt x="689" y="1310" on="0"/>
        <pt x="578" y="1310" on="1"/>
        <pt x="468" y="1310" on="0"/>
        <pt x="322" y="1200" on="0"/>
        <pt x="322" y="1110" on="1"/>
        <pt x="322" y="1002" on="0"/>
        <pt x="458" y="862" on="0"/>
      </contour>
    </TTGlyph>
    <TTGlyph name="emacron" xMin="81" yMin="-21" xMax="1077" yMax="1401">
      <component glyphName="macron" x="118" y="-129" flags="0x1004"/>
      <component glyphName="e" x="0" y="0" flags="0x1204"/>
    </TTGlyph>
    <TTGlyph name="emdash" xMin="30" yMin="461" xMax="2116" yMax="646">
      <contour>
        <pt x="30" y="461" on="1"/>
        <pt x="30" y="646" on="1"/>
        <pt x="2116" y="646" on="1"/>
        <pt x="2116" y="461" on="1"/>
      </contour>
    </TTGlyph>
    <TTGlyph name="endash" xMin="89" yMin="461" xMax="1188" yMax="646">
      <contour>
        <pt x="89" y="461" on="1"/>
        <pt x="89" y="646" on="1"/>
        <pt x="1188" y="646" on="1"/>
        <pt x="1188" y="461" on="1"/>
      </contour>
    </TTGlyph>
    <TTGlyph name="eogonek" xMin="81" yMin="-433" xMax="1077" yMax="1126">
      <component glyphName="ogonek" x="382" y="-41" flags="0x1004"/>
      <component glyphName="e" x="0" y="0" flags="0x1204"/>
    </TTGlyph>
    <TTGlyph name="equal" xMin="93" yMin="357" xMax="1111" yMax="947">
      <contour>
        <pt x="93" y="357" on="1"/>
        <pt x="93" y="548" on="1"/>
        <pt x="1111" y="548" on="1"/>
        <pt x="1111" y="357" on="1"/>
      </contour>
      <contour>
        <pt x="93" y="754" on="1"/>
        <pt x="93" y="947" on="1"/>
        <pt x="1111" y="947" on="1"/>
        <pt x="1111" y="754" on="1"/>
      </contour>
    </TTGlyph>
    <TTGlyph name="eth" xMin="84" yMin="-21" xMax="1159" yMax="1509">
      <contour>
        <pt x="626" y="-21" on="1"/>
        <pt x="383" y="-21" on="0"/>
        <pt x="84" y="250" on="0"/>
        <pt x="84" y="467" on="1"/>
        <pt x="84" y="695" on="0"/>
        <pt x="353" y="953" on="0"/>
        <pt x="581" y="953" on="1"/>
        <pt x="636" y="953" on="0"/>
        <pt x="730" y="924" on="1"/>
        <pt x="722" y="939" on="0"/>
        <pt x="536" y="1161" on="0"/>
        <pt x="505" y="1193" on="1"/>
        <pt x="256" y="1092" on="1"/>
        <pt x="189" y="1226" on="1"/>
        <pt x="394" y="1309" on="1"/>
        <pt x="191" y="1509" on="1"/>
        <pt x="489" y="1509" on="1"/>
        <pt x="608" y="1396" on="1"/>
        <pt x="858" y="1496" on="1"/>
        <pt x="927" y="1364" on="1"/>
        <pt x="716" y="1280" on="1"/>
        <pt x="940" y="1032" on="0"/>
        <pt x="1047" y="858" on="1"/>
        <pt x="1159" y="674" on="0"/>
        <pt x="1159" y="481" on="1"/>
        <pt x="1159" y="376" on="0"/>
        <pt x="1094" y="197" on="0"/>
        <pt x="966" y="58" on="0"/>
        <pt x="759" y="-21" on="0"/>
      </contour>
      <contour>
        <pt x="625" y="178" on="1"/>
        <pt x="766" y="178" on="0"/>
        <pt x="919" y="337" on="0"/>
        <pt x="919" y="472" on="1"/>
        <pt x="919" y="608" on="0"/>
        <pt x="762" y="774" on="0"/>
        <pt x="476" y="774" on="0"/>
        <pt x="323" y="615" on="0"/>
        <pt x="323" y="478" on="1"/>
        <pt x="323" y="344" on="0"/>
        <pt x="483" y="178" on="0"/>
      </contour>
    </TTGlyph>
    <TTGlyph name="exclam" xMin="69" yMin="-18" xMax="377" yMax="1458">
      <contour>
        <pt x="193" y="449" on="1"/>
        <pt x="108" y="1162" on="1"/>
        <pt x="108" y="1458" on="1"/>
        <pt x="349" y="1458" on="1"/>
        <pt x="349" y="1162" on="1"/>
        <pt x="259" y="449" on="1"/>
      </contour>
      <contour>
        <pt x="224" y="-18" on="1"/>
        <pt x="159" y="-18" on="0"/>
        <pt x="69" y="72" on="0"/>
        <pt x="69" y="134" on="1"/>
        <pt x="69" y="197" on="0"/>
        <pt x="159" y="289" on="0"/>
        <pt x="224" y="289" on="1"/>
        <pt x="288" y="289" on="0"/>
        <pt x="377" y="197" on="0"/>
        <pt x="377" y="134" on="1"/>
        <pt x="377" y="72" on="0"/>
        <pt x="288" y="-18" on="0"/>
      </contour>
    </TTGlyph>
    <TTGlyph name="exclamdown" xMin="69" yMin="-354" xMax="377" yMax="1122">
      <component glyphName="exclam" x="446" y="1104" scale="-1.0" flags="0x1004"/>
    </TTGlyph>
    <TTGlyph name="f" xMin="29" yMin="0" xMax="772" yMax="1552">
      <contour>
        <pt x="203" y="0" on="1"/>
        <pt x="203" y="925" on="1"/>
        <pt x="29" y="925" on="1"/>
        <pt x="46" y="1079" on="1"/>
        <pt x="203" y="1099" on="1"/>
        <pt x="203" y="1160" on="1"/>
        <pt x="203" y="1260" on="0"/>
        <pt x="240" y="1402" on="0"/>
        <pt x="324" y="1503" on="0"/>
        <pt x="465" y="1552" on="0"/>
        <pt x="568" y="1552" on="1"/>
        <pt x="668" y="1552" on="0"/>
        <pt x="772" y="1533" on="1"/>
        <pt x="749" y="1338" on="1"/>
        <pt x="667" y="1349" on="0"/>
        <pt x="620" y="1349" on="1"/>
        <pt x="536" y="1349" on="0"/>
        <pt x="465" y="1268" on="0"/>
        <pt x="465" y="1174" on="1"/>
        <pt x="465" y="1099" on="1"/>
        <pt x="723" y="1099" on="1"/>
        <pt x="723" y="925" on="1"/>
        <pt x="465" y="925" on="1"/>
        <pt x="465" y="0" on="1"/>
      </contour>
    </TTGlyph>
    <TTGlyph name="five" xMin="105" yMin="-21" xMax="1057" yMax="1458">
      <contour>
        <pt x="542" y="-21" on="1"/>
        <pt x="443" y="-21" on="0"/>
        <pt x="233" y="44" on="0"/>
        <pt x="123" y="103" on="0"/>
        <pt x="105" y="119" on="1"/>
        <pt x="185" y="307" on="1"/>
        <pt x="204" y="292" on="0"/>
        <pt x="277" y="247" on="0"/>
        <pt x="440" y="189" on="0"/>
        <pt x="515" y="189" on="1"/>
        <pt x="655" y="189" on="0"/>
        <pt x="799" y="345" on="0"/>
        <pt x="799" y="471" on="1"/>
        <pt x="799" y="590" on="0"/>
        <pt x="668" y="734" on="0"/>
        <pt x="564" y="734" on="1"/>
        <pt x="440" y="734" on="0"/>
        <pt x="342" y="626" on="1"/>
        <pt x="167" y="660" on="1"/>
        <pt x="205" y="1458" on="1"/>
        <pt x="1001" y="1458" on="1"/>
        <pt x="986" y="1252" on="1"/>
        <pt x="437" y="1252" on="1"/>
        <pt x="437" y="1234" on="0"/>
        <pt x="424" y="909" on="0"/>
        <pt x="423" y="890" on="1"/>
        <pt x="511" y="937" on="0"/>
        <pt x="608" y="937" on="1"/>
        <pt x="810" y="937" on="0"/>
        <pt x="1057" y="677" on="0"/>
        <pt x="1057" y="468" on="1"/>
        <pt x="1057" y="246" on="0"/>
        <pt x="786" y="-21" on="0"/>
      </contour>
    </TTGlyph>
    <TTGlyph name="florin" xMin="33" yMin="-336" xMax="1012" yMax="1468">
      <contour>
        <pt x="157" y="-336" on="1"/>
        <pt x="132" y="-336" on="0"/>
        <pt x="33" y="-314" on="1"/>
        <pt x="50" y="-125" on="1"/>
        <pt x="137" y="-150" on="0"/>
        <pt x="145" y="-150" on="1"/>
        <pt x="202" y="-150" on="0"/>
        <pt x="262" y="-55" on="0"/>
        <pt x="284" y="32" on="1"/>
        <pt x="312" y="138" on="0"/>
        <pt x="364" y="393" on="0"/>
        <pt x="422" y="712" on="0"/>
        <pt x="439" y="795" on="1"/>
        <pt x="282" y="795" on="1"/>
        <pt x="295" y="968" on="1"/>
        <pt x="473" y="968" on="1"/>
        <pt x="492" y="1098" on="1"/>
        <pt x="545" y="1468" on="0"/>
        <pt x="851" y="1468" on="1"/>
        <pt x="884" y="1468" on="0"/>
        <pt x="996" y="1448" on="0"/>
        <pt x="1012" y="1443" on="1"/>
        <pt x="1001" y="1242" on="1"/>
        <pt x="987" y="1248" on="0"/>
        <pt x="897" y="1275" on="0"/>
        <pt x="875" y="1275" on="1"/>
        <pt x="805" y="1275" on="0"/>
        <pt x="745" y="1211" on="0"/>
        <pt x="731" y="1136" on="1"/>
        <pt x="699" y="968" on="1"/>
        <pt x="893" y="968" on="1"/>
        <pt x="880" y="793" on="1"/>
        <pt x="667" y="793" on="1"/>
        <pt x="537" y="128" on="1"/>
        <pt x="526" y="72" on="0"/>
        <pt x="508" y="-4" on="0"/>
        <pt x="474" y="-110" on="0"/>
        <pt x="438" y="-181" on="0"/>
        <pt x="380" y="-259" on="0"/>
        <pt x="311" y="-306" on="0"/>
        <pt x="214" y="-336" on="0"/>
      </contour>
    </TTGlyph>
    <TTGlyph name="four" xMin="92" yMin="0" xMax="1198" yMax="1458">
      <contour>
        <pt x="753" y="0" on="1"/>
        <pt x="753" y="325" on="1"/>
        <pt x="92" y="325" on="1"/>
        <pt x="92" y="503" on="1"/>
        <pt x="685" y="1458" on="1"/>
        <pt x="1018" y="1458" on="1"/>
        <pt x="1018" y="523" on="1"/>
        <pt x="1198" y="523" on="1"/>
        <pt x="1185" y="325" on="1"/>
        <pt x="1018" y="325" on="1"/>
        <pt x="1018" y="0" on="1"/>
      </contour>
      <contour>
        <pt x="352" y="522" on="1"/>
        <pt x="753" y="522" on="1"/>
        <pt x="753" y="1202" on="1"/>
      </contour>
    </TTGlyph>
    <TTGlyph name="fraction" xMin="41" yMin="0" xMax="1137" yMax="1471">
      <contour>
        <pt x="41" y="0" on="1"/>
        <pt x="941" y="1471" on="1"/>
        <pt x="1137" y="1471" on="1"/>
        <pt x="239" y="0" on="1"/>
      </contour>
    </TTGlyph>
    <TTGlyph name="g" xMin="75" yMin="-492" xMax="1142" yMax="1126">
      <contour>
        <pt x="353" y="-492" on="1"/>
        <pt x="338" y="-280" on="1"/>
        <pt x="471" y="-280" on="1"/>
        <pt x="702" y="-280" on="0"/>
        <pt x="886" y="-157" on="0"/>
        <pt x="886" y="7" on="1"/>
        <pt x="886" y="74" on="0"/>
        <pt x="880" y="152" on="1"/>
        <pt x="854" y="116" on="0"/>
        <pt x="807" y="69" on="0"/>
        <pt x="736" y="23" on="0"/>
        <pt x="637" y="0" on="0"/>
        <pt x="574" y="0" on="1"/>
        <pt x="356" y="0" on="0"/>
        <pt x="75" y="314" on="0"/>
        <pt x="75" y="562" on="1"/>
        <pt x="75" y="694" on="0"/>
        <pt x="153" y="911" on="0"/>
        <pt x="287" y="1051" on="0"/>
        <pt x="462" y="1126" on="0"/>
        <pt x="561" y="1126" on="1"/>
        <pt x="782" y="1126" on="0"/>
        <pt x="890" y="965" on="1"/>
        <pt x="908" y="1099" on="1"/>
        <pt x="1142" y="1099" on="1"/>
        <pt x="1142" y="78" on="1"/>
        <pt x="1142" y="-4" on="0"/>
        <pt x="1126" y="-135" on="0"/>
        <pt x="1086" y="-256" on="0"/>
        <pt x="1021" y="-346" on="0"/>
        <pt x="923" y="-420" on="0"/>
        <pt x="790" y="-467" on="0"/>
        <pt x="614" y="-492" on="0"/>
        <pt x="504" y="-492" on="1"/>
      </contour>
      <contour>
        <pt x="616" y="183" on="1"/>
        <pt x="887" y="183" on="0"/>
        <pt x="890" y="546" on="1"/>
        <pt x="890" y="584" on="1"/>
        <pt x="888" y="747" on="0"/>
        <pt x="756" y="925" on="0"/>
        <pt x="629" y="926" on="1"/>
        <pt x="485" y="926" on="0"/>
        <pt x="337" y="729" on="0"/>
        <pt x="337" y="562" on="1"/>
        <pt x="337" y="401" on="0"/>
        <pt x="486" y="183" on="0"/>
      </contour>
    </TTGlyph>
    <TTGlyph name="gbreve" xMin="75" yMin="-492" xMax="1142" yMax="1500">
      <component glyphName="breve" x="256" y="19" flags="0x1004"/>
      <component glyphName="g" x="0" y="0" flags="0x1204"/>
    </TTGlyph>
    <TTGlyph name="gcircumflex" xMin="75" yMin="-492" xMax="1142" yMax="1631">
      <component glyphName="circumflex" x="207" y="85" flags="0x1004"/>
      <component glyphName="g" x="0" y="0" flags="0x1204"/>
    </TTGlyph>
    <TTGlyph name="gcommaaccent" xMin="75" yMin="-492" xMax="1142" yMax="1730">
      <contour>
        <pt x="353" y="-492" on="1"/>
        <pt x="338" y="-280" on="1"/>
        <pt x="471" y="-280" on="1"/>
        <pt x="702" y="-280" on="0"/>
        <pt x="886" y="-157" on="0"/>
        <pt x="886" y="7" on="1"/>
        <pt x="886" y="74" on="0"/>
        <pt x="880" y="152" on="1"/>
        <pt x="854" y="116" on="0"/>
        <pt x="807" y="69" on="0"/>
        <pt x="736" y="23" on="0"/>
        <pt x="637" y="0" on="0"/>
        <pt x="574" y="0" on="1"/>
        <pt x="356" y="0" on="0"/>
        <pt x="75" y="314" on="0"/>
        <pt x="75" y="562" on="1"/>
        <pt x="75" y="694" on="0"/>
        <pt x="153" y="911" on="0"/>
        <pt x="287" y="1051" on="0"/>
        <pt x="462" y="1126" on="0"/>
        <pt x="561" y="1126" on="1"/>
        <pt x="782" y="1126" on="0"/>
        <pt x="890" y="965" on="1"/>
        <pt x="908" y="1099" on="1"/>
        <pt x="1142" y="1099" on="1"/>
        <pt x="1142" y="78" on="1"/>
        <pt x="1142" y="-4" on="0"/>
        <pt x="1126" y="-135" on="0"/>
        <pt x="1086" y="-256" on="0"/>
        <pt x="1021" y="-346" on="0"/>
        <pt x="923" y="-420" on="0"/>
        <pt x="790" y="-467" on="0"/>
        <pt x="614" y="-492" on="0"/>
        <pt x="504" y="-492" on="1"/>
      </contour>
      <contour>
        <pt x="616" y="183" on="1"/>
        <pt x="887" y="183" on="0"/>
        <pt x="890" y="546" on="1"/>
        <pt x="890" y="584" on="1"/>
        <pt x="888" y="747" on="0"/>
        <pt x="756" y="925" on="0"/>
        <pt x="629" y="926" on="1"/>
        <pt x="485" y="926" on="0"/>
        <pt x="337" y="729" on="0"/>
        <pt x="337" y="562" on="1"/>
        <pt x="337" y="401" on="0"/>
        <pt x="486" y="183" on="0"/>
      </contour>
      <contour>
        <pt x="445" y="1213" on="1"/>
        <pt x="610" y="1730" on="1"/>
        <pt x="775" y="1730" on="1"/>
        <pt x="666" y="1213" on="1"/>
      </contour>
    </TTGlyph>
    <TTGlyph name="gdotaccent" xMin="75" yMin="-492" xMax="1142" yMax="1464">
      <component glyphName="uni0307" x="351" y="26" flags="0x1004"/>
      <component glyphName="g" x="0" y="0" flags="0x1204"/>
    </TTGlyph>
    <TTGlyph name="germandbls" xMin="108" yMin="0" xMax="1202" yMax="1490">
      <contour>
        <pt x="108" y="0" on="1"/>
        <pt x="108" y="1024" on="1"/>
        <pt x="108" y="1246" on="0"/>
        <pt x="353" y="1490" on="0"/>
        <pt x="583" y="1490" on="1"/>
        <pt x="676" y="1490" on="0"/>
        <pt x="837" y="1447" on="0"/>
        <pt x="963" y="1363" on="0"/>
        <pt x="1035" y="1229" on="0"/>
        <pt x="1035" y="1144" on="1"/>
        <pt x="1035" y="1083" on="0"/>
        <pt x="993" y="982" on="0"/>
        <pt x="896" y="892" on="0"/>
        <pt x="836" y="849" on="0"/>
        <pt x="769" y="808" on="1"/>
        <pt x="760" y="802" on="0"/>
        <pt x="755" y="799" on="1"/>
        <pt x="777" y="786" on="0"/>
        <pt x="871" y="737" on="0"/>
        <pt x="929" y="705" on="0"/>
        <pt x="1017" y="650" on="0"/>
        <pt x="1074" y="604" on="0"/>
        <pt x="1139" y="538" on="0"/>
        <pt x="1177" y="473" on="0"/>
        <pt x="1202" y="389" on="0"/>
        <pt x="1202" y="344" on="1"/>
        <pt x="1202" y="229" on="0"/>
        <pt x="1093" y="71" on="0"/>
        <pt x="913" y="0" on="0"/>
        <pt x="794" y="0" on="1"/>
        <pt x="502" y="0" on="1"/>
        <pt x="527" y="179" on="1"/>
        <pt x="767" y="179" on="1"/>
        <pt x="851" y="179" on="0"/>
        <pt x="943" y="268" on="0"/>
        <pt x="943" y="345" on="1"/>
        <pt x="943" y="391" on="0"/>
        <pt x="900" y="470" on="0"/>
        <pt x="816" y="536" on="0"/>
        <pt x="739" y="581" on="0"/>
        <pt x="619" y="644" on="0"/>
        <pt x="589" y="663" on="1"/>
        <pt x="502" y="716" on="0"/>
        <pt x="502" y="786" on="1"/>
        <pt x="502" y="849" on="0"/>
        <pt x="573" y="903" on="1"/>
        <pt x="591" y="916" on="0"/>
        <pt x="668" y="969" on="0"/>
        <pt x="710" y="1002" on="0"/>
        <pt x="761" y="1053" on="0"/>
        <pt x="785" y="1110" on="0"/>
        <pt x="785" y="1144" on="1"/>
        <pt x="785" y="1217" on="0"/>
        <pt x="672" y="1299" on="0"/>
        <pt x="582" y="1299" on="1"/>
        <pt x="516" y="1299" on="0"/>
        <pt x="428" y="1260" on="0"/>
        <pt x="381" y="1182" on="0"/>
        <pt x="363" y="1085" on="0"/>
        <pt x="363" y="1016" on="1"/>
        <pt x="363" y="0" on="1"/>
      </contour>
    </TTGlyph>
    <TTGlyph name="grave" xMin="-8" yMin="1195" xMax="486" yMax="1578">
      <contour>
        <pt x="323" y="1195" on="1"/>
        <pt x="-8" y="1578" on="1"/>
        <pt x="298" y="1578" on="1"/>
        <pt x="486" y="1195" on="1"/>
      </contour>
    </TTGlyph>
    <TTGlyph name="greater" xMin="119" yMin="197" xMax="1086" yMax="1253">
      <contour>
        <pt x="119" y="197" on="1"/>
        <pt x="119" y="403" on="1"/>
        <pt x="823" y="712" on="1"/>
        <pt x="119" y="1047" on="1"/>
        <pt x="119" y="1253" on="1"/>
        <pt x="1086" y="769" on="1"/>
        <pt x="1086" y="645" on="1"/>
      </contour>
    </TTGlyph>
    <TTGlyph name="greaterequal" xMin="145" yMin="2" xMax="1094" yMax="1274">
      <contour>
        <pt x="151" y="225" on="1"/>
        <pt x="151" y="415" on="1"/>
        <pt x="850" y="743" on="1"/>
        <pt x="152" y="1084" on="1"/>
        <pt x="152" y="1274" on="1"/>
        <pt x="1090" y="801" on="1"/>
        <pt x="1090" y="686" on="1"/>
      </contour>
      <contour>
        <pt x="145" y="2" on="1"/>
        <pt x="145" y="158" on="1"/>
        <pt x="1094" y="157" on="1"/>
        <pt x="1094" y="2" on="1"/>
      </contour>
    </TTGlyph>
    <TTGlyph name="guillemotleft" xMin="74" yMin="136" xMax="1015" yMax="987">
      <contour>
        <pt x="388" y="136" on="1"/>
        <pt x="74" y="546" on="1"/>
        <pt x="84" y="589" on="1"/>
        <pt x="391" y="987" on="1"/>
        <pt x="598" y="934" on="1"/>
        <pt x="318" y="562" on="1"/>
        <pt x="593" y="190" on="1"/>
      </contour>
      <contour>
        <pt x="812" y="136" on="1"/>
        <pt x="489" y="558" on="1"/>
        <pt x="814" y="987" on="1"/>
        <pt x="1015" y="934" on="1"/>
        <pt x="741" y="562" on="1"/>
        <pt x="1011" y="190" on="1"/>
      </contour>
    </TTGlyph>
    <TTGlyph name="guillemotright" xMin="113" yMin="136" xMax="1071" yMax="987">
      <contour>
        <pt x="314" y="136" on="1"/>
        <pt x="113" y="190" on="1"/>
        <pt x="387" y="562" on="1"/>
        <pt x="116" y="934" on="1"/>
        <pt x="316" y="987" on="1"/>
        <pt x="640" y="565" on="1"/>
      </contour>
      <contour>
        <pt x="749" y="136" on="1"/>
        <pt x="545" y="190" on="1"/>
        <pt x="822" y="562" on="1"/>
        <pt x="550" y="934" on="1"/>
        <pt x="753" y="987" on="1"/>
        <pt x="1071" y="565" on="1"/>
      </contour>
    </TTGlyph>
    <TTGlyph name="guilsinglleft" xMin="55" yMin="174" xMax="529" yMax="965">
      <contour>
        <pt x="321" y="174" on="1"/>
        <pt x="55" y="568" on="1"/>
        <pt x="327" y="965" on="1"/>
        <pt x="529" y="965" on="1"/>
        <pt x="268" y="568" on="1"/>
        <pt x="522" y="174" on="1"/>
      </contour>
    </TTGlyph>
    <TTGlyph name="guilsinglright" xMin="56" yMin="174" xMax="531" yMax="965">
      <contour>
        <pt x="56" y="174" on="1"/>
        <pt x="316" y="569" on="1"/>
        <pt x="63" y="965" on="1"/>
        <pt x="263" y="965" on="1"/>
        <pt x="531" y="569" on="1"/>
        <pt x="257" y="174" on="1"/>
      </contour>
    </TTGlyph>
    <TTGlyph name="h" xMin="133" yMin="0" xMax="1128" yMax="1521">
      <contour>
        <pt x="133" y="0" on="1"/>
        <pt x="133" y="1504" on="1"/>
        <pt x="395" y="1521" on="1"/>
        <pt x="395" y="1204" on="1"/>
        <pt x="395" y="1181" on="0"/>
        <pt x="389" y="972" on="0"/>
        <pt x="389" y="970" on="1"/>
        <pt x="520" y="1126" on="0"/>
        <pt x="741" y="1126" on="1"/>
        <pt x="925" y="1126" on="0"/>
        <pt x="1128" y="915" on="0"/>
        <pt x="1128" y="696" on="1"/>
        <pt x="1128" y="0" on="1"/>
        <pt x="866" y="0" on="1"/>
        <pt x="866" y="667" on="1"/>
        <pt x="866" y="802" on="0"/>
        <pt x="780" y="928" on="0"/>
        <pt x="677" y="928" on="1"/>
        <pt x="589" y="928" on="0"/>
        <pt x="453" y="839" on="0"/>
        <pt x="419" y="769" on="1"/>
        <pt x="395" y="677" on="0"/>
        <pt x="395" y="529" on="1"/>
        <pt x="395" y="0" on="1"/>
      </contour>
    </TTGlyph>
    <TTGlyph name="hbar" xMin="5" yMin="0" xMax="1094" yMax="1515">
      <contour>
        <pt x="107" y="0" on="1"/>
        <pt x="107" y="1225" on="1"/>
        <pt x="5" y="1225" on="1"/>
        <pt x="5" y="1361" on="1"/>
        <pt x="107" y="1361" on="1"/>
        <pt x="107" y="1496" on="1"/>
        <pt x="361" y="1515" on="1"/>
        <pt x="361" y="1361" on="1"/>
        <pt x="659" y="1361" on="1"/>
        <pt x="659" y="1225" on="1"/>
        <pt x="361" y="1225" on="1"/>
        <pt x="361" y="973" on="1"/>
        <pt x="500" y="1120" on="0"/>
        <pt x="721" y="1120" on="1"/>
        <pt x="803" y="1120" on="0"/>
        <pt x="935" y="1071" on="0"/>
        <pt x="1038" y="967" on="0"/>
        <pt x="1094" y="789" on="0"/>
        <pt x="1094" y="667" on="1"/>
        <pt x="1094" y="0" on="1"/>
        <pt x="840" y="0" on="1"/>
        <pt x="840" y="654" on="1"/>
        <pt x="840" y="801" on="0"/>
        <pt x="766" y="927" on="0"/>
        <pt x="660" y="927" on="1"/>
        <pt x="564" y="927" on="0"/>
        <pt x="400" y="821" on="0"/>
        <pt x="361" y="745" on="1"/>
        <pt x="361" y="0" on="1"/>
      </contour>
    </TTGlyph>
    <TTGlyph name="hcircumflex" xMin="133" yMin="0" xMax="1128" yMax="2026">
      <component glyphName="circumflex" x="229" y="480" flags="0x1004"/>
      <component glyphName="h" x="0" y="0" flags="0x1204"/>
    </TTGlyph>
    <TTGlyph name="hungarumlaut" xMin="150" yMin="1155" xMax="933" yMax="1516">
      <contour>
        <pt x="150" y="1155" on="1"/>
        <pt x="396" y="1516" on="1"/>
        <pt x="622" y="1516" on="1"/>
        <pt x="284" y="1155" on="1"/>
      </contour>
      <contour>
        <pt x="461" y="1155" on="1"/>
        <pt x="708" y="1516" on="1"/>
        <pt x="933" y="1516" on="1"/>
        <pt x="595" y="1155" on="1"/>
      </contour>
    </TTGlyph>
    <TTGlyph name="hyphen" xMin="70" yMin="445" xMax="606" yMax="649">
      <contour>
        <pt x="70" y="445" on="1"/>
        <pt x="70" y="649" on="1"/>
        <pt x="606" y="649" on="1"/>
        <pt x="606" y="445" on="1"/>
      </contour>
    </TTGlyph>
    <TTGlyph name="i" xMin="139" yMin="0" xMax="402" yMax="1483">
      <contour>
        <pt x="139" y="0" on="1"/>
        <pt x="139" y="1099" on="1"/>
        <pt x="401" y="1099" on="1"/>
        <pt x="401" y="0" on="1"/>
      </contour>
      <contour>
        <pt x="139" y="1259" on="1"/>
        <pt x="139" y="1483" on="1"/>
        <pt x="402" y="1483" on="1"/>
        <pt x="402" y="1259" on="1"/>
      </contour>
    </TTGlyph>
    <TTGlyph name="iacute" xMin="129" yMin="0" xMax="649" yMax="1631">
      <component glyphName="acute" x="-12" y="53" flags="0x1004"/>
      <component glyphName="dotlessi" x="0" y="0" flags="0x1204"/>
    </TTGlyph>
    <TTGlyph name="ibreve" xMin="-35" yMin="0" xMax="547" yMax="1500">
      <component glyphName="breve" x="-96" y="19" flags="0x1004"/>
      <component glyphName="dotlessi" x="0" y="0" flags="0x1204"/>
    </TTGlyph>
    <TTGlyph name="icircumflex" xMin="-98" yMin="0" xMax="611" yMax="1631">
      <component glyphName="circumflex" x="-145" y="85" flags="0x1004"/>
      <component glyphName="dotlessi" x="0" y="0" flags="0x1204"/>
    </TTGlyph>
    <TTGlyph name="idieresis" xMin="-52" yMin="0" xMax="565" yMax="1502">
      <component glyphName="dieresis" x="-130" y="12" flags="0x1004"/>
      <component glyphName="dotlessi" x="0" y="0" flags="0x1204"/>
    </TTGlyph>
    <TTGlyph name="igrave" xMin="-156" yMin="0" xMax="384" yMax="1631">
      <component glyphName="grave" x="-148" y="53" flags="0x1004"/>
      <component glyphName="dotlessi" x="0" y="0" flags="0x1204"/>
    </TTGlyph>
    <TTGlyph name="ij" xMin="139" yMin="-427" xMax="959" yMax="1483">
      <component glyphName="j" x="533" y="0" flags="0x1004"/>
      <component glyphName="i" x="0" y="0" flags="0x1004"/>
    </TTGlyph>
    <TTGlyph name="imacron" xMin="-86" yMin="0" xMax="600" yMax="1401">
      <component glyphName="macron" x="-204" y="-129" flags="0x1004"/>
      <component glyphName="dotlessi" x="0" y="0" flags="0x1204"/>
    </TTGlyph>
    <TTGlyph name="infinity" xMin="101" yMin="241" xMax="1595" yMax="996">
      <contour>
        <pt x="470" y="241" on="1"/>
        <pt x="306" y="241" on="0"/>
        <pt x="101" y="472" on="0"/>
        <pt x="101" y="641" on="1"/>
        <pt x="101" y="796" on="0"/>
        <pt x="315" y="995" on="0"/>
        <pt x="487" y="995" on="1"/>
        <pt x="546" y="995" on="0"/>
        <pt x="653" y="955" on="0"/>
        <pt x="745" y="877" on="0"/>
        <pt x="811" y="803" on="0"/>
        <pt x="850" y="750" on="1"/>
        <pt x="889" y="804" on="0"/>
        <pt x="957" y="880" on="0"/>
        <pt x="1051" y="957" on="0"/>
        <pt x="1165" y="996" on="0"/>
        <pt x="1230" y="996" on="1"/>
        <pt x="1395" y="996" on="0"/>
        <pt x="1595" y="790" on="0"/>
        <pt x="1595" y="624" on="1"/>
        <pt x="1595" y="459" on="0"/>
        <pt x="1386" y="241" on="0"/>
        <pt x="1229" y="241" on="1"/>
        <pt x="1112" y="241" on="0"/>
        <pt x="936" y="370" on="0"/>
        <pt x="850" y="488" on="1"/>
        <pt x="810" y="434" on="0"/>
        <pt x="741" y="357" on="0"/>
        <pt x="646" y="281" on="0"/>
        <pt x="533" y="241" on="0"/>
      </contour>
      <contour>
        <pt x="1232" y="407" on="1"/>
        <pt x="1287" y="407" on="0"/>
        <pt x="1365" y="452" on="0"/>
        <pt x="1403" y="528" on="0"/>
        <pt x="1419" y="605" on="0"/>
        <pt x="1419" y="647" on="1"/>
        <pt x="1416" y="731" on="0"/>
        <pt x="1313" y="835" on="0"/>
        <pt x="1229" y="835" on="1"/>
        <pt x="1183" y="835" on="0"/>
        <pt x="1098" y="799" on="0"/>
        <pt x="1025" y="731" on="0"/>
        <pt x="972" y="666" on="0"/>
        <pt x="942" y="621" on="1"/>
        <pt x="981" y="568" on="0"/>
        <pt x="1031" y="507" on="0"/>
        <pt x="1106" y="438" on="0"/>
        <pt x="1186" y="407" on="0"/>
      </contour>
      <contour>
        <pt x="469" y="407" on="1"/>
        <pt x="515" y="407" on="0"/>
        <pt x="599" y="442" on="0"/>
        <pt x="672" y="509" on="0"/>
        <pt x="725" y="573" on="0"/>
        <pt x="756" y="618" on="1"/>
        <pt x="691" y="719" on="0"/>
        <pt x="554" y="835" on="0"/>
        <pt x="461" y="835" on="1"/>
        <pt x="370" y="835" on="0"/>
        <pt x="267" y="715" on="0"/>
        <pt x="267" y="621" on="1"/>
        <pt x="267" y="530" on="0"/>
        <pt x="379" y="407" on="0"/>
      </contour>
    </TTGlyph>
    <TTGlyph name="integral" xMin="97" yMin="-407" xMax="851" yMax="1670">
      <contour>
        <pt x="251" y="-407" on="1"/>
        <pt x="190" y="-407" on="0"/>
        <pt x="100" y="-380" on="1"/>
        <pt x="97" y="-197" on="1"/>
        <pt x="105" y="-201" on="0"/>
        <pt x="203" y="-224" on="0"/>
        <pt x="225" y="-224" on="1"/>
        <pt x="306" y="-224" on="0"/>
        <pt x="357" y="-137" on="0"/>
        <pt x="357" y="-29" on="1"/>
        <pt x="357" y="1272" on="1"/>
        <pt x="357" y="1340" on="0"/>
        <pt x="379" y="1456" on="0"/>
        <pt x="429" y="1558" on="0"/>
        <pt x="507" y="1629" on="0"/>
        <pt x="624" y="1670" on="0"/>
        <pt x="698" y="1670" on="1"/>
        <pt x="765" y="1670" on="0"/>
        <pt x="848" y="1645" on="1"/>
        <pt x="851" y="1461" on="1"/>
        <pt x="837" y="1466" on="0"/>
        <pt x="744" y="1488" on="0"/>
        <pt x="722" y="1488" on="1"/>
        <pt x="641" y="1488" on="0"/>
        <pt x="588" y="1401" on="0"/>
        <pt x="588" y="1294" on="1"/>
        <pt x="588" y="-9" on="1"/>
        <pt x="588" y="-95" on="0"/>
        <pt x="553" y="-234" on="0"/>
        <pt x="477" y="-346" on="0"/>
        <pt x="343" y="-407" on="0"/>
      </contour>
    </TTGlyph>
    <TTGlyph name="iogonek" xMin="26" yMin="-412" xMax="425" yMax="1483">
      <component glyphName="ogonek" x="-88" y="-20" flags="0x1004"/>
      <component glyphName="i" x="0" y="0" flags="0x1204"/>
    </TTGlyph>
    <TTGlyph name="itilde" xMin="-87" yMin="0" xMax="600" yMax="1487">
      <component glyphName="tilde" x="-133" y="18" flags="0x1004"/>
      <component glyphName="dotlessi" x="0" y="0" flags="0x1204"/>
    </TTGlyph>
    <TTGlyph name="j" xMin="-77" yMin="-427" xMax="426" yMax="1483">
      <contour>
        <pt x="-48" y="-427" on="1"/>
        <pt x="-77" y="-233" on="1"/>
        <pt x="-19" y="-233" on="1"/>
        <pt x="31" y="-233" on="0"/>
        <pt x="95" y="-218" on="0"/>
        <pt x="137" y="-191" on="0"/>
        <pt x="157" y="-135" on="0"/>
        <pt x="164" y="-70" on="0"/>
        <pt x="164" y="-16" on="1"/>
        <pt x="164" y="1099" on="1"/>
        <pt x="426" y="1099" on="1"/>
        <pt x="426" y="26" on="1"/>
        <pt x="426" y="-56" on="0"/>
        <pt x="413" y="-174" on="0"/>
        <pt x="379" y="-281" on="0"/>
        <pt x="320" y="-351" on="0"/>
        <pt x="228" y="-404" on="0"/>
        <pt x="98" y="-427" on="0"/>
        <pt x="11" y="-427" on="1"/>
      </contour>
      <contour>
        <pt x="164" y="1259" on="1"/>
        <pt x="164" y="1483" on="1"/>
        <pt x="426" y="1483" on="1"/>
        <pt x="426" y="1259" on="1"/>
      </contour>
    </TTGlyph>
    <TTGlyph name="jcircumflex" xMin="-75" yMin="-364" xMax="634" yMax="1631">
      <component glyphName="circumflex" x="-122" y="85" flags="0x1004"/>
      <component glyphName="uni0237" x="0" y="0" flags="0x1204"/>
    </TTGlyph>
    <TTGlyph name="k" xMin="133" yMin="0" xMax="1183" yMax="1521">
      <contour>
        <pt x="133" y="0" on="1"/>
        <pt x="133" y="1504" on="1"/>
        <pt x="395" y="1521" on="1"/>
        <pt x="395" y="846" on="1"/>
        <pt x="389" y="624" on="1"/>
        <pt x="390" y="625" on="0"/>
        <pt x="429" y="663" on="0"/>
        <pt x="431" y="665" on="1"/>
        <pt x="486" y="730" on="0"/>
        <pt x="615" y="868" on="0"/>
        <pt x="812" y="1068" on="0"/>
        <pt x="842" y="1099" on="1"/>
        <pt x="1154" y="1099" on="1"/>
        <pt x="702" y="631" on="1"/>
        <pt x="1183" y="0" on="1"/>
        <pt x="866" y="0" on="1"/>
        <pt x="504" y="499" on="1"/>
        <pt x="395" y="413" on="1"/>
        <pt x="395" y="0" on="1"/>
      </contour>
    </TTGlyph>
    <TTGlyph name="kcommaaccent" xMin="133" yMin="-620" xMax="1183" yMax="1521">
      <contour>
        <pt x="528" y="-620" on="1"/>
        <pt x="623" y="-122" on="1"/>
        <pt x="808" y="-122" on="1"/>
        <pt x="664" y="-620" on="1"/>
      </contour>
      <contour>
        <pt x="133" y="0" on="1"/>
        <pt x="133" y="1504" on="1"/>
        <pt x="395" y="1521" on="1"/>
        <pt x="395" y="846" on="1"/>
        <pt x="389" y="624" on="1"/>
        <pt x="390" y="625" on="0"/>
        <pt x="429" y="663" on="0"/>
        <pt x="431" y="665" on="1"/>
        <pt x="486" y="730" on="0"/>
        <pt x="615" y="868" on="0"/>
        <pt x="812" y="1068" on="0"/>
        <pt x="842" y="1099" on="1"/>
        <pt x="1154" y="1099" on="1"/>
        <pt x="702" y="631" on="1"/>
        <pt x="1183" y="0" on="1"/>
        <pt x="866" y="0" on="1"/>
        <pt x="504" y="499" on="1"/>
        <pt x="395" y="413" on="1"/>
        <pt x="395" y="0" on="1"/>
      </contour>
    </TTGlyph>
    <TTGlyph name="kgreenlandic" xMin="115" yMin="0" xMax="1151" yMax="1100">
      <contour>
        <pt x="115" y="0" on="1"/>
        <pt x="115" y="1100" on="1"/>
        <pt x="364" y="1100" on="1"/>
        <pt x="364" y="634" on="1"/>
        <pt x="793" y="1100" on="1"/>
        <pt x="1106" y="1100" on="1"/>
        <pt x="647" y="596" on="1"/>
        <pt x="676" y="569" on="0"/>
        <pt x="1146" y="5" on="0"/>
        <pt x="1151" y="0" on="1"/>
        <pt x="836" y="0" on="1"/>
        <pt x="428" y="494" on="1"/>
        <pt x="364" y="458" on="1"/>
        <pt x="364" y="0" on="1"/>
      </contour>
    </TTGlyph>
    <TTGlyph name="l" xMin="136" yMin="-15" xMax="703" yMax="1521">
      <contour>
        <pt x="518" y="-15" on="1"/>
        <pt x="405" y="-15" on="0"/>
        <pt x="256" y="38" on="0"/>
        <pt x="170" y="154" on="0"/>
        <pt x="136" y="314" on="0"/>
        <pt x="136" y="433" on="1"/>
        <pt x="136" y="1504" on="1"/>
        <pt x="398" y="1521" on="1"/>
        <pt x="398" y="438" on="1"/>
        <pt x="398" y="290" on="0"/>
        <pt x="468" y="185" on="0"/>
        <pt x="569" y="185" on="1"/>
        <pt x="619" y="185" on="0"/>
        <pt x="696" y="196" on="1"/>
        <pt x="703" y="9" on="1"/>
        <pt x="702" y="9" on="0"/>
        <pt x="655" y="-1" on="0"/>
        <pt x="612" y="-8" on="0"/>
        <pt x="546" y="-15" on="0"/>
      </contour>
    </TTGlyph>
    <TTGlyph name="lacute" xMin="136" yMin="-15" xMax="812" yMax="2026">
      <component glyphName="acute" x="151" y="448" flags="0x1004"/>
      <component glyphName="l" x="0" y="0" flags="0x1204"/>
    </TTGlyph>
    <TTGlyph name="lcommaaccent" xMin="136" yMin="-635" xMax="703" yMax="1521">
      <contour>
        <pt x="290" y="-635" on="1"/>
        <pt x="385" y="-137" on="1"/>
        <pt x="570" y="-137" on="1"/>
        <pt x="426" y="-635" on="1"/>
      </contour>
      <contour>
        <pt x="518" y="-15" on="1"/>
        <pt x="405" y="-15" on="0"/>
        <pt x="256" y="38" on="0"/>
        <pt x="170" y="154" on="0"/>
        <pt x="136" y="314" on="0"/>
        <pt x="136" y="433" on="1"/>
        <pt x="136" y="1504" on="1"/>
        <pt x="398" y="1521" on="1"/>
        <pt x="398" y="438" on="1"/>
        <pt x="398" y="290" on="0"/>
        <pt x="468" y="185" on="0"/>
        <pt x="569" y="185" on="1"/>
        <pt x="619" y="185" on="0"/>
        <pt x="696" y="196" on="1"/>
        <pt x="703" y="9" on="1"/>
        <pt x="702" y="9" on="0"/>
        <pt x="655" y="-1" on="0"/>
        <pt x="612" y="-8" on="0"/>
        <pt x="546" y="-15" on="0"/>
      </contour>
    </TTGlyph>
    <TTGlyph name="less" xMin="115" yMin="196" xMax="1082" yMax="1251">
      <contour>
        <pt x="1081" y="196" on="1"/>
        <pt x="115" y="645" on="1"/>
        <pt x="115" y="769" on="1"/>
        <pt x="1082" y="1251" on="1"/>
        <pt x="1082" y="1045" on="1"/>
        <pt x="377" y="712" on="1"/>
        <pt x="1081" y="401" on="1"/>
      </contour>
    </TTGlyph>
    <TTGlyph name="lessequal" xMin="138" yMin="2" xMax="1089" yMax="1273">
      <contour>
        <pt x="1082" y="225" on="1"/>
        <pt x="145" y="685" on="1"/>
        <pt x="145" y="801" on="1"/>
        <pt x="1082" y="1273" on="1"/>
        <pt x="1082" y="1083" on="1"/>
        <pt x="385" y="744" on="1"/>
        <pt x="1082" y="415" on="1"/>
      </contour>
      <contour>
        <pt x="138" y="2" on="1"/>
        <pt x="138" y="157" on="1"/>
        <pt x="1089" y="158" on="1"/>
        <pt x="1089" y="2" on="1"/>
      </contour>
    </TTGlyph>
    <TTGlyph name="logicalnot" xMin="132" yMin="247" xMax="1152" yMax="834">
      <contour>
        <pt x="961" y="247" on="1"/>
        <pt x="961" y="641" on="1"/>
        <pt x="132" y="641" on="1"/>
        <pt x="132" y="834" on="1"/>
        <pt x="1152" y="834" on="1"/>
        <pt x="1152" y="247" on="1"/>
      </contour>
    </TTGlyph>
    <TTGlyph name="lozenge" xMin="98" yMin="-47" xMax="1135" yMax="1505">
      <contour>
        <pt x="547" y="-47" on="1"/>
        <pt x="98" y="728" on="1"/>
        <pt x="554" y="1505" on="1"/>
        <pt x="684" y="1505" on="1"/>
        <pt x="1135" y="729" on="1"/>
        <pt x="675" y="-47" on="1"/>
      </contour>
      <contour>
        <pt x="611" y="150" on="1"/>
        <pt x="669" y="257" on="0"/>
        <pt x="891" y="645" on="0"/>
        <pt x="937" y="729" on="1"/>
        <pt x="887" y="821" on="0"/>
        <pt x="675" y="1207" on="0"/>
        <pt x="621" y="1307" on="1"/>
        <pt x="562" y="1198" on="0"/>
        <pt x="339" y="808" on="0"/>
        <pt x="295" y="730" on="1"/>
        <pt x="431" y="477" on="0"/>
      </contour>
    </TTGlyph>
    <TTGlyph name="lslash" xMin="30" yMin="-15" xMax="681" yMax="1515">
      <contour>
        <pt x="516" y="-15" on="1"/>
        <pt x="437" y="-15" on="0"/>
        <pt x="319" y="9" on="0"/>
        <pt x="236" y="64" on="0"/>
        <pt x="183" y="136" on="0"/>
        <pt x="153" y="249" on="0"/>
        <pt x="142" y="373" on="0"/>
        <pt x="142" y="459" on="1"/>
        <pt x="142" y="692" on="1"/>
        <pt x="30" y="625" on="1"/>
        <pt x="30" y="808" on="1"/>
        <pt x="142" y="876" on="1"/>
        <pt x="142" y="1495" on="1"/>
        <pt x="397" y="1515" on="1"/>
        <pt x="397" y="1028" on="1"/>
        <pt x="555" y="1125" on="1"/>
        <pt x="555" y="943" on="1"/>
        <pt x="397" y="846" on="1"/>
        <pt x="397" y="438" on="1"/>
        <pt x="397" y="382" on="0"/>
        <pt x="400" y="319" on="0"/>
        <pt x="410" y="251" on="0"/>
        <pt x="431" y="219" on="0"/>
        <pt x="468" y="190" on="0"/>
        <pt x="522" y="181" on="0"/>
        <pt x="562" y="181" on="1"/>
        <pt x="581" y="181" on="0"/>
        <pt x="665" y="188" on="1"/>
        <pt x="681" y="-1" on="1"/>
        <pt x="590" y="-15" on="0"/>
      </contour>
    </TTGlyph>
    <TTGlyph name="m" xMin="133" yMin="0" xMax="1786" yMax="1126">
      <contour>
        <pt x="133" y="0" on="1"/>
        <pt x="133" y="1099" on="1"/>
        <pt x="345" y="1099" on="1"/>
        <pt x="375" y="959" on="1"/>
        <pt x="395" y="984" on="0"/>
        <pt x="432" y="1023" on="0"/>
        <pt x="497" y="1072" on="0"/>
        <pt x="570" y="1104" on="0"/>
        <pt x="677" y="1126" on="0"/>
        <pt x="738" y="1126" on="1"/>
        <pt x="869" y="1126" on="0"/>
        <pt x="1026" y="1020" on="0"/>
        <pt x="1058" y="949" on="1"/>
        <pt x="1117" y="1034" on="0"/>
        <pt x="1305" y="1126" on="0"/>
        <pt x="1420" y="1126" on="1"/>
        <pt x="1609" y="1126" on="0"/>
        <pt x="1786" y="912" on="0"/>
        <pt x="1786" y="702" on="1"/>
        <pt x="1786" y="0" on="1"/>
        <pt x="1523" y="0" on="1"/>
        <pt x="1523" y="624" on="1"/>
        <pt x="1523" y="785" on="0"/>
        <pt x="1452" y="928" on="0"/>
        <pt x="1352" y="928" on="1"/>
        <pt x="1199" y="928" on="0"/>
        <pt x="1132" y="790" on="1"/>
        <pt x="1104" y="729" on="0"/>
        <pt x="1094" y="643" on="1"/>
        <pt x="1094" y="0" on="1"/>
        <pt x="832" y="0" on="1"/>
        <pt x="832" y="636" on="1"/>
        <pt x="832" y="783" on="0"/>
        <pt x="754" y="927" on="0"/>
        <pt x="652" y="927" on="1"/>
        <pt x="569" y="927" on="0"/>
        <pt x="449" y="843" on="0"/>
        <pt x="418" y="775" on="1"/>
        <pt x="395" y="674" on="0"/>
        <pt x="395" y="533" on="1"/>
        <pt x="395" y="0" on="1"/>
      </contour>
    </TTGlyph>
    <TTGlyph name="macron" xMin="118" yMin="1377" xMax="804" yMax="1530">
      <contour>
        <pt x="118" y="1377" on="1"/>
        <pt x="118" y="1530" on="1"/>
        <pt x="804" y="1530" on="1"/>
        <pt x="804" y="1377" on="1"/>
      </contour>
    </TTGlyph>
    <TTGlyph name="multiply" xMin="278" yMin="147" xMax="1149" yMax="1020">
      <contour>
        <pt x="412" y="147" on="1"/>
        <pt x="278" y="283" on="1"/>
        <pt x="569" y="583" on="1"/>
        <pt x="278" y="882" on="1"/>
        <pt x="412" y="1020" on="1"/>
        <pt x="713" y="725" on="1"/>
        <pt x="1013" y="1020" on="1"/>
        <pt x="1149" y="881" on="1"/>
        <pt x="857" y="583" on="1"/>
        <pt x="898" y="543" on="0"/>
        <pt x="1119" y="314" on="0"/>
        <pt x="1149" y="284" on="1"/>
        <pt x="1013" y="147" on="1"/>
        <pt x="713" y="441" on="1"/>
      </contour>
    </TTGlyph>
    <TTGlyph name="n" xMin="133" yMin="0" xMax="1129" yMax="1126">
      <contour>
        <pt x="133" y="0" on="1"/>
        <pt x="133" y="1099" on="1"/>
        <pt x="344" y="1099" on="1"/>
        <pt x="373" y="960" on="1"/>
        <pt x="541" y="1126" on="0"/>
        <pt x="746" y="1126" on="1"/>
        <pt x="938" y="1126" on="0"/>
        <pt x="1129" y="905" on="0"/>
        <pt x="1129" y="695" on="1"/>
        <pt x="1129" y="0" on="1"/>
        <pt x="866" y="0" on="1"/>
        <pt x="866" y="663" on="1"/>
        <pt x="865" y="796" on="0"/>
        <pt x="781" y="928" on="0"/>
        <pt x="672" y="928" on="1"/>
        <pt x="587" y="928" on="0"/>
        <pt x="446" y="841" on="0"/>
        <pt x="414" y="775" on="1"/>
        <pt x="395" y="697" on="0"/>
        <pt x="395" y="535" on="1"/>
        <pt x="395" y="0" on="1"/>
      </contour>
    </TTGlyph>
    <TTGlyph name="nacute" xMin="133" yMin="0" xMax="1129" yMax="1631">
      <component glyphName="acute" x="362" y="53" flags="0x1004"/>
      <component glyphName="n" x="0" y="0" flags="0x1204"/>
    </TTGlyph>
    <TTGlyph name="ncaron" xMin="133" yMin="0" xMax="1129" yMax="1601">
      <component glyphName="caron" x="228" y="55" flags="0x1004"/>
      <component glyphName="n" x="0" y="0" flags="0x1204"/>
    </TTGlyph>
    <TTGlyph name="ncommaaccent" xMin="133" yMin="-620" xMax="1129" yMax="1126">
      <contour>
        <pt x="501" y="-620" on="1"/>
        <pt x="596" y="-122" on="1"/>
        <pt x="781" y="-122" on="1"/>
        <pt x="637" y="-620" on="1"/>
      </contour>
      <contour>
        <pt x="133" y="0" on="1"/>
        <pt x="133" y="1099" on="1"/>
        <pt x="344" y="1099" on="1"/>
        <pt x="373" y="960" on="1"/>
        <pt x="541" y="1126" on="0"/>
        <pt x="746" y="1126" on="1"/>
        <pt x="938" y="1126" on="0"/>
        <pt x="1129" y="905" on="0"/>
        <pt x="1129" y="695" on="1"/>
        <pt x="1129" y="0" on="1"/>
        <pt x="866" y="0" on="1"/>
        <pt x="866" y="663" on="1"/>
        <pt x="865" y="796" on="0"/>
        <pt x="781" y="928" on="0"/>
        <pt x="672" y="928" on="1"/>
        <pt x="587" y="928" on="0"/>
        <pt x="446" y="841" on="0"/>
        <pt x="414" y="775" on="1"/>
        <pt x="395" y="697" on="0"/>
        <pt x="395" y="535" on="1"/>
        <pt x="395" y="0" on="1"/>
      </contour>
    </TTGlyph>
    <TTGlyph name="nine" xMin="82" yMin="0" xMax="1165" yMax="1490">
      <contour>
        <pt x="243" y="0" on="1"/>
        <pt x="687" y="578" on="1"/>
        <pt x="620" y="555" on="0"/>
        <pt x="568" y="555" on="1"/>
        <pt x="353" y="555" on="0"/>
        <pt x="82" y="814" on="0"/>
        <pt x="82" y="1020" on="1"/>
        <pt x="82" y="1234" on="0"/>
        <pt x="379" y="1490" on="0"/>
        <pt x="616" y="1490" on="1"/>
        <pt x="861" y="1490" on="0"/>
        <pt x="1165" y="1227" on="0"/>
        <pt x="1165" y="1009" on="1"/>
        <pt x="1165" y="883" on="0"/>
        <pt x="1069" y="677" on="0"/>
        <pt x="976" y="550" on="1"/>
        <pt x="562" y="0" on="1"/>
      </contour>
      <contour>
        <pt x="624" y="739" on="1"/>
        <pt x="763" y="739" on="0"/>
        <pt x="896" y="893" on="0"/>
        <pt x="896" y="1024" on="1"/>
        <pt x="896" y="1147" on="0"/>
        <pt x="758" y="1291" on="0"/>
        <pt x="629" y="1291" on="1"/>
        <pt x="496" y="1291" on="0"/>
        <pt x="345" y="1141" on="0"/>
        <pt x="345" y="1019" on="1"/>
        <pt x="345" y="889" on="0"/>
        <pt x="486" y="739" on="0"/>
      </contour>
    </TTGlyph>
    <TTGlyph name="notequal" xMin="142" yMin="44" xMax="1180" yMax="1152">
      <contour>
        <pt x="462" y="44" on="1"/>
        <pt x="299" y="68" on="1"/>
        <pt x="421" y="313" on="1"/>
        <pt x="154" y="313" on="1"/>
        <pt x="144" y="480" on="1"/>
        <pt x="503" y="480" on="1"/>
        <pt x="624" y="723" on="1"/>
        <pt x="154" y="723" on="1"/>
        <pt x="142" y="892" on="1"/>
        <pt x="702" y="892" on="1"/>
        <pt x="839" y="1152" on="1"/>
        <pt x="1002" y="1130" on="0"/>
        <pt x="1004" y="1130" on="1"/>
        <pt x="885" y="891" on="1"/>
        <pt x="1166" y="891" on="1"/>
        <pt x="1180" y="722" on="1"/>
        <pt x="805" y="722" on="1"/>
        <pt x="682" y="479" on="1"/>
        <pt x="1167" y="479" on="1"/>
        <pt x="1180" y="312" on="1"/>
        <pt x="601" y="312" on="1"/>
      </contour>
    </TTGlyph>
    <TTGlyph name="ntilde" xMin="133" yMin="0" xMax="1129" yMax="1487">
      <component glyphName="tilde" x="242" y="18" flags="0x1004"/>
      <component glyphName="n" x="0" y="0" flags="0x1204"/>
    </TTGlyph>
    <TTGlyph name="numbersign" xMin="53" yMin="-15" xMax="1137" yMax="1458">
      <contour>
        <pt x="178" y="-15" on="1"/>
        <pt x="255" y="404" on="1"/>
        <pt x="53" y="404" on="1"/>
        <pt x="61" y="583" on="1"/>
        <pt x="288" y="583" on="1"/>
        <pt x="343" y="898" on="1"/>
        <pt x="131" y="898" on="1"/>
        <pt x="139" y="1077" on="1"/>
        <pt x="375" y="1077" on="1"/>
        <pt x="455" y="1458" on="1"/>
        <pt x="650" y="1458" on="1"/>
        <pt x="574" y="1077" on="1"/>
        <pt x="767" y="1077" on="1"/>
        <pt x="841" y="1458" on="1"/>
        <pt x="1031" y="1458" on="1"/>
        <pt x="956" y="1077" on="1"/>
        <pt x="1137" y="1077" on="1"/>
        <pt x="1125" y="899" on="1"/>
        <pt x="923" y="899" on="1"/>
        <pt x="863" y="583" on="1"/>
        <pt x="1058" y="583" on="1"/>
        <pt x="1048" y="404" on="1"/>
        <pt x="833" y="404" on="1"/>
        <pt x="753" y="-15" on="1"/>
        <pt x="557" y="-15" on="1"/>
        <pt x="636" y="404" on="1"/>
        <pt x="446" y="404" on="1"/>
        <pt x="367" y="-15" on="1"/>
      </contour>
      <contour>
        <pt x="478" y="583" on="1"/>
        <pt x="672" y="583" on="1"/>
        <pt x="733" y="899" on="1"/>
        <pt x="540" y="899" on="1"/>
      </contour>
    </TTGlyph>
    <TTGlyph name="o" xMin="81" yMin="-21" xMax="1141" yMax="1126">
      <contour>
        <pt x="612" y="178" on="1"/>
        <pt x="745" y="178" on="0"/>
        <pt x="879" y="372" on="0"/>
        <pt x="879" y="553" on="1"/>
        <pt x="879" y="736" on="0"/>
        <pt x="745" y="928" on="0"/>
        <pt x="610" y="928" on="1"/>
        <pt x="477" y="928" on="0"/>
        <pt x="342" y="735" on="0"/>
        <pt x="342" y="552" on="1"/>
        <pt x="342" y="372" on="0"/>
        <pt x="478" y="178" on="0"/>
      </contour>
      <contour>
        <pt x="605" y="-21" on="1"/>
        <pt x="361" y="-21" on="0"/>
        <pt x="81" y="295" on="0"/>
        <pt x="81" y="553" on="1"/>
        <pt x="81" y="819" on="0"/>
        <pt x="361" y="1126" on="0"/>
        <pt x="616" y="1126" on="1"/>
        <pt x="862" y="1126" on="0"/>
        <pt x="1141" y="813" on="0"/>
        <pt x="1141" y="553" on="1"/>
        <pt x="1141" y="290" on="0"/>
        <pt x="859" y="-21" on="0"/>
      </contour>
    </TTGlyph>
    <TTGlyph name="oacute" xMin="81" yMin="-21" xMax="1141" yMax="1631">
      <component glyphName="acute" x="342" y="53" flags="0x1004"/>
      <component glyphName="o" x="0" y="0" flags="0x1204"/>
    </TTGlyph>
    <TTGlyph name="obreve" xMin="81" yMin="-21" xMax="1141" yMax="1500">
      <component glyphName="breve" x="259" y="19" flags="0x1004"/>
      <component glyphName="o" x="0" y="0" flags="0x1204"/>
    </TTGlyph>
    <TTGlyph name="ocircumflex" xMin="81" yMin="-21" xMax="1141" yMax="1631">
      <component glyphName="circumflex" x="210" y="85" flags="0x1004"/>
      <component glyphName="o" x="0" y="0" flags="0x1204"/>
    </TTGlyph>
    <TTGlyph name="odieresis" xMin="81" yMin="-21" xMax="1141" yMax="1502">
      <component glyphName="dieresis" x="224" y="12" flags="0x1004"/>
      <component glyphName="o" x="0" y="0" flags="0x1204"/>
    </TTGlyph>
    <TTGlyph name="oe" xMin="69" yMin="-21" xMax="1821" yMax="1120">
      <contour>
        <pt x="595" y="-21" on="1"/>
        <pt x="465" y="-21" on="0"/>
        <pt x="260" y="70" on="0"/>
        <pt x="134" y="228" on="0"/>
        <pt x="69" y="433" on="0"/>
        <pt x="69" y="552" on="1"/>
        <pt x="69" y="675" on="0"/>
        <pt x="134" y="879" on="0"/>
        <pt x="261" y="1034" on="0"/>
        <pt x="465" y="1120" on="0"/>
        <pt x="596" y="1120" on="1"/>
        <pt x="733" y="1120" on="0"/>
        <pt x="933" y="1018" on="0"/>
        <pt x="992" y="927" on="1"/>
        <pt x="1104" y="1117" on="0"/>
        <pt x="1380" y="1120" on="1"/>
        <pt x="1472" y="1120" on="0"/>
        <pt x="1621" y="1066" on="0"/>
        <pt x="1722" y="971" on="0"/>
        <pt x="1790" y="837" on="0"/>
        <pt x="1821" y="679" on="0"/>
        <pt x="1821" y="587" on="1"/>
        <pt x="1821" y="576" on="0"/>
        <pt x="1820" y="535" on="0"/>
        <pt x="1819" y="502" on="0"/>
        <pt x="1819" y="500" on="1"/>
        <pt x="1110" y="500" on="1"/>
        <pt x="1113" y="337" on="0"/>
        <pt x="1274" y="158" on="0"/>
        <pt x="1417" y="158" on="1"/>
        <pt x="1587" y="158" on="0"/>
        <pt x="1722" y="261" on="1"/>
        <pt x="1794" y="106" on="1"/>
        <pt x="1715" y="45" on="0"/>
        <pt x="1536" y="-21" on="0"/>
        <pt x="1410" y="-21" on="1"/>
        <pt x="1106" y="-21" on="0"/>
        <pt x="990" y="177" on="1"/>
        <pt x="935" y="86" on="0"/>
        <pt x="731" y="-21" on="0"/>
      </contour>
      <contour>
        <pt x="467" y="157" on="0"/>
        <pt x="723" y="157" on="0"/>
        <pt x="875" y="369" on="0"/>
        <pt x="875" y="552" on="1"/>
        <pt x="875" y="740" on="0"/>
        <pt x="726" y="942" on="0"/>
        <pt x="594" y="942" on="1"/>
        <pt x="464" y="942" on="0"/>
        <pt x="316" y="735" on="0"/>
        <pt x="316" y="551" on="1"/>
        <pt x="316" y="370" on="0"/>
      </contour>
      <contour>
        <pt x="1113" y="646" on="1"/>
        <pt x="1588" y="646" on="1"/>
        <pt x="1588" y="656" on="1"/>
        <pt x="1587" y="942" on="0"/>
        <pt x="1364" y="942" on="1"/>
        <pt x="1319" y="942" on="0"/>
        <pt x="1239" y="911" on="0"/>
        <pt x="1167" y="846" on="0"/>
        <pt x="1119" y="726" on="0"/>
      </contour>
    </TTGlyph>
    <TTGlyph name="ogonek" xMin="114" yMin="-392" xMax="513" yMax="34">
      <contour>
        <pt x="321" y="-392" on="1"/>
        <pt x="231" y="-392" on="0"/>
        <pt x="114" y="-304" on="0"/>
        <pt x="114" y="-220" on="1"/>
        <pt x="114" y="-74" on="0"/>
        <pt x="305" y="34" on="1"/>
        <pt x="413" y="34" on="1"/>
        <pt x="289" y="-58" on="0"/>
        <pt x="289" y="-165" on="1"/>
        <pt x="289" y="-199" on="0"/>
        <pt x="334" y="-252" on="0"/>
        <pt x="371" y="-252" on="1"/>
        <pt x="385" y="-252" on="0"/>
        <pt x="418" y="-247" on="0"/>
        <pt x="445" y="-240" on="0"/>
        <pt x="475" y="-230" on="0"/>
        <pt x="493" y="-223" on="0"/>
        <pt x="512" y="-215" on="0"/>
        <pt x="513" y="-215" on="1"/>
        <pt x="513" y="-355" on="1"/>
        <pt x="418" y="-392" on="0"/>
      </contour>
    </TTGlyph>
    <TTGlyph name="ograve" xMin="81" yMin="-21" xMax="1141" yMax="1631">
      <component glyphName="grave" x="206" y="53" flags="0x1004"/>
      <component glyphName="o" x="0" y="0" flags="0x1204"/>
    </TTGlyph>
    <TTGlyph name="ohungarumlaut" xMin="81" yMin="-21" xMax="1171" yMax="1609">
      <component glyphName="hungarumlaut" x="238" y="93" flags="0x1004"/>
      <component glyphName="o" x="0" y="0" flags="0x1204"/>
    </TTGlyph>
    <TTGlyph name="omacron" xMin="81" yMin="-21" xMax="1141" yMax="1401">
      <component glyphName="macron" x="150" y="-129" flags="0x1004"/>
      <component glyphName="o" x="0" y="0" flags="0x1204"/>
    </TTGlyph>
    <TTGlyph name="one" xMin="43" yMin="1" xMax="556" yMax="1459">
      <contour>
        <pt x="303" y="1" on="1"/>
        <pt x="303" y="1220" on="1"/>
        <pt x="289" y="1211" on="0"/>
        <pt x="58" y="1114" on="0"/>
        <pt x="43" y="1110" on="1"/>
        <pt x="43" y="1310" on="1"/>
        <pt x="67" y="1321" on="0"/>
        <pt x="323" y="1450" on="0"/>
        <pt x="336" y="1459" on="1"/>
        <pt x="556" y="1459" on="1"/>
        <pt x="556" y="1" on="1"/>
      </contour>
    </TTGlyph>
    <TTGlyph name="onehalf" xMin="106" yMin="-29" xMax="1710" yMax="1484">
      <contour>
        <pt x="125" y="601" on="1"/>
        <pt x="125" y="733" on="1"/>
        <pt x="267" y="733" on="1"/>
        <pt x="267" y="1321" on="1"/>
        <pt x="224" y="1293" on="0"/>
        <pt x="106" y="1228" on="1"/>
        <pt x="106" y="1376" on="1"/>
        <pt x="122" y="1384" on="0"/>
        <pt x="281" y="1477" on="0"/>
        <pt x="288" y="1484" on="1"/>
        <pt x="458" y="1484" on="1"/>
        <pt x="458" y="733" on="1"/>
        <pt x="599" y="733" on="1"/>
        <pt x="599" y="601" on="1"/>
      </contour>
      <contour>
        <pt x="1136" y="-29" on="1"/>
        <pt x="1137" y="107" on="1"/>
        <pt x="1173" y="138" on="0"/>
        <pt x="1296" y="238" on="0"/>
        <pt x="1367" y="297" on="0"/>
        <pt x="1458" y="382" on="0"/>
        <pt x="1507" y="445" on="0"/>
        <pt x="1542" y="520" on="0"/>
        <pt x="1542" y="555" on="1"/>
        <pt x="1542" y="614" on="0"/>
        <pt x="1457" y="684" on="0"/>
        <pt x="1402" y="684" on="1"/>
        <pt x="1343" y="684" on="0"/>
        <pt x="1228" y="634" on="0"/>
        <pt x="1192" y="587" on="1"/>
        <pt x="1126" y="704" on="1"/>
        <pt x="1169" y="769" on="0"/>
        <pt x="1325" y="835" on="0"/>
        <pt x="1424" y="835" on="1"/>
        <pt x="1541" y="835" on="0"/>
        <pt x="1710" y="686" on="0"/>
        <pt x="1710" y="561" on="1"/>
        <pt x="1710" y="517" on="0"/>
        <pt x="1693" y="440" on="0"/>
        <pt x="1648" y="364" on="0"/>
        <pt x="1608" y="309" on="0"/>
        <pt x="1524" y="231" on="0"/>
        <pt x="1470" y="184" on="0"/>
        <pt x="1414" y="138" on="1"/>
        <pt x="1388" y="116" on="0"/>
        <pt x="1374" y="105" on="1"/>
        <pt x="1709" y="105" on="1"/>
        <pt x="1693" y="-29" on="1"/>
      </contour>
      <contour>
        <pt x="310" y="0" on="1"/>
        <pt x="1331" y="1471" on="1"/>
        <pt x="1529" y="1471" on="1"/>
        <pt x="510" y="0" on="1"/>
      </contour>
    </TTGlyph>
    <TTGlyph name="onequarter" xMin="85" yMin="0" xMax="1664" yMax="1484">
      <contour>
        <pt x="104" y="601" on="1"/>
        <pt x="104" y="749" on="1"/>
        <pt x="246" y="749" on="1"/>
        <pt x="246" y="1304" on="1"/>
        <pt x="241" y="1301" on="0"/>
        <pt x="89" y="1230" on="0"/>
        <pt x="85" y="1228" on="1"/>
        <pt x="85" y="1376" on="1"/>
        <pt x="287" y="1477" on="0"/>
        <pt x="294" y="1484" on="1"/>
        <pt x="437" y="1484" on="1"/>
        <pt x="437" y="749" on="1"/>
        <pt x="578" y="749" on="1"/>
        <pt x="578" y="601" on="1"/>
      </contour>
      <contour>
        <pt x="1388" y="10" on="1"/>
        <pt x="1388" y="182" on="1"/>
        <pt x="985" y="182" on="1"/>
        <pt x="985" y="324" on="1"/>
        <pt x="1372" y="865" on="1"/>
        <pt x="1547" y="865" on="1"/>
        <pt x="1547" y="318" on="1"/>
        <pt x="1662" y="318" on="1"/>
        <pt x="1664" y="182" on="1"/>
        <pt x="1546" y="182" on="1"/>
        <pt x="1545" y="10" on="1"/>
      </contour>
      <contour>
        <pt x="305" y="0" on="1"/>
        <pt x="1327" y="1471" on="1"/>
        <pt x="1521" y="1471" on="1"/>
        <pt x="506" y="0" on="1"/>
      </contour>
      <contour>
        <pt x="1176" y="318" on="1"/>
        <pt x="1386" y="318" on="1"/>
        <pt x="1386" y="639" on="0"/>
        <pt x="1387" y="646" on="1"/>
      </contour>
    </TTGlyph>
    <TTGlyph name="ordfeminine" xMin="75" yMin="536" xMax="673" yMax="1514">
      <contour>
        <pt x="299" y="750" on="1"/>
        <pt x="203" y="750" on="0"/>
        <pt x="75" y="862" on="0"/>
        <pt x="75" y="963" on="1"/>
        <pt x="75" y="1011" on="0"/>
        <pt x="108" y="1087" on="0"/>
        <pt x="172" y="1136" on="0"/>
        <pt x="244" y="1170" on="0"/>
        <pt x="344" y="1191" on="0"/>
        <pt x="424" y="1202" on="0"/>
        <pt x="477" y="1208" on="1"/>
        <pt x="497" y="1210" on="0"/>
        <pt x="506" y="1211" on="1"/>
        <pt x="506" y="1243" on="1"/>
        <pt x="505" y="1319" on="0"/>
        <pt x="447" y="1384" on="0"/>
        <pt x="382" y="1384" on="1"/>
        <pt x="274" y="1384" on="0"/>
        <pt x="133" y="1326" on="1"/>
        <pt x="91" y="1436" on="1"/>
        <pt x="235" y="1514" on="0"/>
        <pt x="399" y="1514" on="1"/>
        <pt x="520" y="1514" on="0"/>
        <pt x="669" y="1397" on="0"/>
        <pt x="669" y="1268" on="1"/>
        <pt x="669" y="889" on="1"/>
        <pt x="669" y="787" on="0"/>
        <pt x="670" y="764" on="1"/>
        <pt x="535" y="764" on="1"/>
        <pt x="518" y="849" on="1"/>
        <pt x="486" y="806" on="0"/>
        <pt x="361" y="750" on="0"/>
      </contour>
      <contour>
        <pt x="112" y="536" on="1"/>
        <pt x="112" y="656" on="1"/>
        <pt x="673" y="656" on="1"/>
        <pt x="673" y="536" on="1"/>
      </contour>
      <contour>
        <pt x="317" y="878" on="1"/>
        <pt x="368" y="878" on="0"/>
        <pt x="469" y="940" on="0"/>
        <pt x="506" y="995" on="1"/>
        <pt x="506" y="1106" on="1"/>
        <pt x="456" y="1099" on="0"/>
        <pt x="399" y="1090" on="0"/>
        <pt x="326" y="1075" on="0"/>
        <pt x="286" y="1056" on="0"/>
        <pt x="247" y="1029" on="0"/>
        <pt x="231" y="992" on="0"/>
        <pt x="231" y="968" on="1"/>
        <pt x="231" y="925" on="0"/>
        <pt x="279" y="878" on="0"/>
      </contour>
    </TTGlyph>
    <TTGlyph name="ordmasculine" xMin="69" yMin="744" xMax="803" yMax="1512">
      <contour>
        <pt x="439" y="899" on="1"/>
        <pt x="533" y="899" on="0"/>
        <pt x="629" y="1023" on="0"/>
        <pt x="629" y="1125" on="1"/>
        <pt x="629" y="1232" on="0"/>
        <pt x="532" y="1358" on="0"/>
        <pt x="435" y="1358" on="1"/>
        <pt x="341" y="1358" on="0"/>
        <pt x="245" y="1232" on="0"/>
        <pt x="245" y="1129" on="1"/>
        <pt x="245" y="1022" on="0"/>
        <pt x="341" y="899" on="0"/>
      </contour>
      <contour>
        <pt x="439" y="744" on="1"/>
        <pt x="265" y="744" on="0"/>
        <pt x="69" y="957" on="0"/>
        <pt x="69" y="1131" on="1"/>
        <pt x="69" y="1301" on="0"/>
        <pt x="269" y="1512" on="0"/>
        <pt x="438" y="1512" on="1"/>
        <pt x="608" y="1512" on="0"/>
        <pt x="803" y="1299" on="0"/>
        <pt x="803" y="1127" on="1"/>
        <pt x="803" y="958" on="0"/>
        <pt x="606" y="744" on="0"/>
      </contour>
    </TTGlyph>
    <TTGlyph name="oslash" xMin="71" yMin="-215" xMax="1125" yMax="1269">
      <contour>
        <pt x="302" y="-215" on="1"/>
        <pt x="240" y="-181" on="1"/>
        <pt x="336" y="41" on="1"/>
        <pt x="207" y="107" on="0"/>
        <pt x="71" y="373" on="0"/>
        <pt x="71" y="550" on="1"/>
        <pt x="71" y="810" on="0"/>
        <pt x="348" y="1119" on="0"/>
        <pt x="601" y="1119" on="1"/>
        <pt x="707" y="1119" on="0"/>
        <pt x="800" y="1089" on="1"/>
        <pt x="894" y="1269" on="1"/>
        <pt x="963" y="1246" on="1"/>
        <pt x="870" y="1059" on="1"/>
        <pt x="995" y="993" on="0"/>
        <pt x="1125" y="730" on="0"/>
        <pt x="1125" y="552" on="1"/>
        <pt x="1125" y="296" on="0"/>
        <pt x="849" y="-16" on="0"/>
        <pt x="595" y="-16" on="1"/>
        <pt x="488" y="-16" on="0"/>
        <pt x="403" y="14" on="1"/>
      </contour>
      <contour>
        <pt x="420" y="231" on="1"/>
        <pt x="721" y="913" on="1"/>
        <pt x="668" y="940" on="0"/>
        <pt x="598" y="940" on="1"/>
        <pt x="464" y="940" on="0"/>
        <pt x="318" y="737" on="0"/>
        <pt x="318" y="551" on="1"/>
        <pt x="318" y="330" on="0"/>
      </contour>
      <contour>
        <pt x="599" y="163" on="1"/>
        <pt x="734" y="163" on="0"/>
        <pt x="878" y="367" on="0"/>
        <pt x="878" y="551" on="1"/>
        <pt x="878" y="769" on="0"/>
        <pt x="783" y="867" on="1"/>
        <pt x="482" y="188" on="1"/>
        <pt x="532" y="163" on="0"/>
      </contour>
    </TTGlyph>
    <TTGlyph name="otilde" xMin="81" yMin="-21" xMax="1141" yMax="1487">
      <component glyphName="tilde" x="222" y="18" flags="0x1004"/>
      <component glyphName="o" x="0" y="0" flags="0x1204"/>
    </TTGlyph>
    <TTGlyph name="p" xMin="133" yMin="-457" xMax="1175" yMax="1127">
      <contour>
        <pt x="133" y="-457" on="1"/>
        <pt x="133" y="1099" on="1"/>
        <pt x="358" y="1099" on="1"/>
        <pt x="386" y="945" on="1"/>
        <pt x="440" y="1032" on="0"/>
        <pt x="619" y="1127" on="0"/>
        <pt x="729" y="1127" on="1"/>
        <pt x="864" y="1127" on="0"/>
        <pt x="1069" y="977" on="0"/>
        <pt x="1175" y="718" on="0"/>
        <pt x="1175" y="555" on="1"/>
        <pt x="1175" y="300" on="0"/>
        <pt x="928" y="-21" on="0"/>
        <pt x="717" y="-21" on="1"/>
        <pt x="613" y="-21" on="0"/>
        <pt x="444" y="62" on="0"/>
        <pt x="387" y="133" on="1"/>
        <pt x="395" y="-11" on="0"/>
        <pt x="395" y="-29" on="1"/>
        <pt x="395" y="-444" on="1"/>
      </contour>
      <contour>
        <pt x="661" y="179" on="1"/>
        <pt x="778" y="179" on="0"/>
        <pt x="913" y="375" on="0"/>
        <pt x="913" y="557" on="1"/>
        <pt x="913" y="742" on="0"/>
        <pt x="777" y="928" on="0"/>
        <pt x="656" y="928" on="1"/>
        <pt x="396" y="928" on="0"/>
        <pt x="393" y="574" on="1"/>
        <pt x="393" y="370" on="0"/>
        <pt x="528" y="179" on="0"/>
      </contour>
    </TTGlyph>
    <TTGlyph name="paragraph" xMin="78" yMin="-151" xMax="1026" yMax="1486">
      <contour>
        <pt x="419" y="-150" on="1"/>
        <pt x="419" y="782" on="1"/>
        <pt x="266" y="795" on="0"/>
        <pt x="78" y="998" on="0"/>
        <pt x="78" y="1144" on="1"/>
        <pt x="78" y="1236" on="0"/>
        <pt x="158" y="1371" on="0"/>
        <pt x="304" y="1449" on="0"/>
        <pt x="491" y="1486" on="0"/>
        <pt x="607" y="1486" on="1"/>
        <pt x="1026" y="1486" on="1"/>
        <pt x="1026" y="1315" on="1"/>
        <pt x="944" y="1315" on="1"/>
        <pt x="944" y="-151" on="1"/>
        <pt x="778" y="-151" on="1"/>
        <pt x="778" y="1315" on="1"/>
        <pt x="613" y="1315" on="1"/>
        <pt x="613" y="-151" on="1"/>
      </contour>
    </TTGlyph>
    <TTGlyph name="parenleft" xMin="93" yMin="-276" xMax="611" yMax="1488">
      <contour>
        <pt x="376" y="-276" on="1"/>
        <pt x="93" y="111" on="0"/>
        <pt x="93" y="597" on="1"/>
        <pt x="93" y="1093" on="0"/>
        <pt x="375" y="1488" on="1"/>
        <pt x="611" y="1488" on="1"/>
        <pt x="511" y="1345" on="0"/>
        <pt x="341" y="844" on="0"/>
        <pt x="341" y="599" on="1"/>
        <pt x="341" y="359" on="0"/>
        <pt x="512" y="-137" on="0"/>
        <pt x="610" y="-276" on="1"/>
      </contour>
    </TTGlyph>
    <TTGlyph name="parenright" xMin="40" yMin="-276" xMax="558" yMax="1488">
      <contour>
        <pt x="41" y="-276" on="1"/>
        <pt x="101" y="-190" on="0"/>
        <pt x="217" y="69" on="0"/>
        <pt x="309" y="434" on="0"/>
        <pt x="309" y="599" on="1"/>
        <pt x="309" y="843" on="0"/>
        <pt x="140" y="1344" on="0"/>
        <pt x="40" y="1488" on="1"/>
        <pt x="275" y="1488" on="1"/>
        <pt x="558" y="1089" on="0"/>
        <pt x="558" y="597" on="1"/>
        <pt x="558" y="113" on="0"/>
        <pt x="274" y="-276" on="1"/>
      </contour>
    </TTGlyph>
    <TTGlyph name="partialdiff" xMin="86" yMin="-25" xMax="1080" yMax="1570">
      <contour>
        <pt x="499" y="-25" on="1"/>
        <pt x="365" y="-25" on="0"/>
        <pt x="175" y="100" on="0"/>
        <pt x="86" y="307" on="0"/>
        <pt x="86" y="442" on="1"/>
        <pt x="86" y="538" on="0"/>
        <pt x="131" y="718" on="0"/>
        <pt x="218" y="870" on="0"/>
        <pt x="339" y="983" on="0"/>
        <pt x="499" y="1047" on="0"/>
        <pt x="590" y="1047" on="1"/>
        <pt x="683" y="1047" on="0"/>
        <pt x="837" y="961" on="0"/>
        <pt x="871" y="917" on="1"/>
        <pt x="871" y="919" on="0"/>
        <pt x="870" y="951" on="0"/>
        <pt x="870" y="955" on="1"/>
        <pt x="868" y="1050" on="0"/>
        <pt x="833" y="1205" on="0"/>
        <pt x="763" y="1324" on="0"/>
        <pt x="648" y="1389" on="0"/>
        <pt x="572" y="1389" on="1"/>
        <pt x="518" y="1389" on="0"/>
        <pt x="406" y="1350" on="0"/>
        <pt x="336" y="1307" on="0"/>
        <pt x="288" y="1273" on="1"/>
        <pt x="273" y="1466" on="1"/>
        <pt x="353" y="1515" on="0"/>
        <pt x="504" y="1570" on="0"/>
        <pt x="596" y="1570" on="1"/>
        <pt x="702" y="1570" on="0"/>
        <pt x="868" y="1499" on="0"/>
        <pt x="978" y="1376" on="0"/>
        <pt x="1049" y="1197" on="0"/>
        <pt x="1080" y="992" on="0"/>
        <pt x="1080" y="870" on="1"/>
        <pt x="1080" y="738" on="0"/>
        <pt x="1039" y="488" on="0"/>
        <pt x="948" y="254" on="0"/>
        <pt x="815" y="80" on="0"/>
        <pt x="618" y="-25" on="0"/>
      </contour>
      <contour>
        <pt x="504" y="158" on="1"/>
        <pt x="583" y="158" on="0"/>
        <pt x="711" y="250" on="0"/>
        <pt x="793" y="405" on="0"/>
        <pt x="843" y="579" on="0"/>
        <pt x="854" y="674" on="1"/>
        <pt x="826" y="759" on="0"/>
        <pt x="705" y="867" on="0"/>
        <pt x="614" y="867" on="1"/>
        <pt x="518" y="867" on="0"/>
        <pt x="369" y="745" on="0"/>
        <pt x="293" y="552" on="0"/>
        <pt x="293" y="440" on="1"/>
        <pt x="293" y="312" on="0"/>
        <pt x="401" y="158" on="0"/>
      </contour>
    </TTGlyph>
    <TTGlyph name="percent" xMin="54" yMin="-32" xMax="1741" yMax="1461">
      <contour>
        <pt x="407" y="836" on="1"/>
        <pt x="494" y="836" on="0"/>
        <pt x="583" y="966" on="0"/>
        <pt x="583" y="1069" on="1"/>
        <pt x="583" y="1174" on="0"/>
        <pt x="494" y="1304" on="0"/>
        <pt x="322" y="1304" on="0"/>
        <pt x="234" y="1172" on="0"/>
        <pt x="234" y="962" on="0"/>
        <pt x="321" y="836" on="0"/>
      </contour>
      <contour>
        <pt x="404" y="677" on="1"/>
        <pt x="241" y="677" on="0"/>
        <pt x="54" y="897" on="0"/>
        <pt x="54" y="1237" on="0"/>
        <pt x="247" y="1461" on="0"/>
        <pt x="409" y="1461" on="1"/>
        <pt x="578" y="1461" on="0"/>
        <pt x="772" y="1241" on="0"/>
        <pt x="772" y="1070" on="1"/>
        <pt x="772" y="901" on="0"/>
        <pt x="570" y="677" on="0"/>
      </contour>
      <contour>
        <pt x="307" y="-32" on="1"/>
        <pt x="1208" y="1450" on="1"/>
        <pt x="1428" y="1449" on="1"/>
        <pt x="520" y="-32" on="1"/>
      </contour>
      <contour>
        <pt x="1382" y="142" on="1"/>
        <pt x="1472" y="142" on="0"/>
        <pt x="1563" y="273" on="0"/>
        <pt x="1563" y="481" on="0"/>
        <pt x="1466" y="608" on="0"/>
        <pt x="1274" y="608" on="0"/>
        <pt x="1198" y="482" on="0"/>
        <pt x="1198" y="372" on="1"/>
        <pt x="1198" y="268" on="0"/>
        <pt x="1291" y="142" on="0"/>
      </contour>
      <contour>
        <pt x="1379" y="-17" on="1"/>
        <pt x="1207" y="-17" on="0"/>
        <pt x="1008" y="204" on="0"/>
        <pt x="1008" y="372" on="1"/>
        <pt x="1008" y="766" on="0"/>
        <pt x="1371" y="766" on="1"/>
        <pt x="1550" y="766" on="0"/>
        <pt x="1741" y="549" on="0"/>
        <pt x="1741" y="376" on="1"/>
        <pt x="1741" y="207" on="0"/>
        <pt x="1546" y="-17" on="0"/>
      </contour>
    </TTGlyph>
    <TTGlyph name="period" xMin="90" yMin="-18" xMax="397" yMax="289">
      <contour>
        <pt x="245" y="-18" on="1"/>
        <pt x="180" y="-18" on="0"/>
        <pt x="90" y="72" on="0"/>
        <pt x="90" y="134" on="1"/>
        <pt x="90" y="197" on="0"/>
        <pt x="179" y="289" on="0"/>
        <pt x="245" y="289" on="1"/>
        <pt x="309" y="289" on="0"/>
        <pt x="397" y="197" on="0"/>
        <pt x="397" y="134" on="1"/>
        <pt x="397" y="72" on="0"/>
        <pt x="309" y="-18" on="0"/>
      </contour>
    </TTGlyph>
    <TTGlyph name="periodcentered" xMin="90" yMin="488" xMax="332" yMax="740">
      <contour>
        <pt x="90" y="488" on="1"/>
        <pt x="90" y="740" on="1"/>
        <pt x="332" y="740" on="1"/>
        <pt x="332" y="488" on="1"/>
      </contour>
    </TTGlyph>
    <TTGlyph name="pi" xMin="58" yMin="-7" xMax="1321" yMax="1107">
      <contour>
        <pt x="1154" y="-7" on="1"/>
        <pt x="1098" y="-7" on="0"/>
        <pt x="1014" y="24" on="0"/>
        <pt x="962" y="78" on="0"/>
        <pt x="931" y="161" on="0"/>
        <pt x="919" y="252" on="0"/>
        <pt x="919" y="312" on="1"/>
        <pt x="921" y="929" on="1"/>
        <pt x="566" y="929" on="1"/>
        <pt x="538" y="243" on="0"/>
        <pt x="409" y="1" on="1"/>
        <pt x="195" y="1" on="1"/>
        <pt x="243" y="98" on="0"/>
        <pt x="316" y="547" on="0"/>
        <pt x="343" y="863" on="0"/>
        <pt x="345" y="934" on="1"/>
        <pt x="261" y="930" on="0"/>
        <pt x="145" y="894" on="0"/>
        <pt x="84" y="858" on="1"/>
        <pt x="58" y="1033" on="1"/>
        <pt x="121" y="1079" on="0"/>
        <pt x="281" y="1107" on="0"/>
        <pt x="426" y="1107" on="1"/>
        <pt x="1321" y="1107" on="1"/>
        <pt x="1321" y="927" on="1"/>
        <pt x="1125" y="927" on="1"/>
        <pt x="1125" y="321" on="1"/>
        <pt x="1125" y="253" on="0"/>
        <pt x="1152" y="193" on="0"/>
        <pt x="1196" y="193" on="1"/>
        <pt x="1226" y="193" on="0"/>
        <pt x="1300" y="216" on="1"/>
        <pt x="1286" y="7" on="1"/>
        <pt x="1207" y="-7" on="0"/>
      </contour>
    </TTGlyph>
    <TTGlyph name="plus" xMin="83" yMin="146" xMax="1098" yMax="1153">
      <contour>
        <pt x="492" y="146" on="1"/>
        <pt x="492" y="554" on="1"/>
        <pt x="83" y="554" on="1"/>
        <pt x="83" y="745" on="1"/>
        <pt x="493" y="745" on="1"/>
        <pt x="493" y="1153" on="1"/>
        <pt x="691" y="1153" on="1"/>
        <pt x="691" y="745" on="1"/>
        <pt x="1098" y="745" on="1"/>
        <pt x="1098" y="554" on="1"/>
        <pt x="690" y="554" on="1"/>
        <pt x="690" y="146" on="1"/>
      </contour>
    </TTGlyph>
    <TTGlyph name="plusminus" xMin="180" yMin="0" xMax="1109" yMax="1196">
      <contour>
        <pt x="544" y="261" on="1"/>
        <pt x="544" y="636" on="1"/>
        <pt x="180" y="636" on="1"/>
        <pt x="180" y="828" on="1"/>
        <pt x="544" y="828" on="1"/>
        <pt x="544" y="1196" on="1"/>
        <pt x="743" y="1196" on="1"/>
        <pt x="743" y="828" on="1"/>
        <pt x="1109" y="828" on="1"/>
        <pt x="1109" y="636" on="1"/>
        <pt x="744" y="636" on="1"/>
        <pt x="744" y="261" on="1"/>
      </contour>
      <contour>
        <pt x="180" y="0" on="1"/>
        <pt x="180" y="177" on="1"/>
        <pt x="1109" y="177" on="1"/>
        <pt x="1109" y="0" on="1"/>
      </contour>
    </TTGlyph>
    <TTGlyph name="product" xMin="220" yMin="-247" xMax="1327" yMax="1450">
      <contour>
        <pt x="220" y="-247" on="1"/>
        <pt x="220" y="1450" on="1"/>
        <pt x="1327" y="1450" on="1"/>
        <pt x="1327" y="-247" on="1"/>
        <pt x="1107" y="-247" on="1"/>
        <pt x="1107" y="1257" on="1"/>
        <pt x="438" y="1257" on="1"/>
        <pt x="438" y="-247" on="1"/>
      </contour>
    </TTGlyph>
    <TTGlyph name="q" xMin="82" yMin="-457" xMax="1125" yMax="1126">
      <contour>
        <pt x="862" y="-457" on="1"/>
        <pt x="862" y="8" on="1"/>
        <pt x="862" y="77" on="0"/>
        <pt x="869" y="150" on="1"/>
        <pt x="765" y="-22" on="0"/>
        <pt x="555" y="-22" on="1"/>
        <pt x="342" y="-22" on="0"/>
        <pt x="82" y="298" on="0"/>
        <pt x="82" y="555" on="1"/>
        <pt x="82" y="810" on="0"/>
        <pt x="328" y="1126" on="0"/>
        <pt x="549" y="1126" on="1"/>
        <pt x="766" y="1126" on="0"/>
        <pt x="874" y="959" on="1"/>
        <pt x="895" y="1099" on="1"/>
        <pt x="1125" y="1099" on="1"/>
        <pt x="1125" y="-444" on="1"/>
      </contour>
      <contour>
        <pt x="606" y="177" on="1"/>
        <pt x="734" y="177" on="0"/>
        <pt x="870" y="349" on="0"/>
        <pt x="872" y="535" on="1"/>
        <pt x="872" y="739" on="0"/>
        <pt x="737" y="926" on="0"/>
        <pt x="603" y="926" on="1"/>
        <pt x="482" y="926" on="0"/>
        <pt x="343" y="738" on="0"/>
        <pt x="343" y="552" on="1"/>
        <pt x="343" y="368" on="0"/>
        <pt x="483" y="177" on="0"/>
      </contour>
    </TTGlyph>
    <TTGlyph name="question" xMin="51" yMin="-18" xMax="815" yMax="1490">
      <contour>
        <pt x="323" y="448" on="1"/>
        <pt x="333" y="527" on="0"/>
        <pt x="399" y="689" on="0"/>
        <pt x="478" y="819" on="0"/>
        <pt x="555" y="941" on="0"/>
        <pt x="606" y="1062" on="0"/>
        <pt x="606" y="1113" on="1"/>
        <pt x="605" y="1201" on="0"/>
        <pt x="496" y="1303" on="0"/>
        <pt x="399" y="1303" on="1"/>
        <pt x="337" y="1303" on="0"/>
        <pt x="221" y="1272" on="0"/>
        <pt x="160" y="1242" on="0"/>
        <pt x="121" y="1218" on="1"/>
        <pt x="51" y="1384" on="1"/>
        <pt x="133" y="1437" on="0"/>
        <pt x="309" y="1490" on="0"/>
        <pt x="427" y="1490" on="1"/>
        <pt x="498" y="1490" on="0"/>
        <pt x="633" y="1447" on="0"/>
        <pt x="746" y="1366" on="0"/>
        <pt x="815" y="1232" on="0"/>
        <pt x="815" y="1148" on="1"/>
        <pt x="815" y="1080" on="0"/>
        <pt x="767" y="948" on="0"/>
        <pt x="683" y="820" on="0"/>
        <pt x="590" y="698" on="0"/>
        <pt x="475" y="529" on="0"/>
        <pt x="434" y="448" on="1"/>
      </contour>
      <contour>
        <pt x="376" y="-18" on="1"/>
        <pt x="311" y="-18" on="0"/>
        <pt x="221" y="72" on="0"/>
        <pt x="221" y="134" on="1"/>
        <pt x="221" y="197" on="0"/>
        <pt x="311" y="289" on="0"/>
        <pt x="376" y="289" on="1"/>
        <pt x="440" y="289" on="0"/>
        <pt x="528" y="197" on="0"/>
        <pt x="528" y="134" on="1"/>
        <pt x="528" y="72" on="0"/>
        <pt x="440" y="-18" on="0"/>
      </contour>
    </TTGlyph>
    <TTGlyph name="questiondown" xMin="49" yMin="-291" xMax="813" yMax="1217">
      <component glyphName="question" x="864" y="1199" scale="-1.0" flags="0x1004"/>
    </TTGlyph>
    <TTGlyph name="quotedbl" xMin="108" yMin="955" xMax="677" yMax="1470">
      <contour>
        <pt x="143" y="955" on="1"/>
        <pt x="108" y="1470" on="1"/>
        <pt x="332" y="1470" on="1"/>
        <pt x="302" y="955" on="1"/>
      </contour>
      <contour>
        <pt x="487" y="955" on="1"/>
        <pt x="454" y="1470" on="1"/>
        <pt x="677" y="1470" on="1"/>
        <pt x="646" y="955" on="1"/>
      </contour>
    </TTGlyph>
    <TTGlyph name="quotedblbase" xMin="158" yMin="-280" xMax="855" yMax="212">
      <contour>
        <pt x="158" y="-280" on="1"/>
        <pt x="269" y="212" on="1"/>
        <pt x="500" y="212" on="1"/>
        <pt x="331" y="-280" on="1"/>
      </contour>
      <contour>
        <pt x="512" y="-280" on="1"/>
        <pt x="630" y="212" on="1"/>
        <pt x="855" y="212" on="1"/>
        <pt x="692" y="-280" on="1"/>
      </contour>
    </TTGlyph>
    <TTGlyph name="quotedblleft" xMin="176" yMin="973" xMax="795" yMax="1466">
      <contour>
        <pt x="795" y="1466" on="1"/>
        <pt x="687" y="973" on="1"/>
        <pt x="477" y="973" on="1"/>
        <pt x="625" y="1466" on="1"/>
      </contour>
      <contour>
        <pt x="495" y="1466" on="1"/>
        <pt x="395" y="973" on="1"/>
        <pt x="176" y="973" on="1"/>
        <pt x="336" y="1466" on="1"/>
      </contour>
    </TTGlyph>
    <TTGlyph name="quotedblright" xMin="176" yMin="973" xMax="795" yMax="1466">
      <contour>
        <pt x="176" y="973" on="1"/>
        <pt x="284" y="1466" on="1"/>
        <pt x="494" y="1466" on="1"/>
        <pt x="346" y="973" on="1"/>
      </contour>
      <contour>
        <pt x="476" y="973" on="1"/>
        <pt x="576" y="1466" on="1"/>
        <pt x="795" y="1466" on="1"/>
        <pt x="635" y="973" on="1"/>
      </contour>
    </TTGlyph>
    <TTGlyph name="quoteleft" xMin="60" yMin="973" xMax="386" yMax="1466">
      <contour>
        <pt x="386" y="1466" on="1"/>
        <pt x="278" y="973" on="1"/>
        <pt x="60" y="973" on="1"/>
        <pt x="219" y="1466" on="1"/>
      </contour>
    </TTGlyph>
    <TTGlyph name="quoteright" xMin="60" yMin="973" xMax="386" yMax="1466">
      <contour>
        <pt x="60" y="973" on="1"/>
        <pt x="168" y="1466" on="1"/>
        <pt x="386" y="1466" on="1"/>
        <pt x="227" y="973" on="1"/>
      </contour>
    </TTGlyph>
    <TTGlyph name="quotesinglbase" xMin="116" yMin="-280" xMax="444" yMax="212">
      <contour>
        <pt x="116" y="-280" on="1"/>
        <pt x="224" y="212" on="1"/>
        <pt x="444" y="212" on="1"/>
        <pt x="285" y="-280" on="1"/>
      </contour>
    </TTGlyph>
    <TTGlyph name="quotesingle" xMin="105" yMin="929" xMax="319" yMax="1464">
      <contour>
        <pt x="140" y="929" on="1"/>
        <pt x="105" y="1464" on="1"/>
        <pt x="319" y="1464" on="1"/>
        <pt x="292" y="929" on="1"/>
      </contour>
    </TTGlyph>
    <TTGlyph name="r" xMin="134" yMin="0" xMax="771" yMax="1104">
      <contour>
        <pt x="134" y="0" on="1"/>
        <pt x="134" y="1099" on="1"/>
        <pt x="354" y="1099" on="1"/>
        <pt x="388" y="931" on="1"/>
        <pt x="496" y="1104" on="0"/>
        <pt x="701" y="1104" on="1"/>
        <pt x="744" y="1104" on="0"/>
        <pt x="771" y="1100" on="1"/>
        <pt x="767" y="881" on="1"/>
        <pt x="727" y="887" on="0"/>
        <pt x="684" y="887" on="1"/>
        <pt x="539" y="887" on="0"/>
        <pt x="396" y="733" on="0"/>
        <pt x="396" y="596" on="1"/>
        <pt x="396" y="0" on="1"/>
      </contour>
    </TTGlyph>
    <TTGlyph name="racute" xMin="134" yMin="0" xMax="845" yMax="1631">
      <component glyphName="acute" x="184" y="53" flags="0x1004"/>
      <component glyphName="r" x="0" y="0" flags="0x1204"/>
    </TTGlyph>
    <TTGlyph name="radical" xMin="76" yMin="-156" xMax="1214" yMax="1634">
      <contour>
        <pt x="592" y="-156" on="1"/>
        <pt x="271" y="682" on="1"/>
        <pt x="102" y="654" on="1"/>
        <pt x="76" y="811" on="1"/>
        <pt x="396" y="871" on="1"/>
        <pt x="627" y="236" on="1"/>
        <pt x="659" y="134" on="1"/>
        <pt x="677" y="209" on="0"/>
        <pt x="1040" y="1634" on="1"/>
        <pt x="1214" y="1634" on="1"/>
        <pt x="753" y="-156" on="1"/>
      </contour>
    </TTGlyph>
    <TTGlyph name="rcaron" xMin="90" yMin="0" xMax="816" yMax="1601">
      <component glyphName="caron" x="50" y="55" flags="0x1004"/>
      <component glyphName="r" x="0" y="0" flags="0x1204"/>
    </TTGlyph>
    <TTGlyph name="rcommaaccent" xMin="134" yMin="-620" xMax="771" yMax="1104">
      <contour>
        <pt x="322" y="-620" on="1"/>
        <pt x="417" y="-122" on="1"/>
        <pt x="602" y="-122" on="1"/>
        <pt x="458" y="-620" on="1"/>
      </contour>
      <contour>
        <pt x="134" y="0" on="1"/>
        <pt x="134" y="1099" on="1"/>
        <pt x="354" y="1099" on="1"/>
        <pt x="388" y="931" on="1"/>
        <pt x="496" y="1104" on="0"/>
        <pt x="701" y="1104" on="1"/>
        <pt x="744" y="1104" on="0"/>
        <pt x="771" y="1100" on="1"/>
        <pt x="767" y="881" on="1"/>
        <pt x="727" y="887" on="0"/>
        <pt x="684" y="887" on="1"/>
        <pt x="539" y="887" on="0"/>
        <pt x="396" y="733" on="0"/>
        <pt x="396" y="596" on="1"/>
        <pt x="396" y="0" on="1"/>
      </contour>
    </TTGlyph>
    <TTGlyph name="registered" xMin="89" yMin="-22" xMax="1645" yMax="1505">
      <contour>
        <pt x="556" y="271" on="1"/>
        <pt x="556" y="1226" on="1"/>
        <pt x="856" y="1226" on="1"/>
        <pt x="1214" y="1226" on="0"/>
        <pt x="1214" y="964" on="1"/>
        <pt x="1214" y="854" on="0"/>
        <pt x="1115" y="730" on="0"/>
        <pt x="1000" y="705" on="1"/>
        <pt x="1012" y="690" on="0"/>
        <pt x="1042" y="646" on="0"/>
        <pt x="1081" y="582" on="0"/>
        <pt x="1111" y="531" on="0"/>
        <pt x="1162" y="440" on="0"/>
        <pt x="1187" y="394" on="0"/>
        <pt x="1245" y="288" on="0"/>
        <pt x="1254" y="271" on="1"/>
        <pt x="1089" y="271" on="1"/>
        <pt x="1063" y="317" on="0"/>
        <pt x="968" y="499" on="1"/>
        <pt x="870" y="679" on="0"/>
        <pt x="856" y="688" on="1"/>
        <pt x="704" y="688" on="1"/>
        <pt x="704" y="271" on="1"/>
      </contour>
      <contour>
        <pt x="703" y="813" on="1"/>
        <pt x="823" y="813" on="1"/>
        <pt x="872" y="813" on="0"/>
        <pt x="940" y="819" on="0"/>
        <pt x="1004" y="838" on="0"/>
        <pt x="1042" y="871" on="0"/>
        <pt x="1064" y="924" on="0"/>
        <pt x="1064" y="962" on="1"/>
        <pt x="1064" y="995" on="0"/>
        <pt x="1051" y="1041" on="0"/>
        <pt x="1019" y="1072" on="0"/>
        <pt x="984" y="1089" on="0"/>
        <pt x="919" y="1098" on="0"/>
        <pt x="862" y="1100" on="0"/>
        <pt x="814" y="1100" on="1"/>
        <pt x="703" y="1100" on="1"/>
      </contour>
      <contour>
        <pt x="865" y="78" on="1"/>
        <pt x="1054" y="78" on="0"/>
        <pt x="1360" y="256" on="0"/>
        <pt x="1529" y="559" on="0"/>
        <pt x="1529" y="741" on="1"/>
        <pt x="1529" y="922" on="0"/>
        <pt x="1360" y="1225" on="0"/>
        <pt x="1053" y="1404" on="0"/>
        <pt x="864" y="1404" on="1"/>
        <pt x="677" y="1404" on="0"/>
        <pt x="373" y="1225" on="0"/>
        <pt x="205" y="923" on="0"/>
        <pt x="205" y="742" on="1"/>
        <pt x="205" y="560" on="0"/>
        <pt x="374" y="257" on="0"/>
        <pt x="678" y="78" on="0"/>
      </contour>
      <contour>
        <pt x="865" y="-22" on="1"/>
        <pt x="709" y="-22" on="0"/>
        <pt x="425" y="92" on="0"/>
        <pt x="214" y="290" on="0"/>
        <pt x="89" y="577" on="0"/>
        <pt x="89" y="905" on="0"/>
        <pt x="214" y="1192" on="0"/>
        <pt x="424" y="1391" on="0"/>
        <pt x="708" y="1505" on="0"/>
        <pt x="864" y="1505" on="1"/>
        <pt x="1021" y="1505" on="0"/>
        <pt x="1307" y="1391" on="0"/>
        <pt x="1519" y="1192" on="0"/>
        <pt x="1645" y="905" on="0"/>
        <pt x="1645" y="577" on="0"/>
        <pt x="1520" y="290" on="0"/>
        <pt x="1308" y="92" on="0"/>
        <pt x="1022" y="-22" on="0"/>
      </contour>
    </TTGlyph>
    <TTGlyph name="ring" xMin="109" yMin="1158" xMax="550" yMax="1562">
      <contour>
        <pt x="279" y="1251" on="0"/>
        <pt x="381" y="1251" on="0"/>
        <pt x="436" y="1315" on="0"/>
        <pt x="436" y="1361" on="1"/>
        <pt x="436" y="1406" on="0"/>
        <pt x="380" y="1473" on="0"/>
        <pt x="330" y="1473" on="1"/>
        <pt x="279" y="1473" on="0"/>
        <pt x="223" y="1408" on="0"/>
        <pt x="223" y="1361" on="1"/>
        <pt x="223" y="1315" on="0"/>
      </contour>
      <contour>
        <pt x="430" y="1158" on="0"/>
        <pt x="230" y="1158" on="0"/>
        <pt x="109" y="1278" on="0"/>
        <pt x="109" y="1362" on="1"/>
        <pt x="109" y="1445" on="0"/>
        <pt x="228" y="1562" on="0"/>
        <pt x="330" y="1562" on="1"/>
        <pt x="431" y="1562" on="0"/>
        <pt x="550" y="1445" on="0"/>
        <pt x="550" y="1362" on="1"/>
        <pt x="550" y="1278" on="0"/>
      </contour>
    </TTGlyph>
    <TTGlyph name="s" xMin="95" yMin="-20" xMax="911" yMax="1126">
      <contour>
        <pt x="484" y="-20" on="1"/>
        <pt x="241" y="-20" on="0"/>
        <pt x="95" y="63" on="1"/>
        <pt x="122" y="260" on="1"/>
        <pt x="188" y="224" on="0"/>
        <pt x="392" y="167" on="0"/>
        <pt x="476" y="167" on="1"/>
        <pt x="563" y="167" on="0"/>
        <pt x="660" y="232" on="0"/>
        <pt x="661" y="295" on="1"/>
        <pt x="661" y="352" on="0"/>
        <pt x="570" y="418" on="0"/>
        <pt x="442" y="467" on="1"/>
        <pt x="398" y="483" on="0"/>
        <pt x="385" y="488" on="1"/>
        <pt x="233" y="547" on="0"/>
        <pt x="99" y="692" on="0"/>
        <pt x="99" y="816" on="1"/>
        <pt x="99" y="966" on="0"/>
        <pt x="316" y="1126" on="0"/>
        <pt x="510" y="1126" on="1"/>
        <pt x="720" y="1126" on="0"/>
        <pt x="879" y="1047" on="1"/>
        <pt x="814" y="866" on="1"/>
        <pt x="657" y="939" on="0"/>
        <pt x="515" y="939" on="1"/>
        <pt x="436" y="939" on="0"/>
        <pt x="347" y="886" on="0"/>
        <pt x="347" y="832" on="1"/>
        <pt x="347" y="781" on="0"/>
        <pt x="433" y="724" on="0"/>
        <pt x="558" y="678" on="1"/>
        <pt x="562" y="677" on="0"/>
        <pt x="606" y="661" on="0"/>
        <pt x="618" y="656" on="1"/>
        <pt x="769" y="601" on="0"/>
        <pt x="911" y="448" on="0"/>
        <pt x="911" y="325" on="1"/>
        <pt x="910" y="160" on="0"/>
        <pt x="688" y="-20" on="0"/>
      </contour>
    </TTGlyph>
    <TTGlyph name="sacute" xMin="95" yMin="-20" xMax="911" yMax="1631">
      <component glyphName="acute" x="234" y="53" flags="0x1004"/>
      <component glyphName="s" x="0" y="0" flags="0x1204"/>
    </TTGlyph>
    <TTGlyph name="scaron" xMin="95" yMin="-20" xMax="911" yMax="1601">
      <component glyphName="caron" x="100" y="55" flags="0x1004"/>
      <component glyphName="s" x="0" y="0" flags="0x1204"/>
    </TTGlyph>
    <TTGlyph name="scedilla" xMin="95" yMin="-388" xMax="911" yMax="1126">
      <component glyphName="cedilla" x="246" y="-31" flags="0x1004"/>
      <component glyphName="s" x="0" y="0" flags="0x1204"/>
    </TTGlyph>
    <TTGlyph name="scircumflex" xMin="95" yMin="-20" xMax="911" yMax="1631">
      <component glyphName="circumflex" x="102" y="85" flags="0x1004"/>
      <component glyphName="s" x="0" y="0" flags="0x1204"/>
    </TTGlyph>
    <TTGlyph name="scommaaccent" xMin="95" yMin="-640" xMax="911" yMax="1126">
      <contour>
        <pt x="363" y="-640" on="1"/>
        <pt x="458" y="-142" on="1"/>
        <pt x="643" y="-142" on="1"/>
        <pt x="499" y="-640" on="1"/>
      </contour>
      <contour>
        <pt x="484" y="-20" on="1"/>
        <pt x="241" y="-20" on="0"/>
        <pt x="95" y="63" on="1"/>
        <pt x="122" y="260" on="1"/>
        <pt x="188" y="224" on="0"/>
        <pt x="392" y="167" on="0"/>
        <pt x="476" y="167" on="1"/>
        <pt x="563" y="167" on="0"/>
        <pt x="660" y="232" on="0"/>
        <pt x="661" y="295" on="1"/>
        <pt x="661" y="352" on="0"/>
        <pt x="570" y="418" on="0"/>
        <pt x="442" y="467" on="1"/>
        <pt x="398" y="483" on="0"/>
        <pt x="385" y="488" on="1"/>
        <pt x="233" y="547" on="0"/>
        <pt x="99" y="692" on="0"/>
        <pt x="99" y="816" on="1"/>
        <pt x="99" y="966" on="0"/>
        <pt x="316" y="1126" on="0"/>
        <pt x="510" y="1126" on="1"/>
        <pt x="720" y="1126" on="0"/>
        <pt x="879" y="1047" on="1"/>
        <pt x="814" y="866" on="1"/>
        <pt x="657" y="939" on="0"/>
        <pt x="515" y="939" on="1"/>
        <pt x="436" y="939" on="0"/>
        <pt x="347" y="886" on="0"/>
        <pt x="347" y="832" on="1"/>
        <pt x="347" y="781" on="0"/>
        <pt x="433" y="724" on="0"/>
        <pt x="558" y="678" on="1"/>
        <pt x="562" y="677" on="0"/>
        <pt x="606" y="661" on="0"/>
        <pt x="618" y="656" on="1"/>
        <pt x="769" y="601" on="0"/>
        <pt x="911" y="448" on="0"/>
        <pt x="911" y="325" on="1"/>
        <pt x="910" y="160" on="0"/>
        <pt x="688" y="-20" on="0"/>
      </contour>
    </TTGlyph>
    <TTGlyph name="section" xMin="133" yMin="-31" xMax="914" yMax="1551">
      <contour>
        <pt x="664" y="-31" on="0"/>
        <pt x="280" y="-31" on="0"/>
        <pt x="138" y="37" on="1"/>
        <pt x="138" y="228" on="1"/>
        <pt x="208" y="195" on="0"/>
        <pt x="391" y="150" on="0"/>
        <pt x="463" y="150" on="1"/>
        <pt x="549" y="150" on="0"/>
        <pt x="655" y="201" on="0"/>
        <pt x="663" y="250" on="1"/>
        <pt x="677" y="302" on="0"/>
        <pt x="591" y="382" on="0"/>
        <pt x="470" y="435" on="1"/>
        <pt x="386" y="469" on="0"/>
        <pt x="272" y="531" on="0"/>
        <pt x="178" y="611" on="0"/>
        <pt x="133" y="713" on="0"/>
        <pt x="133" y="776" on="1"/>
        <pt x="133" y="857" on="0"/>
        <pt x="212" y="985" on="0"/>
        <pt x="276" y="1026" on="1"/>
        <pt x="150" y="1114" on="0"/>
        <pt x="150" y="1261" on="1"/>
        <pt x="150" y="1401" on="0"/>
        <pt x="357" y="1549" on="0"/>
        <pt x="532" y="1551" on="1"/>
        <pt x="707" y="1556" on="0"/>
        <pt x="872" y="1493" on="1"/>
        <pt x="871" y="1486" on="0"/>
        <pt x="837" y="1315" on="0"/>
        <pt x="836" y="1309" on="1"/>
        <pt x="697" y="1370" on="0"/>
        <pt x="556" y="1370" on="1"/>
        <pt x="380" y="1370" on="0"/>
        <pt x="380" y="1264" on="1"/>
        <pt x="380" y="1214" on="0"/>
        <pt x="474" y="1141" on="0"/>
        <pt x="584" y="1096" on="1"/>
        <pt x="661" y="1065" on="0"/>
        <pt x="772" y="1004" on="0"/>
        <pt x="866" y="925" on="0"/>
        <pt x="914" y="826" on="0"/>
        <pt x="914" y="767" on="1"/>
        <pt x="914" y="603" on="0"/>
        <pt x="776" y="509" on="1"/>
        <pt x="903" y="424" on="0"/>
        <pt x="903" y="284" on="1"/>
        <pt x="903" y="132" on="0"/>
      </contour>
      <contour>
        <pt x="607" y="589" on="1"/>
        <pt x="703" y="654" on="0"/>
        <pt x="703" y="731" on="1"/>
        <pt x="703" y="797" on="0"/>
        <pt x="570" y="892" on="0"/>
        <pt x="444" y="940" on="1"/>
        <pt x="399" y="917" on="0"/>
        <pt x="346" y="844" on="0"/>
        <pt x="346" y="802" on="1"/>
        <pt x="346" y="746" on="0"/>
        <pt x="449" y="656" on="0"/>
        <pt x="546" y="614" on="1"/>
        <pt x="551" y="612" on="0"/>
        <pt x="598" y="592" on="0"/>
      </contour>
    </TTGlyph>
    <TTGlyph name="semicolon" xMin="107" yMin="-322" xMax="389" yMax="1105">
      <contour>
        <pt x="107" y="-322" on="1"/>
        <pt x="163" y="246" on="1"/>
        <pt x="389" y="246" on="1"/>
        <pt x="265" y="-322" on="1"/>
      </contour>
      <contour>
        <pt x="125" y="841" on="1"/>
        <pt x="125" y="1105" on="1"/>
        <pt x="389" y="1105" on="1"/>
        <pt x="389" y="841" on="1"/>
      </contour>
    </TTGlyph>
    <TTGlyph name="seven" xMin="75" yMin="0" xMax="977" yMax="1459">
      <contour>
        <pt x="237" y="0" on="1"/>
        <pt x="679" y="1258" on="1"/>
        <pt x="75" y="1258" on="1"/>
        <pt x="77" y="1459" on="1"/>
        <pt x="977" y="1459" on="1"/>
        <pt x="977" y="1302" on="1"/>
        <pt x="505" y="0" on="1"/>
      </contour>
    </TTGlyph>
    <TTGlyph name="six" xMin="65" yMin="-21" xMax="1151" yMax="1467">
      <contour>
        <pt x="615" y="-21" on="1"/>
        <pt x="371" y="-21" on="0"/>
        <pt x="65" y="245" on="0"/>
        <pt x="65" y="463" on="1"/>
        <pt x="65" y="533" on="0"/>
        <pt x="95" y="661" on="0"/>
        <pt x="157" y="783" on="0"/>
        <pt x="219" y="877" on="0"/>
        <pt x="268" y="942" on="1"/>
        <pt x="684" y="1467" on="1"/>
        <pt x="994" y="1467" on="1"/>
        <pt x="540" y="894" on="1"/>
        <pt x="613" y="919" on="0"/>
        <pt x="662" y="919" on="1"/>
        <pt x="877" y="919" on="0"/>
        <pt x="1151" y="662" on="0"/>
        <pt x="1151" y="456" on="1"/>
        <pt x="1151" y="242" on="0"/>
        <pt x="851" y="-21" on="0"/>
      </contour>
      <contour>
        <pt x="603" y="179" on="1"/>
        <pt x="735" y="179" on="0"/>
        <pt x="884" y="330" on="0"/>
        <pt x="884" y="453" on="1"/>
        <pt x="884" y="582" on="0"/>
        <pt x="744" y="731" on="0"/>
        <pt x="606" y="731" on="1"/>
        <pt x="466" y="731" on="0"/>
        <pt x="334" y="581" on="0"/>
        <pt x="334" y="451" on="1"/>
        <pt x="334" y="328" on="0"/>
        <pt x="474" y="179" on="0"/>
      </contour>
    </TTGlyph>
    <TTGlyph name="slash" xMin="52" yMin="-189" xMax="892" yMax="1489">
      <contour>
        <pt x="52" y="-189" on="1"/>
        <pt x="674" y="1489" on="1"/>
        <pt x="892" y="1489" on="1"/>
        <pt x="265" y="-189" on="1"/>
      </contour>
    </TTGlyph>
    <TTGlyph name="sterling" xMin="67" yMin="0" xMax="1105" yMax="1487">
      <contour>
        <pt x="85" y="0" on="1"/>
        <pt x="69" y="190" on="1"/>
        <pt x="170" y="233" on="0"/>
        <pt x="252" y="354" on="0"/>
        <pt x="252" y="469" on="1"/>
        <pt x="252" y="659" on="1"/>
        <pt x="67" y="659" on="1"/>
        <pt x="67" y="838" on="1"/>
        <pt x="252" y="838" on="1"/>
        <pt x="252" y="943" on="1"/>
        <pt x="252" y="1066" on="0"/>
        <pt x="301" y="1260" on="0"/>
        <pt x="406" y="1408" on="0"/>
        <pt x="583" y="1487" on="0"/>
        <pt x="703" y="1487" on="1"/>
        <pt x="921" y="1487" on="0"/>
        <pt x="1088" y="1347" on="1"/>
        <pt x="985" y="1178" on="1"/>
        <pt x="911" y="1227" on="0"/>
        <pt x="784" y="1278" on="0"/>
        <pt x="713" y="1278" on="1"/>
        <pt x="501" y="1278" on="0"/>
        <pt x="501" y="1017" on="1"/>
        <pt x="501" y="838" on="1"/>
        <pt x="892" y="838" on="1"/>
        <pt x="892" y="659" on="1"/>
        <pt x="501" y="659" on="1"/>
        <pt x="501" y="509" on="1"/>
        <pt x="501" y="309" on="0"/>
        <pt x="389" y="213" on="1"/>
        <pt x="397" y="214" on="0"/>
        <pt x="536" y="214" on="1"/>
        <pt x="1105" y="214" on="1"/>
        <pt x="1097" y="0" on="1"/>
      </contour>
    </TTGlyph>
    <TTGlyph name="summation" xMin="60" yMin="-336" xMax="1224" yMax="1458">
      <contour>
        <pt x="60" y="-336" on="1"/>
        <pt x="60" y="-216" on="1"/>
        <pt x="671" y="567" on="1"/>
        <pt x="81" y="1333" on="1"/>
        <pt x="81" y="1458" on="1"/>
        <pt x="1181" y="1458" on="1"/>
        <pt x="1181" y="1268" on="1"/>
        <pt x="382" y="1268" on="1"/>
        <pt x="921" y="575" on="1"/>
        <pt x="354" y="-140" on="1"/>
        <pt x="1224" y="-140" on="1"/>
        <pt x="1224" y="-336" on="1"/>
      </contour>
    </TTGlyph>
</ttFont>
